<!-- Generated by IcoMoon.io -->
<svg version="1.1" xmlns="http://www.w3.org/2000/svg" width="32" height="32" viewBox="0 0 32 32">
<title>3DShape</title>
<path fill="#0e3556" d="M2.612 0h26.776c1.443 0 2.612 1.17 2.612 2.612v26.776c0 1.443-1.17 2.612-2.612 2.612h-26.776c-1.443 0-2.612-1.17-2.612-2.612v-26.776c0-1.443 1.17-2.612 2.612-2.612z"></path>
<path fill="#fff" d="M11.937 20.245c-0.873 0-1.725-0.256-2.141-0.535l0.213-0.992c0.373 0.245 1.161 0.435 1.704 0.435 0.98 0 1.555-0.424 1.555-1.282 0-0.814-0.586-1.148-1.512-1.159l-0.756-0.022v-0.992l0.671-0.011c0.841-0.022 1.406-0.424 1.406-1.137 0-0.769-0.501-1.048-1.299-1.048-0.543 0-1.118 0.19-1.555 0.401l-0.149-1.014c0.447-0.268 1.331-0.479 2.045-0.479 1.353 0 2.268 0.669 2.268 1.895 0 0.914-0.511 1.494-1.31 1.784 0.916 0.19 1.555 0.736 1.555 1.873 0 1.405-1.033 2.285-2.695 2.285zM21.551 16.332c0 2.453-1.14 3.801-3.483 3.801h-2.407v-7.647h2.396c2.237 0 3.493 1.126 3.493 3.623v0.223zM16.971 19.052h1.108c1.427 0 2.087-0.736 2.087-2.586v-0.368c0-1.929-0.799-2.531-2.183-2.531h-1.012v5.485z"></path>
</svg>
