<!-- Generated by IcoMoon.io -->
<svg version="1.1" xmlns="http://www.w3.org/2000/svg" width="32" height="32" viewBox="0 0 32 32">
<title>AgencyManagement</title>
<path fill="#fff" d="M28.897 5.262c-0.159-0.273-0.45-0.442-0.765-0.447h-3.021v2.739c-0.013 0.333-0.287 0.595-0.619 0.594h-16.983c-0.333 0.001-0.607-0.261-0.619-0.594v-2.739h-2.436c-0.292 0.004-0.564 0.15-0.729 0.39l-3.185 4.573h31.019l-2.661-4.516z"></path>
<path fill="#fff" d="M26.815 19.926h-5.704v11.778h5.704v-11.778z"></path>
<path fill="#fff" d="M23.926 0.296h-15.852v6.667h15.852v-6.667z"></path>
<path fill="#fff" d="M17.186 20h-12v7.555h12v-7.555z"></path>
<path fill="#fff" d="M0 10.963v2.497c-0.003 0.494 0.39 0.899 0.884 0.911h30.231c0.494-0.011 0.888-0.417 0.884-0.911v-2.497h-32z"></path>
<path fill="#fff" d="M2.444 15.556v16.148h17.481v-12.363c0.012-0.334 0.285-0.598 0.619-0.599h6.869c0.327 0.004 0.59 0.272 0.586 0.599v12.364h1.556v-16.148h-27.111zM18.37 28.148c0 0.327-0.265 0.592-0.593 0.592h-13.185c-0.327 0-0.593-0.265-0.593-0.592v-8.741c0-0.327 0.265-0.593 0.593-0.593h13.185c0.327 0 0.593 0.265 0.593 0.593v8.741z"></path>
</svg>
