<svg width="30" height="36" viewBox="0 0 30 36" fill="none" xmlns="http://www.w3.org/2000/svg">
<path d="M2.53902 29.0938C2.53902 29.7852 3.09762 30.3438 3.78902 30.3438H26.2109C26.9023 30.3438 27.4609 29.7852 27.4609 29.0938V19.9922C27.4609 13.1094 21.8828 7.53125 15 7.53125C8.11715 7.53125 2.53902 13.1094 2.53902 19.9922V29.0938ZM5.35152 19.9922C5.35152 14.6641 9.67184 10.3438 15 10.3438C20.3281 10.3438 24.6484 14.6641 24.6484 19.9922V27.5312H10.7812V20.8516C10.7812 20.6367 10.6054 20.4609 10.3906 20.4609H8.67184C8.45699 20.4609 8.28121 20.6367 8.28121 20.8516V27.5312H5.35152V19.9922ZM3.47262 10.1289L5.01949 8.58203C5.14059 8.46094 5.14059 8.26172 5.01949 8.14062L2.36715 5.48828C2.30842 5.43012 2.2291 5.3975 2.14645 5.3975C2.06379 5.3975 1.98448 5.43012 1.92574 5.48828L0.378867 7.03516C0.32071 7.09389 0.288086 7.1732 0.288086 7.25586C0.288086 7.33851 0.32071 7.41783 0.378867 7.47656L3.03121 10.1289C3.15231 10.25 3.34762 10.25 3.47262 10.1289ZM29.6289 7.03516L28.082 5.48828C28.0233 5.43012 27.9439 5.3975 27.8613 5.3975C27.7786 5.3975 27.6993 5.43012 27.6406 5.48828L24.9882 8.14062C24.9301 8.19936 24.8975 8.27867 24.8975 8.36133C24.8975 8.44398 24.9301 8.5233 24.9882 8.58203L26.5351 10.1289C26.6562 10.25 26.8554 10.25 26.9765 10.1289L29.6289 7.47656C29.75 7.35156 29.75 7.15625 29.6289 7.03516ZM27.5 32.8438H2.49996C1.80856 32.8438 1.24996 33.4023 1.24996 34.0938V35.0312C1.24996 35.2031 1.39059 35.3438 1.56246 35.3438H28.4375C28.6093 35.3438 28.75 35.2031 28.75 35.0312V34.0938C28.75 33.4023 28.1914 32.8438 27.5 32.8438ZM13.9062 5.03125H16.0937C16.2656 5.03125 16.4062 4.89062 16.4062 4.71875V0.96875C16.4062 0.796875 16.2656 0.65625 16.0937 0.65625H13.9062C13.7343 0.65625 13.5937 0.796875 13.5937 0.96875V4.71875C13.5937 4.89062 13.7343 5.03125 13.9062 5.03125Z" fill="#E5A13B"/>
</svg>
