<!-- Generated by IcoMoon.io -->
<svg version="1.1" xmlns="http://www.w3.org/2000/svg" width="32" height="32" viewBox="0 0 32 32">
<title>AlertError</title>
<path fill="#e94545" d="M16 0c-8.837 0-16 7.163-16 16s7.163 16 16 16c8.837 0 16-7.163 16-16s-7.163-16-16-16zM16 8.553c0.741 0 1.341 0.6 1.341 1.341l-0.343 8c-0.034 0.723-0.597 0.998-0.998 0.998-0.45 0-0.959-0.238-0.998-0.998l-0.343-8c0-0.741 0.601-1.341 1.341-1.341zM17.21 22.947c-0.316 0.319-0.758 0.5-1.21 0.5s-0.895-0.181-1.214-0.5-0.501-0.761-0.501-1.214c0-0.449 0.182-0.891 0.501-1.21s0.761-0.504 1.214-0.504c0.452 0 0.891 0.185 1.21 0.504 0.322 0.319 0.504 0.761 0.504 1.21 0 0.453-0.182 0.895-0.504 1.214z"></path>
</svg>
