<!-- Generated by IcoMoon.io -->
<svg version="1.1" xmlns="http://www.w3.org/2000/svg" width="32" height="32" viewBox="0 0 32 32">
<title>AreaUsed</title>
<path d="M30.421 17.948l-3.433-2.656v-3.045c0-0.194-0.162-0.389-0.389-0.389h-1.069c-0.194 0-0.389 0.162-0.389 0.389v1.62l-5.636-4.34c-0.324-0.259-0.81-0.259-1.133 0l-10.883 8.421c-0.194 0.162-0.324 0.356-0.356 0.615s0.032 0.486 0.194 0.68c0.162 0.194 0.356 0.324 0.615 0.356s0.486-0.032 0.68-0.194l0.907-0.713v10.3c0 0.486 0.389 0.874 0.875 0.874h17.102c0.486 0 0.874-0.389 0.874-0.874v-10.3l0.907 0.713c0.194 0.13 0.421 0.194 0.68 0.162s0.486-0.162 0.615-0.356c0.162-0.194 0.227-0.421 0.194-0.68-0.032-0.227-0.162-0.421-0.356-0.583zM21.19 28.118h-4.47v-7.093h4.47v7.093zM26.631 28.118h-3.692v-7.968c0-0.486-0.389-0.875-0.874-0.875h-6.219c-0.486 0-0.874 0.389-0.874 0.875v7.968h-3.692v-10.786l0.032-0.032 7.644-5.862 0.065 0.032 7.612 5.862v10.786z"></path>
<path d="M10.273 9.008c0.162 0.162 0.389 0.259 0.615 0.259s0.454-0.097 0.615-0.259c0.356-0.356 0.356-0.907 0-1.231l-1.198-1.198h17.231l-1.134 1.198c-0.356 0.356-0.356 0.907 0 1.231 0.162 0.162 0.389 0.259 0.615 0.259s0.453-0.097 0.615-0.259l2.688-2.688c0.356-0.356 0.356-0.907 0-1.231l-2.688-2.688c-0.356-0.356-0.907-0.356-1.231 0-0.356 0.356-0.356 0.907 0 1.231l1.198 1.198h-17.264l1.198-1.198c0.356-0.356 0.356-0.907 0-1.231-0.356-0.356-0.907-0.356-1.231 0l-2.688 2.688c-0.356 0.356-0.356 0.907 0 1.231l2.656 2.688z"></path>
<path d="M5.644 25.106l-1.198 1.198v-13.377l1.198 1.198c0.162 0.162 0.389 0.259 0.615 0.259s0.453-0.097 0.615-0.259c0.356-0.356 0.356-0.907 0-1.231l-2.688-2.688c-0.356-0.356-0.907-0.356-1.231 0l-2.688 2.688c-0.356 0.356-0.356 0.907 0 1.231 0.356 0.356 0.907 0.356 1.231 0l1.198-1.198v13.344l-1.198-1.198c-0.356-0.356-0.907-0.356-1.231 0-0.356 0.356-0.356 0.907 0 1.231l2.688 2.688c0.162 0.162 0.389 0.259 0.615 0.259s0.453-0.097 0.615-0.259l2.688-2.688c0.356-0.356 0.356-0.907 0-1.231s-0.907-0.324-1.231 0.032z"></path>
</svg>
