<!-- Generated by IcoMoon.io -->
<svg version="1.1" xmlns="http://www.w3.org/2000/svg" width="32" height="32" viewBox="0 0 32 32">
<title>AreaUsedShape</title>
<path fill="#f9f9f9" d="M5.333 0h21.333c2.946 0 5.333 2.388 5.333 5.333v21.333c0 2.946-2.388 5.333-5.333 5.333h-21.333c-2.946 0-5.333-2.388-5.333-5.333v-21.333c0-2.946 2.388-5.333 5.333-5.333z"></path>
<path fill="#8b99a5" d="M25.68 17.884l-2.146-1.66v-1.903c0-0.121-0.101-0.243-0.243-0.243h-0.668c-0.121 0-0.243 0.101-0.243 0.243v1.012l-3.522-2.713c-0.202-0.162-0.506-0.162-0.709 0l-6.802 5.263c-0.121 0.101-0.202 0.223-0.223 0.385s0.020 0.304 0.121 0.425 0.223 0.202 0.385 0.223c0.162 0.020 0.304-0.020 0.425-0.121l0.567-0.445v6.437c0 0.304 0.243 0.547 0.547 0.547h10.688c0.304 0 0.547-0.243 0.547-0.547v-6.437l0.567 0.445c0.121 0.081 0.263 0.121 0.425 0.101s0.304-0.101 0.385-0.223c0.101-0.121 0.142-0.263 0.121-0.425-0.020-0.142-0.101-0.263-0.223-0.364zM19.911 24.24h-2.794v-4.433h2.794v4.433zM23.312 24.24h-2.308v-4.98c0-0.304-0.243-0.547-0.547-0.547h-3.887c-0.304 0-0.547 0.243-0.547 0.547v4.98h-2.308v-6.741l0.020-0.020 4.777-3.664 0.041 0.020 4.757 3.664v6.741z"></path>
<path fill="#8b99a5" d="M13.089 12.297c0.101 0.101 0.243 0.162 0.385 0.162s0.283-0.061 0.385-0.162c0.223-0.223 0.223-0.567 0-0.769l-0.749-0.749h10.769l-0.709 0.749c-0.223 0.223-0.223 0.567 0 0.769 0.101 0.101 0.243 0.162 0.385 0.162s0.283-0.061 0.385-0.162l1.68-1.68c0.223-0.223 0.223-0.567 0-0.769l-1.68-1.68c-0.223-0.223-0.567-0.223-0.769 0-0.223 0.223-0.223 0.567 0 0.769l0.749 0.749h-10.79l0.749-0.749c0.223-0.223 0.223-0.567 0-0.769-0.223-0.223-0.567-0.223-0.769 0l-1.68 1.68c-0.223 0.223-0.223 0.567 0 0.769l1.66 1.68z"></path>
<path fill="#8b99a5" d="M10.194 22.357l-0.749 0.749v-8.361l0.749 0.749c0.101 0.101 0.243 0.162 0.385 0.162s0.283-0.061 0.385-0.162c0.223-0.223 0.223-0.567 0-0.769l-1.68-1.68c-0.223-0.223-0.567-0.223-0.769 0l-1.68 1.68c-0.223 0.223-0.223 0.567 0 0.769 0.223 0.223 0.567 0.223 0.769 0l0.749-0.749v8.34l-0.749-0.749c-0.223-0.223-0.567-0.223-0.769 0-0.223 0.223-0.223 0.567 0 0.769l1.68 1.68c0.101 0.101 0.243 0.162 0.385 0.162s0.283-0.061 0.385-0.162l1.68-1.68c0.223-0.223 0.223-0.567 0-0.769s-0.567-0.203-0.769 0.020z"></path>
</svg>
