<!-- Generated by IcoMoon.io -->
<svg version="1.1" xmlns="http://www.w3.org/2000/svg" width="45" height="32" viewBox="0 0 45 32">
<title>ArrowDown</title>
<path fill="#fff" d="M6.881 5.16l15.52 15.52 15.52-15.52c0.37-0.37 0.81-0.664 1.294-0.864s1.002-0.304 1.526-0.304c0.524 0 1.042 0.103 1.526 0.304s0.924 0.494 1.294 0.864c0.37 0.37 0.664 0.81 0.864 1.294s0.304 1.002 0.304 1.526c0 0.524-0.103 1.042-0.304 1.526s-0.494 0.924-0.864 1.294l-18.36 18.36c-0.37 0.371-0.81 0.665-1.294 0.866s-1.003 0.304-1.526 0.304c-0.524 0-1.043-0.103-1.527-0.304s-0.923-0.495-1.294-0.866l-18.36-18.36c-0.371-0.37-0.665-0.81-0.866-1.293s-0.304-1.003-0.304-1.526c0-0.524 0.103-1.043 0.304-1.527s0.495-0.923 0.866-1.293c1.56-1.52 4.12-1.56 5.68 0z"></path>
</svg>
