<!-- Generated by IcoMoon.io -->
<svg version="1.1" xmlns="http://www.w3.org/2000/svg" width="32" height="32" viewBox="0 0 32 32">
<title>BackCircle</title>
<path fill="#00acbb" d="M25.263 16.842h-13.895l5.474 5.474-1.118 1.263-7.579-7.579 7.579-7.579 1.118 1.263-5.474 5.474h13.895v1.684zM0 16c0-2.101 0.414-4.182 1.218-6.123s1.983-3.705 3.468-5.191c1.486-1.486 3.25-2.664 5.191-3.468s4.022-1.218 6.123-1.218 4.182 0.414 6.123 1.218c1.941 0.804 3.705 1.983 5.191 3.468s2.664 3.25 3.468 5.191c0.804 1.941 1.218 4.022 1.218 6.123 0 4.244-1.686 8.313-4.686 11.314s-7.070 4.686-11.314 4.686c-4.244 0-8.313-1.686-11.314-4.686s-4.686-7.070-4.686-11.314zM1.684 16c0 3.797 1.508 7.438 4.193 10.123s6.326 4.193 10.123 4.193c3.797 0 7.438-1.508 10.123-4.193s4.193-6.326 4.193-10.123c0-3.797-1.508-7.438-4.193-10.123s-6.326-4.193-10.123-4.193c-3.797 0-7.438 1.508-10.123 4.193s-4.193 6.326-4.193 10.123z"></path>
</svg>
