<!-- Generated by IcoMoon.io -->
<svg version="1.1" xmlns="http://www.w3.org/2000/svg" width="32" height="32" viewBox="0 0 32 32">
<title>BathtubShape</title>
<path fill="#f9f9f9" d="M5.333 0h21.333c2.946 0 5.333 2.388 5.333 5.333v21.333c0 2.946-2.388 5.333-5.333 5.333h-21.333c-2.946 0-5.333-2.388-5.333-5.333v-21.333c0-2.946 2.388-5.333 5.333-5.333z"></path>
<path fill="#8b99a5" d="M19.353 8.002c-0.126 0.001-0.254 0.002-0.383 0.002-2.75 0-4.717 1.592-4.928 3.922-2.636 0.191-4.709 1.965-4.709 4.119 0 0.065 0.013 0.129 0.037 0.189s0.061 0.114 0.107 0.16c0.046 0.046 0.1 0.082 0.16 0.107s0.124 0.037 0.189 0.037h9.379c0.065 0 0.129-0.013 0.189-0.037s0.114-0.061 0.16-0.107c0.046-0.046 0.082-0.1 0.107-0.16s0.037-0.124 0.037-0.189c0-2.142-2.051-3.909-4.667-4.116 0.225-2.026 2.090-2.939 3.94-2.939 0.132 0 0.263-0.001 0.392-0.002 1.026-0.010 1.836-0.017 2.411 0.558 0.369 0.367 0.661 0.804 0.86 1.284s0.301 0.996 0.299 1.517v12.897h0.985v-12.897c0.002-0.65-0.125-1.293-0.373-1.894s-0.614-1.146-1.074-1.604c-0.868-0.868-2.012-0.856-3.117-0.847zM18.661 15.552h-8.291c0.316-1.505 2.055-2.659 4.145-2.659s3.829 1.154 4.145 2.659z"></path>
<path fill="#8b99a5" d="M16.665 17.487c-0.065 0-0.129 0.013-0.189 0.037s-0.114 0.061-0.16 0.107c-0.046 0.046-0.082 0.1-0.107 0.16s-0.037 0.124-0.037 0.189v0.915c0 0.131 0.052 0.256 0.144 0.348s0.218 0.144 0.348 0.144c0.131 0 0.256-0.052 0.348-0.144s0.144-0.218 0.144-0.348v-0.915c0-0.065-0.013-0.129-0.037-0.189s-0.061-0.114-0.107-0.16-0.1-0.082-0.16-0.107c-0.060-0.025-0.124-0.037-0.189-0.037z"></path>
<path fill="#8b99a5" d="M14.515 17.487c-0.065 0-0.129 0.013-0.189 0.037s-0.114 0.061-0.16 0.107c-0.046 0.046-0.082 0.1-0.107 0.16s-0.037 0.124-0.037 0.189v0.915c0 0.131 0.052 0.256 0.144 0.348s0.218 0.144 0.348 0.144c0.131 0 0.256-0.052 0.348-0.144s0.144-0.218 0.144-0.348v-0.915c0-0.065-0.013-0.129-0.037-0.189s-0.061-0.114-0.107-0.16-0.1-0.082-0.16-0.107c-0.060-0.025-0.124-0.037-0.189-0.037z"></path>
<path fill="#8b99a5" d="M12.366 17.487c-0.065 0-0.129 0.013-0.189 0.037s-0.114 0.061-0.16 0.107c-0.046 0.046-0.082 0.1-0.107 0.16s-0.037 0.124-0.037 0.189v0.915c-0 0.065 0.013 0.129 0.037 0.189s0.061 0.114 0.107 0.16c0.046 0.046 0.1 0.082 0.16 0.107s0.124 0.038 0.189 0.038c0.065 0 0.129-0.013 0.189-0.038s0.114-0.061 0.16-0.107c0.046-0.046 0.082-0.1 0.107-0.16s0.037-0.124 0.037-0.189v-0.915c0-0.065-0.013-0.129-0.037-0.189s-0.061-0.114-0.107-0.16-0.1-0.082-0.16-0.107c-0.060-0.025-0.124-0.037-0.189-0.037z"></path>
<path fill="#8b99a5" d="M17.739 20.46c-0.065 0-0.129 0.013-0.189 0.037s-0.114 0.061-0.16 0.107c-0.046 0.046-0.082 0.1-0.107 0.16s-0.037 0.124-0.037 0.189v0.915c0 0.131 0.052 0.256 0.144 0.348s0.218 0.144 0.348 0.144c0.131 0 0.256-0.052 0.348-0.144s0.144-0.218 0.144-0.348v-0.915c0-0.065-0.013-0.129-0.037-0.189s-0.061-0.114-0.107-0.16c-0.046-0.046-0.1-0.082-0.16-0.107s-0.124-0.037-0.189-0.037z"></path>
<path fill="#8b99a5" d="M15.59 20.46c-0.065 0-0.129 0.013-0.189 0.037s-0.114 0.061-0.16 0.107c-0.046 0.046-0.082 0.1-0.107 0.16s-0.037 0.124-0.037 0.189v0.915c0 0.131 0.052 0.256 0.144 0.348s0.218 0.144 0.348 0.144c0.131 0 0.256-0.052 0.348-0.144s0.144-0.218 0.144-0.348v-0.915c0-0.065-0.013-0.129-0.037-0.189s-0.061-0.114-0.107-0.16c-0.046-0.046-0.1-0.082-0.16-0.107s-0.124-0.037-0.189-0.037z"></path>
<path fill="#8b99a5" d="M13.441 20.46c-0.065 0-0.129 0.013-0.188 0.037s-0.114 0.061-0.16 0.107c-0.046 0.046-0.082 0.1-0.107 0.16s-0.037 0.124-0.037 0.189v0.915c-0 0.065 0.013 0.129 0.037 0.189s0.061 0.114 0.107 0.16 0.1 0.082 0.16 0.107c0.060 0.025 0.124 0.038 0.189 0.038s0.129-0.013 0.189-0.038 0.114-0.061 0.16-0.107c0.046-0.046 0.082-0.1 0.107-0.16s0.037-0.124 0.037-0.189v-0.915c0-0.065-0.013-0.129-0.037-0.189s-0.061-0.114-0.107-0.16c-0.046-0.046-0.1-0.082-0.16-0.107s-0.124-0.037-0.189-0.037z"></path>
<path fill="#8b99a5" d="M11.291 20.46c-0.065 0-0.129 0.013-0.189 0.037s-0.114 0.061-0.16 0.107c-0.046 0.046-0.082 0.1-0.107 0.16s-0.037 0.124-0.037 0.189v0.915c-0 0.065 0.013 0.129 0.037 0.189s0.061 0.114 0.107 0.16 0.1 0.082 0.16 0.107c0.060 0.025 0.124 0.038 0.189 0.038s0.129-0.013 0.189-0.038c0.060-0.025 0.114-0.061 0.16-0.107s0.082-0.1 0.107-0.16c0.025-0.060 0.037-0.124 0.037-0.189v-0.915c0-0.065-0.013-0.129-0.037-0.189s-0.061-0.114-0.107-0.16c-0.046-0.046-0.1-0.082-0.16-0.107s-0.124-0.037-0.189-0.037z"></path>
<path fill="#8b99a5" d="M18.814 23.432c-0.065 0-0.129 0.013-0.189 0.037s-0.114 0.061-0.16 0.107c-0.046 0.046-0.082 0.1-0.107 0.16s-0.037 0.124-0.037 0.189v0.915c-0 0.065 0.013 0.129 0.037 0.189s0.061 0.114 0.107 0.16 0.1 0.082 0.16 0.107c0.060 0.025 0.124 0.038 0.189 0.038s0.129-0.013 0.189-0.038c0.060-0.025 0.114-0.061 0.16-0.107s0.082-0.1 0.107-0.16 0.037-0.124 0.037-0.189v-0.915c0-0.065-0.013-0.129-0.037-0.189s-0.061-0.114-0.107-0.16-0.1-0.082-0.16-0.107c-0.060-0.025-0.124-0.037-0.189-0.037z"></path>
<path fill="#8b99a5" d="M16.665 23.432c-0.065 0-0.129 0.013-0.189 0.037s-0.114 0.061-0.16 0.107c-0.046 0.046-0.082 0.1-0.107 0.16s-0.037 0.124-0.037 0.189v0.915c0 0.131 0.052 0.256 0.144 0.348s0.218 0.144 0.348 0.144c0.131 0 0.256-0.052 0.348-0.144s0.144-0.218 0.144-0.348v-0.915c0-0.065-0.013-0.129-0.037-0.189s-0.061-0.114-0.107-0.16-0.1-0.082-0.16-0.107c-0.060-0.025-0.124-0.037-0.189-0.037z"></path>
<path fill="#8b99a5" d="M14.515 23.432c-0.065 0-0.129 0.013-0.189 0.037s-0.114 0.061-0.16 0.107c-0.046 0.046-0.082 0.1-0.107 0.16s-0.037 0.124-0.037 0.189v0.915c0 0.131 0.052 0.256 0.144 0.348s0.218 0.144 0.348 0.144 0.256-0.052 0.348-0.144c0.092-0.092 0.144-0.218 0.144-0.348v-0.915c0-0.065-0.013-0.129-0.037-0.189s-0.061-0.114-0.107-0.16-0.1-0.082-0.16-0.107c-0.060-0.025-0.124-0.037-0.189-0.037z"></path>
<path fill="#8b99a5" d="M12.366 23.432c-0.065 0-0.129 0.013-0.189 0.037s-0.114 0.061-0.16 0.107c-0.046 0.046-0.082 0.1-0.107 0.16s-0.037 0.124-0.037 0.189v0.915c-0 0.065 0.013 0.129 0.037 0.189s0.061 0.114 0.107 0.16c0.046 0.046 0.1 0.082 0.16 0.107s0.124 0.038 0.189 0.038c0.065 0 0.129-0.013 0.189-0.038s0.114-0.061 0.16-0.107c0.046-0.046 0.082-0.1 0.107-0.16s0.037-0.124 0.037-0.189v-0.915c0-0.065-0.013-0.129-0.037-0.189s-0.061-0.114-0.107-0.16-0.1-0.082-0.16-0.107c-0.060-0.025-0.124-0.037-0.189-0.037z"></path>
<path fill="#8b99a5" d="M10.217 23.432c-0.065 0-0.129 0.013-0.189 0.037s-0.114 0.061-0.16 0.107c-0.046 0.046-0.082 0.1-0.107 0.16s-0.037 0.124-0.037 0.189v0.915c0 0.131 0.052 0.256 0.144 0.348s0.218 0.144 0.348 0.144 0.256-0.052 0.348-0.144c0.092-0.092 0.144-0.218 0.144-0.348v-0.915c0-0.065-0.013-0.129-0.037-0.189s-0.061-0.114-0.107-0.16-0.1-0.082-0.16-0.107c-0.060-0.025-0.124-0.037-0.189-0.037z"></path>
</svg>
