<!-- Generated by IcoMoon.io -->
<svg version="1.1" xmlns="http://www.w3.org/2000/svg" width="32" height="32" viewBox="0 0 32 32">
<title>Bathtub</title>
<path d="M20.959 0.004c-0.233 0.002-0.468 0.004-0.707 0.004-5.078 0-8.708 2.94-9.097 7.24-4.867 0.354-8.693 3.628-8.693 7.604 0 0.119 0.023 0.238 0.069 0.348s0.113 0.211 0.197 0.295c0.084 0.084 0.185 0.151 0.295 0.197s0.229 0.069 0.348 0.069h17.314c0.119 0 0.238-0.024 0.348-0.069s0.21-0.113 0.295-0.197c0.084-0.084 0.151-0.185 0.197-0.295s0.069-0.229 0.069-0.348c0-3.955-3.786-7.217-8.616-7.599 0.415-3.741 3.859-5.426 7.273-5.426 0.244 0 0.485-0.002 0.724-0.004 1.893-0.018 3.389-0.032 4.451 1.031 0.681 0.678 1.22 1.484 1.588 2.371s0.555 1.839 0.552 2.8v23.809h1.819v-23.809c0.004-1.2-0.231-2.388-0.69-3.496s-1.133-2.115-1.983-2.961c-1.602-1.602-3.715-1.58-5.755-1.563zM19.681 13.943h-15.306c0.583-2.778 3.793-4.909 7.653-4.909s7.070 2.131 7.653 4.909z"></path>
<path d="M15.996 17.514c-0.119 0-0.238 0.024-0.348 0.069s-0.211 0.113-0.295 0.197c-0.084 0.085-0.151 0.185-0.197 0.295s-0.069 0.229-0.069 0.348v1.69c0 0.241 0.096 0.473 0.266 0.643s0.402 0.266 0.643 0.266c0.241 0 0.473-0.096 0.643-0.266s0.266-0.402 0.266-0.643v-1.69c0-0.119-0.023-0.238-0.069-0.348s-0.113-0.21-0.197-0.295c-0.084-0.084-0.185-0.151-0.295-0.197s-0.229-0.069-0.348-0.069z"></path>
<path d="M12.025 17.514c-0.119 0-0.238 0.024-0.348 0.069s-0.21 0.113-0.295 0.197c-0.084 0.085-0.151 0.185-0.197 0.295s-0.069 0.229-0.069 0.348v1.69c0 0.241 0.096 0.473 0.267 0.643s0.402 0.266 0.643 0.266 0.473-0.096 0.643-0.266c0.171-0.171 0.266-0.402 0.266-0.643v-1.69c0-0.119-0.023-0.238-0.069-0.348s-0.113-0.21-0.197-0.295c-0.084-0.084-0.185-0.151-0.295-0.197s-0.228-0.069-0.348-0.069z"></path>
<path d="M8.063 17.514c-0.119 0-0.238 0.024-0.348 0.069s-0.211 0.113-0.295 0.197c-0.084 0.085-0.151 0.185-0.197 0.295s-0.069 0.229-0.069 0.348v1.69c-0 0.12 0.023 0.238 0.069 0.349s0.113 0.211 0.197 0.296 0.185 0.152 0.295 0.198c0.11 0.046 0.229 0.069 0.348 0.069s0.238-0.024 0.348-0.069c0.11-0.046 0.211-0.113 0.295-0.198s0.151-0.185 0.197-0.296c0.046-0.111 0.069-0.229 0.069-0.349v-1.69c0-0.119-0.024-0.238-0.069-0.348s-0.113-0.21-0.197-0.295c-0.084-0.084-0.185-0.151-0.295-0.197s-0.229-0.069-0.348-0.069z"></path>
<path d="M17.977 23.002c-0.119 0-0.238 0.024-0.348 0.069s-0.211 0.113-0.295 0.197c-0.084 0.085-0.151 0.185-0.197 0.295s-0.069 0.229-0.069 0.348v1.69c0 0.241 0.096 0.473 0.266 0.643s0.402 0.266 0.643 0.266c0.241 0 0.473-0.096 0.643-0.266s0.266-0.402 0.266-0.643v-1.69c0-0.119-0.023-0.238-0.069-0.348s-0.113-0.21-0.197-0.295c-0.084-0.084-0.185-0.151-0.295-0.197s-0.229-0.069-0.348-0.069z"></path>
<path d="M14.015 23.002c-0.119 0-0.238 0.024-0.348 0.069s-0.21 0.113-0.295 0.197c-0.084 0.085-0.151 0.185-0.197 0.295s-0.069 0.229-0.069 0.348v1.69c0 0.241 0.096 0.473 0.266 0.643s0.402 0.266 0.643 0.266c0.241 0 0.473-0.096 0.643-0.266s0.266-0.402 0.266-0.643v-1.69c0-0.119-0.023-0.238-0.069-0.348s-0.113-0.21-0.197-0.295c-0.084-0.084-0.185-0.151-0.295-0.197s-0.228-0.069-0.348-0.069z"></path>
<path d="M10.044 23.002c-0.119 0-0.238 0.024-0.348 0.069s-0.211 0.113-0.295 0.197c-0.084 0.085-0.151 0.185-0.197 0.295s-0.069 0.229-0.069 0.348v1.69c-0 0.12 0.023 0.238 0.069 0.349s0.113 0.211 0.197 0.296 0.185 0.152 0.295 0.198c0.11 0.046 0.229 0.069 0.348 0.069s0.238-0.024 0.349-0.069 0.211-0.113 0.295-0.198c0.084-0.085 0.151-0.185 0.197-0.296s0.069-0.229 0.069-0.349v-1.69c0-0.119-0.023-0.238-0.069-0.348s-0.113-0.21-0.197-0.295c-0.084-0.084-0.185-0.151-0.295-0.197s-0.229-0.069-0.348-0.069z"></path>
<path d="M6.073 23.002c-0.119 0-0.238 0.024-0.348 0.069s-0.211 0.113-0.295 0.197c-0.084 0.085-0.151 0.185-0.197 0.295s-0.069 0.229-0.069 0.348v1.69c-0 0.12 0.023 0.238 0.069 0.349s0.113 0.211 0.197 0.296 0.185 0.152 0.295 0.198c0.11 0.046 0.229 0.069 0.348 0.069s0.238-0.024 0.348-0.069c0.11-0.046 0.211-0.113 0.295-0.198s0.151-0.185 0.197-0.296c0.046-0.111 0.069-0.229 0.069-0.349v-1.69c0-0.119-0.024-0.238-0.069-0.348s-0.113-0.21-0.197-0.295c-0.084-0.084-0.185-0.151-0.295-0.197s-0.229-0.069-0.348-0.069z"></path>
<path d="M19.967 28.489c-0.119 0-0.238 0.024-0.348 0.069s-0.211 0.113-0.295 0.197c-0.084 0.085-0.151 0.185-0.197 0.295s-0.069 0.229-0.069 0.348v1.69c-0 0.12 0.023 0.238 0.069 0.349s0.113 0.211 0.197 0.296c0.084 0.085 0.185 0.152 0.295 0.198s0.229 0.069 0.349 0.069c0.12 0 0.238-0.024 0.349-0.069s0.211-0.113 0.295-0.198c0.085-0.085 0.152-0.185 0.197-0.296s0.069-0.229 0.069-0.349v-1.69c0-0.119-0.024-0.238-0.069-0.348s-0.113-0.21-0.197-0.295c-0.084-0.084-0.185-0.151-0.295-0.197s-0.229-0.069-0.348-0.069z"></path>
<path d="M15.996 28.489c-0.119 0-0.238 0.024-0.348 0.069s-0.211 0.113-0.295 0.197c-0.084 0.085-0.151 0.185-0.197 0.295s-0.069 0.229-0.069 0.348v1.69c0 0.241 0.096 0.473 0.266 0.643s0.402 0.266 0.643 0.266c0.241 0 0.473-0.096 0.643-0.266s0.266-0.402 0.266-0.643v-1.69c0-0.119-0.023-0.238-0.069-0.348s-0.113-0.21-0.197-0.295c-0.084-0.084-0.185-0.151-0.295-0.197s-0.229-0.069-0.348-0.069z"></path>
<path d="M12.025 28.489c-0.119 0-0.238 0.024-0.348 0.069s-0.21 0.113-0.295 0.197c-0.084 0.085-0.151 0.185-0.197 0.295s-0.069 0.229-0.069 0.348v1.69c0 0.241 0.096 0.473 0.267 0.643s0.402 0.266 0.643 0.266 0.473-0.096 0.643-0.266c0.171-0.171 0.266-0.402 0.266-0.643v-1.69c0-0.119-0.023-0.238-0.069-0.348s-0.113-0.21-0.197-0.295c-0.084-0.084-0.185-0.151-0.295-0.197s-0.228-0.069-0.348-0.069z"></path>
<path d="M8.063 28.489c-0.119 0-0.238 0.024-0.348 0.069s-0.211 0.113-0.295 0.197c-0.084 0.085-0.151 0.185-0.197 0.295s-0.069 0.229-0.069 0.348v1.69c-0 0.12 0.023 0.238 0.069 0.349s0.113 0.211 0.197 0.296 0.185 0.152 0.295 0.198c0.11 0.046 0.229 0.069 0.348 0.069s0.238-0.024 0.348-0.069c0.11-0.046 0.211-0.113 0.295-0.198s0.151-0.185 0.197-0.296c0.046-0.111 0.069-0.229 0.069-0.349v-1.69c0-0.119-0.024-0.238-0.069-0.348s-0.113-0.21-0.197-0.295c-0.084-0.084-0.185-0.151-0.295-0.197s-0.229-0.069-0.348-0.069z"></path>
<path d="M4.092 28.489c-0.119 0-0.238 0.024-0.348 0.069s-0.211 0.113-0.295 0.197c-0.084 0.085-0.151 0.185-0.197 0.295s-0.069 0.229-0.069 0.348v1.69c0 0.241 0.096 0.473 0.266 0.643s0.402 0.266 0.643 0.266c0.241 0 0.473-0.096 0.643-0.266s0.266-0.402 0.266-0.643v-1.69c0-0.119-0.024-0.238-0.069-0.348s-0.113-0.21-0.197-0.295c-0.084-0.084-0.185-0.151-0.295-0.197s-0.229-0.069-0.348-0.069z"></path>
</svg>
