<!-- Generated by IcoMoon.io -->
<svg version="1.1" xmlns="http://www.w3.org/2000/svg" width="32" height="32" viewBox="0 0 32 32">
<title>Bed</title>
<path d="M28.376 15.533v-9.866c0-0.34-0.275-0.615-0.615-0.615h-24.675c-0.34 0-0.615 0.276-0.615 0.615v9.778c-1.702 1.661-2.37 4.41-2.47 6.142-0.010 0.169 0.051 0.335 0.167 0.457s0.278 0.193 0.447 0.193h0.983v4.093c0 0.34 0.276 0.615 0.615 0.615h26.332c0.34 0 0.615-0.275 0.615-0.615v-4.093h0.983c0.169 0 0.331-0.070 0.447-0.193s0.177-0.288 0.167-0.457c-0.097-1.702-0.745-4.387-2.382-6.055zM27.93 25.717h-25.101v-3.391h25.101v3.391h-0zM27.146 6.283v8.319c-0.528-0.282-1.127-0.467-1.801-0.532 0.248-1.367 0.563-3.889-0.288-4.739-1.165-1.165-3.731-1.256-4.49-1.256s-3.325 0.091-4.49 1.256c-0.843 0.843-0.542 3.328-0.295 4.702h-0.807c0.247-1.375 0.549-3.859-0.295-4.702-1.164-1.165-3.731-1.256-4.49-1.256s-3.325 0.091-4.489 1.256c-0.851 0.851-0.536 3.373-0.288 4.739-0.636 0.061-1.208 0.225-1.713 0.482v-8.269h23.445zM16.948 10.201c0.535-0.535 1.99-0.895 3.62-0.895s3.084 0.36 3.62 0.895c0.292 0.292 0.25 2.005-0.070 3.745h-7.1c-0.321-1.74-0.362-3.452-0.070-3.745zM6.572 10.201c0.535-0.535 1.99-0.895 3.619-0.895s3.084 0.36 3.62 0.895c0.292 0.292 0.25 2.005-0.070 3.745h-7.099c-0.321-1.74-0.362-3.452-0.070-3.745zM1.303 21.009c0.235-1.628 1.171-5.745 4.625-5.745h18.904c3.444 0 4.386 4.117 4.624 5.745h-28.153z"></path>
</svg>
