<!-- Generated by IcoMoon.io -->
<svg version="1.1" xmlns="http://www.w3.org/2000/svg" width="32" height="32" viewBox="0 0 32 32">
<title>BedShape</title>
<path fill="#f9f9f9" d="M5.333 0h21.333c2.946 0 5.333 2.388 5.333 5.333v21.333c0 2.946-2.388 5.333-5.333 5.333h-21.333c-2.946 0-5.333-2.388-5.333-5.333v-21.333c0-2.946 2.388-5.333 5.333-5.333z"></path>
<path fill="#8b99a5" d="M26.464 16.297v-7.81c0-0.269-0.218-0.487-0.487-0.487h-19.534c-0.269 0-0.487 0.218-0.487 0.487v7.741c-1.347 1.315-1.876 3.491-1.955 4.863-0.008 0.134 0.040 0.265 0.132 0.362s0.22 0.153 0.354 0.153h0.778v3.241c0 0.269 0.218 0.487 0.487 0.487h20.846c0.269 0 0.487-0.218 0.487-0.487v-3.241h0.779c0.134 0 0.262-0.055 0.354-0.153s0.14-0.228 0.132-0.362c-0.077-1.348-0.589-3.473-1.885-4.794zM26.111 24.359h-19.872v-2.685h19.872v2.685h-0zM25.49 8.974v6.586c-0.418-0.223-0.892-0.37-1.425-0.421 0.196-1.082 0.445-3.078-0.228-3.752-0.922-0.922-2.953-0.994-3.554-0.994s-2.632 0.072-3.554 0.994c-0.667 0.667-0.429 2.635-0.233 3.723h-0.639c0.195-1.088 0.434-3.055-0.233-3.723-0.922-0.922-2.954-0.994-3.554-0.994s-2.632 0.072-3.554 0.994c-0.674 0.674-0.424 2.67-0.228 3.752-0.503 0.048-0.956 0.178-1.356 0.381v-6.546h18.561zM17.417 12.076c0.424-0.424 1.576-0.709 2.866-0.709s2.442 0.285 2.866 0.709c0.231 0.231 0.198 1.587-0.055 2.965h-5.621c-0.254-1.377-0.287-2.733-0.055-2.965zM9.203 12.076c0.424-0.424 1.575-0.709 2.865-0.709s2.442 0.285 2.866 0.709c0.231 0.231 0.198 1.587-0.055 2.965h-5.62c-0.254-1.377-0.287-2.733-0.055-2.965zM5.031 20.632c0.186-1.289 0.927-4.548 3.661-4.548h14.966c2.727 0 3.472 3.259 3.661 4.548h-22.288z"></path>
</svg>
