<!-- Generated by IcoMoon.io -->
<svg version="1.1" xmlns="http://www.w3.org/2000/svg" width="29" height="32" viewBox="0 0 29 32">
<title>Bell</title>
<path d="M14.4 0c2.331 0 4.229 1.891 4.229 4.214v0l-0 0.745c4.031 1.683 6.874 5.696 6.874 10.367v0 6.236l3.123 4.858c0.218 0.338 0.233 0.768 0.040 1.121s-0.562 0.572-0.964 0.572v0l-8.2 0.001c-0.565 2.23-2.596 3.885-5.007 3.885v0h-0.073c-2.412 0-4.442-1.655-5.007-3.885l-8.314-0.001c-0.402 0-0.772-0.22-0.965-0.573s-0.177-0.783 0.040-1.121v0l3.123-4.858v-6.236c0-4.671 2.843-8.685 6.874-10.367l-0-0.745c0-2.324 1.897-4.214 4.228-4.214zM17.178 28.114h-5.441c0.475 1.002 1.5 1.697 2.684 1.697v0h0.073c1.184 0 2.209-0.695 2.684-1.697zM14.4 6.313c-4.91 0-8.904 4.044-8.904 9.014v0 6.559c0 0.211-0.061 0.417-0.175 0.594v0l-2.209 3.436h22.575l-2.209-3.436c-0.114-0.177-0.174-0.384-0.174-0.594v0-6.559c0-4.97-3.994-9.014-8.904-9.014zM14.4 2.18c-1.125 0-2.041 0.913-2.041 2.034v0l-0 0.090c0.662-0.125 1.344-0.19 2.042-0.19s1.38 0.065 2.042 0.19l-0-0.090c0-1.122-0.916-2.034-2.042-2.034z"></path>
</svg>
