<!-- Generated by IcoMoon.io -->
<svg version="1.1" xmlns="http://www.w3.org/2000/svg" width="24" height="32" viewBox="0 0 24 32">
<title>BookmarkV2</title>
<path d="M11.826 24.696l-10.87 6.522v-26.087c0-1.153 0.458-2.259 1.273-3.074s1.921-1.273 3.074-1.273h13.043c1.153 0 2.259 0.458 3.074 1.273s1.273 1.921 1.273 3.074v26.087l-10.87-6.522zM3.13 27.378l8.696-5.217 8.696 5.217v-22.248c0-0.577-0.229-1.13-0.637-1.537s-0.961-0.637-1.537-0.637h-13.043c-0.577 0-1.13 0.229-1.537 0.637s-0.637 0.961-0.637 1.537v22.248z"></path>
</svg>
