<!-- Generated by IcoMoon.io -->
<svg version="1.1" xmlns="http://www.w3.org/2000/svg" width="43" height="32" viewBox="0 0 43 32">
<title>BookingTransactions</title>
<path fill="#fff" d="M42.287 3.716c-0.237-0.167-0.541-0.208-0.813-0.107l-7.246 2.635c-0.898 0.326-1.614 0.984-2.014 1.852-0.075 0.163-0.124 0.332-0.174 0.501-1.244-0.354-3.557-1.093-5.855-2.277-2.965-1.528-5.475-1.333-8.35 0.829-1.156 0.019-2.771 0.158-4.356 0.298-0.996 0.088-1.938 0.169-2.702 0.215-0.019-0.459-0.126-0.914-0.324-1.344-0.4-0.868-1.115-1.526-2.014-1.852l-7.247-2.636c-0.272-0.1-0.577-0.059-0.813 0.107-0.238 0.167-0.379 0.438-0.379 0.728v17.778c0 0.491 0.398 0.889 0.889 0.889h2.596c1.104 0 2.132-0.521 2.796-1.362 0.354 0.269 0.773 0.584 1.212 0.914 1.037 0.78 2.173 1.632 2.671 2.050 3.31 2.771 7.289 5.763 8.082 6.284 0.74 0.486 2.074 1.004 3.088 1.004 0.397 0 1.396 0 2.097-0.593 0.723 0.284 1.503 0.27 2.227-0.050 0.723-0.318 1.308-0.919 1.648-1.649 0.694 0.142 1.492 0.038 2.215-0.325 0.678-0.339 1.177-0.853 1.445-1.454 0.642 0.059 1.328-0.15 1.942-0.62 0.877-0.67 1.278-1.66 1.165-2.637l2.255-1.247c0.66 0.895 1.71 1.463 2.854 1.463h2.596c0.491 0 0.889-0.398 0.889-0.889v-17.778c0-0.29-0.142-0.562-0.379-0.728zM31.829 24.12c-0.301 0.231-0.723 0.359-0.911 0.172-0.010-0.010-0.025-0.009-0.034-0.018-0.017-0.016-0.026-0.037-0.044-0.052-0.635-0.502-3.483-3.415-5.242-5.25-0.339-0.355-0.903-0.368-1.256-0.027-0.355 0.339-0.367 0.902-0.027 1.256 0.413 0.431 3.728 3.884 5.055 5.092-0.099 0.39-0.461 0.631-0.645 0.724-0.57 0.286-1.163 0.238-1.386 0.031-0.006-0.006-0.017-0.006-0.023-0.012-0.011-0.010-0.016-0.023-0.027-0.032-1.066-0.852-3.74-3.694-4.345-4.352-0.332-0.362-0.894-0.385-1.256-0.053s-0.385 0.895-0.053 1.256c0.029 0.032 2.65 2.859 4.122 4.172-0.145 0.416-0.439 0.76-0.818 0.927-0.279 0.124-0.716 0.187-1.214-0.181-1.276-1.082-3.838-3.809-4.342-4.349-0.334-0.359-0.898-0.378-1.256-0.043s-0.378 0.898-0.042 1.256c0.597 0.639 2.363 2.511 3.705 3.778-0.15 0.018-0.307 0.029-0.457 0.029-0.589 0-1.6-0.376-2.111-0.712-0.623-0.41-4.536-3.33-7.916-6.16-0.511-0.429-1.678-1.306-2.746-2.108-0.572-0.43-1.099-0.826-1.488-1.125l3.328-8.876c0.864-0.038 2.016-0.137 3.235-0.245 0.689-0.061 1.379-0.12 2.039-0.171-1.014 1.040-2.521 2.904-2.322 4.651 0.091 0.795 0.526 1.457 1.26 1.916 0.417 0.26 0.931 0.392 1.526 0.392 1.263 0 2.937-0.629 3.911-1.839 0.836-0.121 1.4-0.334 2.017-0.64 1.042 0.979 2.438 2.13 3.905 3.339 2.554 2.104 5.449 4.49 6.214 5.827 0.426 0.744-0.165 1.279-0.356 1.425z"></path>
</svg>
