<!-- Generated by IcoMoon.io -->
<svg version="1.1" xmlns="http://www.w3.org/2000/svg" width="32" height="32" viewBox="0 0 32 32">
<title>BorderBottom</title>
<path d="M28.857 26.571h-25.714c-0.157 0-0.286 0.129-0.286 0.286v2c0 0.157 0.129 0.286 0.286 0.286h25.714c0.157 0 0.286-0.129 0.286-0.286v-2c0-0.157-0.129-0.286-0.286-0.286zM3.143 23.214h2c0.157 0 0.286-0.129 0.286-0.286v-2c0-0.157-0.129-0.286-0.286-0.286h-2c-0.157 0-0.286 0.129-0.286 0.286v2c0 0.157 0.129 0.286 0.286 0.286zM3.143 5.429h2c0.157 0 0.286-0.129 0.286-0.286v-2c0-0.157-0.129-0.286-0.286-0.286h-2c-0.157 0-0.286 0.129-0.286 0.286v2c0 0.157 0.129 0.286 0.286 0.286zM3.143 17.286h2c0.157 0 0.286-0.129 0.286-0.286v-2c0-0.157-0.129-0.286-0.286-0.286h-2c-0.157 0-0.286 0.129-0.286 0.286v2c0 0.157 0.129 0.286 0.286 0.286zM3.143 11.357h2c0.157 0 0.286-0.129 0.286-0.286v-2c0-0.157-0.129-0.286-0.286-0.286h-2c-0.157 0-0.286 0.129-0.286 0.286v2c0 0.157 0.129 0.286 0.286 0.286zM9.071 17.286h2c0.157 0 0.286-0.129 0.286-0.286v-2c0-0.157-0.129-0.286-0.286-0.286h-2c-0.157 0-0.286 0.129-0.286 0.286v2c0 0.157 0.129 0.286 0.286 0.286zM9.071 5.429h2c0.157 0 0.286-0.129 0.286-0.286v-2c0-0.157-0.129-0.286-0.286-0.286h-2c-0.157 0-0.286 0.129-0.286 0.286v2c0 0.157 0.129 0.286 0.286 0.286zM20.929 5.429h2c0.157 0 0.286-0.129 0.286-0.286v-2c0-0.157-0.129-0.286-0.286-0.286h-2c-0.157 0-0.286 0.129-0.286 0.286v2c0 0.157 0.129 0.286 0.286 0.286zM20.929 17.286h2c0.157 0 0.286-0.129 0.286-0.286v-2c0-0.157-0.129-0.286-0.286-0.286h-2c-0.157 0-0.286 0.129-0.286 0.286v2c0 0.157 0.129 0.286 0.286 0.286zM28.857 14.714h-2c-0.157 0-0.286 0.129-0.286 0.286v2c0 0.157 0.129 0.286 0.286 0.286h2c0.157 0 0.286-0.129 0.286-0.286v-2c0-0.157-0.129-0.286-0.286-0.286zM15 17.286h2c0.157 0 0.286-0.129 0.286-0.286v-2c0-0.157-0.129-0.286-0.286-0.286h-2c-0.157 0-0.286 0.129-0.286 0.286v2c0 0.157 0.129 0.286 0.286 0.286zM28.857 2.857h-2c-0.157 0-0.286 0.129-0.286 0.286v2c0 0.157 0.129 0.286 0.286 0.286h2c0.157 0 0.286-0.129 0.286-0.286v-2c0-0.157-0.129-0.286-0.286-0.286zM15 5.429h2c0.157 0 0.286-0.129 0.286-0.286v-2c0-0.157-0.129-0.286-0.286-0.286h-2c-0.157 0-0.286 0.129-0.286 0.286v2c0 0.157 0.129 0.286 0.286 0.286zM28.857 20.643h-2c-0.157 0-0.286 0.129-0.286 0.286v2c0 0.157 0.129 0.286 0.286 0.286h2c0.157 0 0.286-0.129 0.286-0.286v-2c0-0.157-0.129-0.286-0.286-0.286zM15 23.214h2c0.157 0 0.286-0.129 0.286-0.286v-2c0-0.157-0.129-0.286-0.286-0.286h-2c-0.157 0-0.286 0.129-0.286 0.286v2c0 0.157 0.129 0.286 0.286 0.286zM28.857 8.786h-2c-0.157 0-0.286 0.129-0.286 0.286v2c0 0.157 0.129 0.286 0.286 0.286h2c0.157 0 0.286-0.129 0.286-0.286v-2c0-0.157-0.129-0.286-0.286-0.286zM15 11.357h2c0.157 0 0.286-0.129 0.286-0.286v-2c0-0.157-0.129-0.286-0.286-0.286h-2c-0.157 0-0.286 0.129-0.286 0.286v2c0 0.157 0.129 0.286 0.286 0.286z"></path>
</svg>
