<!-- Generated by IcoMoon.io -->
<svg version="1.1" xmlns="http://www.w3.org/2000/svg" width="30" height="32" viewBox="0 0 30 32">
<title>Calendar</title>
<path fill="#cbcbcb" d="M18.792 12.571h-2.647c-0.146 0-0.265 0.128-0.265 0.286v2.857c0 0.158 0.118 0.286 0.265 0.286h2.647c0.146 0 0.265-0.128 0.265-0.286v-2.857c0-0.158-0.119-0.286-0.265-0.286z"></path>
<path fill="#cbcbcb" d="M24.086 12.571h-2.647c-0.146 0-0.265 0.128-0.265 0.286v2.857c0 0.158 0.118 0.286 0.265 0.286h2.647c0.146 0 0.265-0.128 0.265-0.286v-2.857c0-0.158-0.119-0.286-0.265-0.286z"></path>
<path fill="#cbcbcb" d="M18.792 18.286h-2.647c-0.146 0-0.265 0.128-0.265 0.286v2.857c0 0.158 0.118 0.286 0.265 0.286h2.647c0.146 0 0.265-0.128 0.265-0.286v-2.857c0-0.158-0.119-0.286-0.265-0.286z"></path>
<path fill="#cbcbcb" d="M24.086 18.286h-2.647c-0.146 0-0.265 0.128-0.265 0.286v2.857c0 0.158 0.118 0.286 0.265 0.286h2.647c0.146 0 0.265-0.128 0.265-0.286v-2.857c0-0.158-0.119-0.286-0.265-0.286z"></path>
<path fill="#cbcbcb" d="M8.205 18.286h-2.647c-0.146 0-0.265 0.128-0.265 0.286v2.857c0 0.158 0.119 0.286 0.265 0.286h2.647c0.146 0 0.265-0.128 0.265-0.286v-2.857c0-0.158-0.118-0.286-0.265-0.286z"></path>
<path fill="#cbcbcb" d="M13.499 18.286h-2.647c-0.146 0-0.265 0.128-0.265 0.286v2.857c0 0.158 0.118 0.286 0.265 0.286h2.647c0.146 0 0.265-0.128 0.265-0.286v-2.857c0-0.158-0.118-0.286-0.265-0.286z"></path>
<path fill="#cbcbcb" d="M8.205 24h-2.647c-0.146 0-0.265 0.128-0.265 0.286v2.857c0 0.158 0.119 0.286 0.265 0.286h2.647c0.146 0 0.265-0.128 0.265-0.286v-2.857c0-0.158-0.118-0.286-0.265-0.286z"></path>
<path fill="#cbcbcb" d="M13.499 24h-2.647c-0.146 0-0.265 0.128-0.265 0.286v2.857c0 0.158 0.118 0.286 0.265 0.286h2.647c0.146 0 0.265-0.128 0.265-0.286v-2.857c0-0.158-0.118-0.286-0.265-0.286z"></path>
<path fill="#cbcbcb" d="M18.792 24h-2.647c-0.146 0-0.265 0.128-0.265 0.286v2.857c0 0.158 0.118 0.286 0.265 0.286h2.647c0.146 0 0.265-0.128 0.265-0.286v-2.857c0-0.158-0.119-0.286-0.265-0.286z"></path>
<path fill="#cbcbcb" d="M27.527 2.286h-3.176v-2.286h-2.647v2.286h-13.763v-2.286h-2.647v2.286h-3.176c-0.562 0-1.1 0.241-1.497 0.669s-0.62 1.010-0.62 1.616v25.143c0 0.606 0.223 1.188 0.62 1.616s0.936 0.669 1.497 0.669h25.409c0.562 0 1.1-0.241 1.497-0.669s0.62-1.010 0.62-1.616v-25.143c0-0.606-0.223-1.188-0.62-1.616s-0.936-0.669-1.497-0.669zM28.084 29.474h-26.524v-24.421h26.524v24.421z"></path>
</svg>
