<!-- Generated by IcoMoon.io -->
<svg version="1.1" xmlns="http://www.w3.org/2000/svg" width="37" height="32" viewBox="0 0 37 32">
<title>Camera</title>
<path fill="none" stroke="#fff" stroke-linejoin="miter" stroke-linecap="butt" stroke-miterlimit="4" stroke-width="3.2" d="M25.394 17.552c0-3.718-2.949-6.667-6.667-6.667s-6.667 2.949-6.667 6.667c0 3.718 2.949 6.667 6.667 6.667s6.667-2.949 6.667-6.667zM35.495 10.38v15.050c0 2.020-1.616 3.636-3.636 3.636h-25.556c-2.020 0-3.636-1.616-3.636-3.636v-15.050c0-2.020 1.616-3.636 3.636-3.636h4.444v-1.212c0-1.717 1.414-3.131 3.131-3.131h10.303c1.717 0 3.131 1.414 3.131 3.131v1.212h4.444c2.121 0.101 3.737 1.717 3.737 3.636z"></path>
</svg>
