<!-- Generated by IcoMoon.io -->
<svg version="1.1" xmlns="http://www.w3.org/2000/svg" width="32" height="32" viewBox="0 0 32 32">
<title>CartFilled</title>
<path d="M28.127 19.966l3.783-11.323c0.19-0.544 0.046-0.872-0.107-1.088-0.392-0.553-1.199-0.558-1.355-0.558l-21.38-0.004-0.571-2.707c-0.154-0.639-0.609-1.248-1.527-1.248h-6.009c-0.623 0-0.962 0.292-0.962 0.874v1.563c0 0.563 0.338 0.71 0.984 0.71h5.073l3.883 16.484c-0.617 0.653-0.952 1.606-0.952 2.494 0 1.955 1.556 3.757 3.545 3.757 1.877 0 3.285-1.759 3.513-2.808h7.562c0.229 1.049 1.369 2.85 3.512 2.85 1.954 0 3.543-1.693 3.543-3.645 0-1.941-1.18-3.662-3.523-3.662-0.974 0-2.13 0.524-2.667 1.311h-9.291c-0.674-1.049-1.595-1.374-2.527-1.411l-0.129-0.687h14.137c1.066 0 1.275-0.388 1.464-0.902zM27.146 23.942c0.735 0 1.332 0.597 1.332 1.332s-0.597 1.332-1.332 1.332-1.333-0.596-1.333-1.332c0.001-0.735 0.598-1.332 1.333-1.332zM13.849 25.274c0 0.744-0.604 1.349-1.346 1.349-0.744-0.002-1.349-0.605-1.349-1.349s0.605-1.349 1.349-1.349c0.742 0 1.346 0.605 1.346 1.349z"></path>
</svg>
