<!-- Generated by IcoMoon.io -->
<svg version="1.1" xmlns="http://www.w3.org/2000/svg" width="32" height="32" viewBox="0 0 32 32">
<title>CartChecked</title>
<path d="M15.213 27.777c0 2.142-1.736 3.878-3.879 3.878s-3.878-1.736-3.878-3.878c0-2.142 1.736-3.878 3.878-3.878s3.878 1.736 3.878 3.878z"></path>
<path d="M23.761 23.861v0c-2.152-0.212-4.069 1.361-4.281 3.514s1.361 4.069 3.514 4.281c0.255 0.025 0.512 0.025 0.767 0 2.152-0.212 3.726-2.128 3.514-4.281-0.183-1.86-1.654-3.331-3.514-3.514z"></path>
<path d="M31.743 9.1c-0.193-0.289-0.519-0.459-0.866-0.452h-4.293v-0.075c0-4.554-3.692-8.247-8.246-8.247s-8.247 3.692-8.247 8.246c0 0 0 0.001 0 0.001v0.075h-3.201l-1.092-4.971c-0.121-0.506-0.572-0.863-1.092-0.866h-4.707v2.259h3.803l3.502 16.079c0.092 0.529 0.555 0.912 1.092 0.904h19.694c0.52-0.003 0.971-0.36 1.092-0.866l2.787-11.146c0.082-0.332-0.003-0.683-0.226-0.941zM18.338 14.56c-3.307 0-5.987-2.681-5.987-5.987s2.681-5.987 5.987-5.987 5.987 2.681 5.987 5.987c-0.021 3.298-2.689 5.967-5.987 5.987z"></path>
<path d="M17.434 8.686l-2.071-2.109-1.619 1.582 2.862 2.899c0.209 0.213 0.493 0.335 0.791 0.339 0.294 0.014 0.581-0.095 0.791-0.301l4.745-4.481-1.544-1.657-3.954 3.728z"></path>
</svg>
