<!-- Generated by IcoMoon.io -->
<svg version="1.1" xmlns="http://www.w3.org/2000/svg" width="37" height="32" viewBox="0 0 37 32">
<title>Certificate</title>
<path fill="#696969" d="M35.64 0c0.695 0 1.261 0.566 1.261 1.261v0 26.36c0 0.695-0.566 1.261-1.261 1.261v0h-6.927v2.447c0 0.402-0.442 0.642-0.768 0.49v0l-1.322-0.615-1.322 0.615c-0.435 0.118-0.692-0.046-0.768-0.49v0-2.447h-23.271c-0.695 0-1.261-0.566-1.261-1.261v0-19.182c0-0.699 1.081-0.699 1.081 0v0 19.182c0 0.099 0.081 0.18 0.18 0.18v0h23.271v-1.125h-21.781c-0.299 0-0.541-0.242-0.541-0.541v0-23.389c0-0.299 0.242-0.541 0.541-0.541v0h31.398c0.299 0 0.541 0.242 0.541 0.541v0 14.846c0 0.699-1.081 0.699-1.081 0v0-14.306h-30.317v22.308h21.24v-2.398c-1.238 0.107-1.857-0.394-1.743-1.689 0.042-0.482-0.003-0.614-0.374-0.922-0.971-0.807-0.953-1.656 0-2.449 0.37-0.308 0.416-0.44 0.374-0.922-0.108-1.232 0.482-1.8 1.692-1.693 0.481 0.042 0.612-0.004 0.918-0.374 0.806-0.973 1.656-0.956 2.447 0 0.307 0.37 0.437 0.416 0.918 0.374 1.233-0.108 1.797 0.484 1.692 1.693-0.042 0.482 0.003 0.614 0.374 0.922 0.971 0.807 0.953 1.656 0 2.449-0.37 0.308-0.416 0.44-0.374 0.922 0.039 0.449 0.088 1.008-0.298 1.395s-0.945 0.338-1.393 0.299c-0.017-0.002-0.034-0.003-0.052-0.005v0 2.398h4.896v-5.12c0-0.699 1.081-0.699 1.081 0v0 5.66c0 0.299-0.242 0.541-0.541 0.541v0h-5.437v1.125h6.927c0.099 0 0.18-0.081 0.18-0.18v0-26.36c0-0.099-0.081-0.18-0.18-0.18v0h-34.378c-0.099 0-0.18 0.081-0.18 0.18v0 4.439c0 0.699-1.081 0.699-1.081 0v0-4.439c0-0.695 0.566-1.261 1.261-1.261v0zM27.632 23.826c-0.256 0.282-0.573 0.544-1.009 0.544s-0.753-0.262-1.009-0.544v0 6.656l0.781-0.363c0.145-0.067 0.311-0.067 0.456 0v0l0.781 0.363zM7.752 17.229c0.015-0.588 0.959-0.763 1.062-0.144 0.178 1.067 0.235 2.161 0.519 3.208 0.067 0.248 0.146 0.495 0.254 0.729 0.056 0.12 0.121 0.352 0.271 0.378 0.283 0.050 0.608-0.558 0.672-0.77 0.145-0.479 0.937-0.549 1.042 0 0.116 0.601 0.428 0.752 0.995 0.752v0l0.884-0.001c0.917-0.002 1.835-0.004 2.752-0.006 0.697-0.002 0.696 1.079 0 1.081-1.070 0.003-2.14 0.005-3.21 0.007v0l-0.252 0c-0.633-0.002-1.279-0.042-1.73-0.563-0.191 0.211-0.415 0.384-0.661 0.483-0.689 0.277-1.333-0.092-1.648-0.715-0.124-0.244-0.225-0.496-0.31-0.752-0.158 0.703-0.362 1.396-0.619 2.072-0.245 0.645-1.29 0.364-1.042-0.287 0.666-1.754 0.972-3.601 1.021-5.472zM27.014 15.838c-0.363-0.438-0.419-0.438-0.782 0-0.532 0.642-1.015 0.834-1.845 0.761-0.541-0.047-0.567-0.019-0.52 0.522 0.073 0.83-0.118 1.314-0.759 1.847-0.439 0.365-0.439 0.422 0 0.786 0.641 0.533 0.832 1.017 0.759 1.847-0.047 0.541-0.021 0.57 0.52 0.522 0.359-0.055 0.714-0.030 1.064 0.077 0.328 0.136 0.559 0.415 0.782 0.684 0.105 0.127 0.297 0.358 0.391 0.4 0.094-0.041 0.286-0.273 0.391-0.4 0.223-0.269 0.454-0.548 0.782-0.684 0.339-0.141 0.724-0.107 1.064-0.077 0.541 0.048 0.567 0.019 0.52-0.522-0.073-0.83 0.118-1.314 0.759-1.847 0.439-0.365 0.439-0.422 0-0.786-0.641-0.533-0.832-1.017-0.759-1.847 0.047-0.541 0.021-0.57-0.52-0.522-0.83 0.073-1.314-0.119-1.845-0.761zM26.623 17.25c1.164 0 2.111 0.947 2.111 2.111s-0.947 2.111-2.111 2.111c-1.164 0-2.111-0.947-2.111-2.111s0.947-2.111 2.111-2.111zM26.623 18.332c-0.568 0-1.030 0.462-1.030 1.030s0.462 1.030 1.030 1.030c0.568 0 1.030-0.462 1.030-1.030s-0.462-1.030-1.030-1.030zM20.010 13.306c0.299 0 0.541 0.242 0.541 0.541s-0.242 0.541-0.541 0.541v0h-13c-0.699 0-0.699-1.081 0-1.081v0zM29.891 10.018c0.299 0 0.541 0.242 0.541 0.541s-0.242 0.541-0.54 0.541v0h-22.881c-0.699 0-0.699-1.081 0-1.081v0zM25.644 6.73c0.699 0 0.699 1.081 0 1.081v0h-18.634c-0.699 0-0.699-1.081 0-1.081v0z"></path>
</svg>
