<!-- Generated by IcoMoon.io -->
<svg version="1.1" xmlns="http://www.w3.org/2000/svg" width="32" height="32" viewBox="0 0 32 32">
<title>CheckboxChecked</title>
<path fill="#00acb9" d="M28.444 0h-24.889c-1.956 0-3.556 1.6-3.556 3.556v24.889c0 1.956 1.6 3.556 3.556 3.556h24.889c1.956 0 3.556-1.6 3.556-3.556v-24.889c0-1.956-1.6-3.556-3.556-3.556zM13.707 23.627c-0.164 0.165-0.36 0.296-0.575 0.385s-0.446 0.135-0.678 0.135c-0.233 0-0.463-0.046-0.678-0.135s-0.41-0.22-0.575-0.385l-6.382-6.382c-0.165-0.165-0.295-0.36-0.384-0.575s-0.135-0.446-0.135-0.678c0-0.233 0.046-0.463 0.135-0.678s0.22-0.41 0.384-0.575c0.165-0.165 0.36-0.295 0.575-0.384s0.446-0.135 0.678-0.135c0.233 0 0.463 0.046 0.678 0.135s0.41 0.22 0.575 0.384l5.12 5.12 12.231-12.231c0.332-0.332 0.783-0.519 1.253-0.519s0.921 0.187 1.253 0.519 0.519 0.783 0.519 1.253c0 0.47-0.187 0.921-0.519 1.253l-13.476 13.493z"></path>
</svg>
