<!-- Generated by IcoMoon.io -->
<svg version="1.1" xmlns="http://www.w3.org/2000/svg" width="32" height="32" viewBox="0 0 32 32">
<title>CheckboxUncheck</title>
<path fill="#e4e4e4" d="M26.667 28.444h-21.333c-0.978 0-1.778-0.8-1.778-1.778v-21.333c0-0.978 0.8-1.778 1.778-1.778h21.333c0.978 0 1.778 0.8 1.778 1.778v21.333c0 0.978-0.8 1.778-1.778 1.778zM28.444 0h-24.889c-1.956 0-3.556 1.6-3.556 3.556v24.889c0 1.956 1.6 3.556 3.556 3.556h24.889c1.956 0 3.556-1.6 3.556-3.556v-24.889c0-1.956-1.6-3.556-3.556-3.556z"></path>
</svg>
