<!-- Generated by IcoMoon.io -->
<svg version="1.1" xmlns="http://www.w3.org/2000/svg" width="32" height="32" viewBox="0 0 32 32">
<title>CircleInviteIcon</title>
<path fill="#f9f9f9" d="M32 16c0 8.837-7.163 16-16 16s-16-7.163-16-16c0-8.837 7.163-16 16-16s16 7.163 16 16z"></path>
<path fill="#000" d="M12.979 15.152c2.291 0 4.148-1.857 4.148-4.148s-1.857-4.148-4.148-4.148c-2.291 0-4.148 1.857-4.148 4.148s1.857 4.148 4.148 4.148z"></path>
<path fill="#000" d="M14.229 15.843h-2.499c-1.595 0.001-3.124 0.636-4.252 1.764s-1.762 2.657-1.763 4.252v2.107c0 0.183 0.073 0.359 0.202 0.489s0.305 0.203 0.489 0.203h13.148c0.183 0 0.359-0.073 0.489-0.203s0.202-0.305 0.202-0.489v-2.107c-0.002-1.595-0.636-3.124-1.764-4.252s-2.657-1.762-4.252-1.764z"></path>
<path fill="#000" d="M25.595 13.943h-1.728v-1.728c0-0.183-0.073-0.359-0.202-0.489s-0.305-0.202-0.489-0.202c-0.183 0-0.359 0.073-0.489 0.202s-0.203 0.306-0.203 0.489v1.728h-1.728c-0.183 0-0.359 0.073-0.489 0.203s-0.203 0.306-0.203 0.489c0 0.183 0.073 0.359 0.203 0.489s0.305 0.202 0.489 0.202h1.728v1.728c0 0.183 0.073 0.359 0.203 0.489s0.305 0.203 0.489 0.203c0.183 0 0.359-0.073 0.489-0.203s0.202-0.305 0.202-0.489v-1.728h1.728c0.183 0 0.359-0.073 0.489-0.202s0.203-0.306 0.203-0.489-0.073-0.359-0.203-0.489c-0.13-0.13-0.305-0.203-0.489-0.203z"></path>
</svg>
