<!-- Generated by IcoMoon.io -->
<svg version="1.1" xmlns="http://www.w3.org/2000/svg" width="32" height="32" viewBox="0 0 32 32">
<title>CircleUser</title>
<path d="M16 0c4.274 0 8.292 1.664 11.314 4.686s4.686 7.040 4.686 11.314c0 3.772-1.337 7.434-3.766 10.312-0.576 0.682-1.211 1.318-1.888 1.893-2.883 2.447-6.558 3.795-10.346 3.795s-7.463-1.348-10.346-3.795c-0.677-0.574-1.312-1.211-1.888-1.892-2.429-2.879-3.766-6.541-3.766-10.313 0-4.274 1.664-8.292 4.686-11.314s7.040-4.686 11.314-4.686zM16 16l-0.038-0.002-0.093 0.002c-4.89 0.070-8.868 4.107-8.868 8.999 0 0.636 0.067 1.269 0.198 1.886l-0.25-0.206c2.523 2.141 5.738 3.32 9.053 3.32 3.206 0 6.318-1.103 8.801-3.112l-0.072 0.311c0.18-0.715 0.271-1.455 0.271-2.199 0-4.893-3.978-8.929-8.868-8.999l-0.093-0.001c-0.013 0-0.026 0-0.039 0zM16 2c-7.72 0-14 6.28-14 14 0 3.148 1.064 6.208 3.006 8.669l-0.006 0.331c0-2.911 1.126-5.655 3.171-7.727 1.163-1.178 2.546-2.062 4.058-2.612-1.359-1.098-2.229-2.78-2.229-4.661 0-3.308 2.692-6 6-6s6 2.692 6 6c0 1.881-0.87 3.563-2.229 4.664 1.512 0.548 2.896 1.432 4.058 2.61 1.966 1.992 3.083 4.607 3.166 7.394l-0.289 0.356c2.124-2.518 3.294-5.722 3.294-9.022 0-7.72-6.28-14-14-14zM16.034 13.998l-0.034 0.002c2.206 0 4-1.794 4-4s-1.794-4-4-4c-2.206 0-4 1.794-4 4 0 2.194 1.776 3.982 3.966 4l0.067-0.001z"></path>
</svg>
