<!-- Generated by IcoMoon.io -->
<svg version="1.1" xmlns="http://www.w3.org/2000/svg" width="32" height="32" viewBox="0 0 32 32">
<title>ClassicPhone</title>
<path d="M27.665 19.466c-0.154-1.026-0.982-1.826-2.048-2.065-4.143-0.929-5.181-3.212-5.356-5.745-0.735-0.131-2.042-0.272-4.26-0.272s-3.525 0.142-4.26 0.272c-0.175 2.532-1.214 4.815-5.356 5.745-1.066 0.24-1.894 1.038-2.048 2.065l-0.799 5.295c-0.281 1.865 1.149 3.546 3.14 3.546h18.648c1.988 0 3.421-1.682 3.139-3.546l-0.799-5.295zM16 24.449c-2.243 0-4.061-1.723-4.061-3.846s1.818-3.846 4.061-3.846c2.243 0 4.061 1.723 4.061 3.846s-1.82 3.846-4.061 3.846zM31.995 9.846c-0.038-2.308-6.176-6.152-15.995-6.154-9.821 0.002-15.958 3.846-15.995 6.154s0.034 5.311 4.075 4.811c4.728-0.586 4.437-2.166 4.437-4.425 0-1.575 3.845-1.955 7.483-1.955s7.482 0.38 7.483 1.955c0 2.258-0.291 3.838 4.437 4.425 4.040 0.5 4.112-2.503 4.075-4.811z"></path>
</svg>
