<!-- Generated by IcoMoon.io -->
<svg version="1.1" xmlns="http://www.w3.org/2000/svg" width="32" height="32" viewBox="0 0 32 32">
<title>Clock</title>
<path d="M30.723 9.772c-1.687-3.933-4.554-6.794-8.52-8.486-1.982-0.845-4.059-1.277-6.229-1.277s-4.231 0.428-6.211 1.277c-3.933 1.687-6.813 4.546-8.503 8.486-0.847 1.974-1.26 4.042-1.26 6.211s0.413 4.255 1.26 6.229c1.69 3.94 4.57 6.816 8.503 8.503 1.98 0.85 4.042 1.277 6.211 1.277s4.246-0.432 6.229-1.277c3.966-1.692 6.833-4.57 8.521-8.503 0.849-1.98 1.277-4.059 1.277-6.229s-0.427-4.23-1.277-6.211zM28.169 23.051c-1.256 2.154-2.977 3.863-5.144 5.126-2.154 1.256-4.514 1.889-7.051 1.889-1.907 0-3.727-0.367-5.459-1.12s-3.228-1.741-4.479-2.992c-1.251-1.251-2.247-2.761-2.992-4.497-0.742-1.729-1.102-3.569-1.102-5.476 0-2.537 0.623-4.885 1.872-7.033 1.253-2.156 2.974-3.867 5.126-5.126s4.496-1.89 7.033-1.89c2.537 0 4.897 0.634 7.051 1.89 2.167 1.263 3.884 2.974 5.144 5.126s1.889 4.496 1.889 7.033c0 2.537-0.626 4.901-1.889 7.069z"></path>
<path d="M16.989 15.842v-9.063c0-0.542-0.473-0.98-1.015-0.98-0.507 0-0.962 0.437-0.962 0.98v9.203c0 0.018 0.035 0.088 0.035 0.14-0.035 0.315 0.053 0.577 0.262 0.788l5.232 5.231c0.35 0.35 0.997 0.35 1.347 0 0.402-0.402 0.376-0.986 0-1.365l-4.899-4.934z"></path>
</svg>
