<!-- Generated by IcoMoon.io -->
<svg version="1.1" xmlns="http://www.w3.org/2000/svg" width="32" height="32" viewBox="0 0 32 32">
<title>CloseCircle</title>
<path fill="#d3d3d3" d="M4.687 4.679c6.239-6.239 16.394-6.239 22.633 0 6.239 6.24 6.239 16.393-0 22.632-3.12 3.12-7.218 4.68-11.317 4.68s-8.196-1.559-11.317-4.68c-3.022-3.022-4.687-7.041-4.687-11.315s1.665-8.293 4.687-11.317zM25.567 6.432c-5.273-5.272-13.854-5.273-19.128 0-2.554 2.555-3.961 5.952-3.961 9.564s1.407 7.009 3.961 9.563c5.273 5.273 13.854 5.273 19.128 0 5.272-5.272 5.272-13.853 0-19.126zM10.815 10.661c0.485-0.486 1.269-0.485 1.754-0.001v0l3.512 3.507 3.512-3.507c0.485-0.483 1.269-0.485 1.754 0.001 0.482 0.485 0.482 1.269-0.001 1.753v0l-3.509 3.504 3.509 3.504c0.485 0.483 0.485 1.268 0.001 1.753-0.242 0.242-0.56 0.363-0.878 0.363s-0.635-0.12-0.876-0.362v0l-3.512-3.507-3.512 3.507c-0.242 0.241-0.559 0.362-0.876 0.362s-0.636-0.12-0.878-0.363c-0.483-0.485-0.483-1.269 0.001-1.753v0l3.509-3.504-3.509-3.504c-0.485-0.483-0.485-1.268-0.001-1.753z"></path>
</svg>
