<!-- Generated by IcoMoon.io -->
<svg version="1.1" xmlns="http://www.w3.org/2000/svg" width="32" height="32" viewBox="0 0 32 32">
<title>Code</title>
<path d="M30.077 1.465h-28.154c-1.061 0-1.923 0.863-1.923 1.923v25.224c0 1.060 0.862 1.923 1.923 1.923h28.154c1.060 0 1.923-0.863 1.923-1.923v-25.224c0-1.060-0.863-1.923-1.923-1.923zM24.279 4.694c0-0.392 0.318-0.71 0.71-0.71h0.71c0.392 0 0.71 0.318 0.71 0.71v0.805c0 0.392-0.318 0.71-0.71 0.71h-0.71c-0.392 0-0.71-0.318-0.71-0.71v-0.805zM20.977 4.694c0-0.392 0.318-0.71 0.71-0.71h0.71c0.392 0 0.71 0.318 0.71 0.71v0.805c0 0.392-0.318 0.71-0.71 0.71h-0.71c-0.392 0-0.71-0.318-0.71-0.71v-0.805zM29.692 28.227h-27.385v-19.886h27.385v19.886zM29.711 5.499c0 0.392-0.318 0.71-0.71 0.71h-0.71c-0.392 0-0.71-0.318-0.71-0.71v-0.805c0-0.392 0.318-0.71 0.71-0.71h0.71c0.392 0 0.71 0.318 0.71 0.71v0.805z"></path>
<path d="M6.869 19.035l5.147 2.394c0.133 0.062 0.275 0.093 0.421 0.093 0.191 0 0.377-0.054 0.538-0.157 0.289-0.185 0.462-0.5 0.462-0.843v-0.026c0-0.388-0.227-0.744-0.579-0.907l-3.219-1.496 3.219-1.496c0.352-0.163 0.579-0.52 0.579-0.907v-0.026c0-0.344-0.173-0.659-0.462-0.843-0.16-0.102-0.346-0.156-0.539-0.156-0.145 0-0.291 0.032-0.421 0.092l-5.147 2.393c-0.351 0.163-0.579 0.52-0.579 0.907v0.072c-0 0.387 0.227 0.743 0.579 0.907z"></path>
<path d="M13.484 23.91c0.188 0.257 0.49 0.41 0.808 0.41h0.026c0.437 0 0.819-0.28 0.952-0.695l3.391-10.506c0.097-0.303 0.043-0.638-0.145-0.895s-0.49-0.41-0.808-0.41h-0.026c-0.437 0-0.82 0.279-0.953 0.695l-3.391 10.507c-0.097 0.304-0.042 0.638 0.145 0.895z"></path>
<path d="M18.562 15.689c0 0.387 0.227 0.743 0.579 0.908l3.219 1.496-3.219 1.496c-0.352 0.163-0.579 0.52-0.579 0.907v0.026c0 0.343 0.173 0.658 0.462 0.843 0.161 0.103 0.347 0.157 0.538 0.157 0.146 0 0.288-0.031 0.422-0.093l5.147-2.394c0.351-0.164 0.579-0.52 0.579-0.907v-0.072c0-0.387-0.227-0.744-0.579-0.907l-5.147-2.393c-0.13-0.060-0.275-0.092-0.42-0.092-0.192 0-0.379 0.054-0.539 0.156-0.29 0.185-0.463 0.5-0.463 0.843v0.026h-0v0z"></path>
</svg>
