<!-- Generated by IcoMoon.io -->
<svg version="1.1" xmlns="http://www.w3.org/2000/svg" width="32" height="32" viewBox="0 0 32 32">
<title>CompanyFilled</title>
<path d="M12.001 6.286h8v-1.333h-8v1.333zM29.333 6.286c1.471 0 2.667 1.196 2.667 2.667v4c0 1.471-1.196 2.667-2.667 2.667h-10.666v-0.667c0-0.369-0.298-0.667-0.667-0.667h-4c-0.369 0-0.667 0.298-0.667 0.667v0.667h-10.666c-1.471 0-2.667-1.196-2.667-2.667v-4c0-1.471 1.196-2.667 2.667-2.667h6.666v-1.333c0-1.471 1.196-2.667 2.667-2.667h8c1.471 0 2.667 1.196 2.667 2.667v1.333h6.666zM31.63 16.338c0.226 0.113 0.37 0.344 0.37 0.597v9.35c0 1.471-1.197 2.667-2.667 2.667h-26.665c-1.471 0-2.667-1.196-2.667-2.667v-9.35c0-0.253 0.144-0.484 0.37-0.597 0.228-0.113 0.499-0.088 0.7 0.066 0.473 0.359 1.026 0.549 1.598 0.549h10.666v2c0 0.369 0.298 0.667 0.667 0.667h4c0.368 0 0.667-0.298 0.667-0.667v-2h10.665c0.572 0 1.124-0.189 1.598-0.549 0.201-0.152 0.473-0.178 0.7-0.066z"></path>
</svg>
