<!-- Generated by IcoMoon.io -->
<svg version="1.1" xmlns="http://www.w3.org/2000/svg" width="32" height="32" viewBox="0 0 32 32">
<title>Company</title>
<path d="M29.306 15.519h-10.106v-1.010h-6.064v1.010h-10.106v-6.064h26.274v6.064zM29.306 26.635h-26.274v-8.084h10.106v1.010h6.064v-1.010h10.106v8.084zM11.116 6.424v-2.022h10.106v2.021h-10.106zM30.316 6.424h-6.064v-3.032c0-1.115-0.905-2.022-2.021-2.022h-12.126c-1.115 0-2.021 0.905-2.021 2.022v3.032h-6.064c-1.115 0-2.022 0.905-2.022 2.022v19.2c0 1.115 0.905 2.021 2.022 2.021h28.294c1.115 0 2.021-0.905 2.021-2.021v-19.2c0-1.115-0.905-2.021-2.021-2.021z"></path>
</svg>
