<!-- Generated by IcoMoon.io -->
<svg version="1.1" xmlns="http://www.w3.org/2000/svg" width="40" height="32" viewBox="0 0 40 32">
<title>Credit</title>
<path fill="#696969" d="M31.71 0c0.324 0 0.587 0.263 0.587 0.587s-0.263 0.587-0.587 0.587v0h-21.019c-0.635 0-1.151 0.516-1.151 1.151v0 1.641h29.248v-1.641c0-0.635-0.516-1.151-1.151-1.151v0h-3.581c-0.324 0-0.587-0.263-0.587-0.587s0.263-0.587 0.587-0.587v0h3.581c1.281 0 2.324 1.043 2.324 2.324v0 16.094c0 1.281-1.042 2.324-2.324 2.324v0h-6.043v8.838c0 1.281-1.043 2.324-2.324 2.324v0h-16.711c-0.324 0-0.587-0.263-0.587-0.587s0.263-0.587 0.587-0.587v0h16.711c0.635 0 1.151-0.516 1.151-1.151v0-16.094c0-0.635-0.516-1.151-1.151-1.151v0h-26.946c-0.635 0-1.151 0.516-1.151 1.151v0 16.094c0 0.635 0.516 1.151 1.151 1.151v0h7.889c0.324 0 0.587 0.263 0.587 0.587s-0.263 0.587-0.587 0.587v0h-7.889c-1.281 0-2.324-1.043-2.324-2.324v0-16.094c0-1.281 1.042-2.324 2.324-2.324v0h6.043v-8.837c0-1.281 1.043-2.324 2.324-2.324v0zM7.276 26.125c0.324 0 0.587 0.263 0.587 0.587s-0.263 0.587-0.587 0.587v0h-2.965c-0.324 0-0.587-0.263-0.587-0.587s0.263-0.587 0.587-0.587v0zM12.869 26.125c0.324 0 0.587 0.263 0.587 0.587s-0.263 0.587-0.587 0.587v0h-2.965c-0.324 0-0.586-0.263-0.587-0.587s0.263-0.587 0.587-0.587v0zM18.461 26.125c0.324 0 0.587 0.263 0.587 0.587s-0.263 0.587-0.587 0.587v0h-2.965c-0.324 0-0.587-0.263-0.587-0.587s0.263-0.586 0.587-0.587v0zM24.054 26.125c0.324 0 0.587 0.263 0.587 0.587s-0.263 0.587-0.587 0.587v0h-2.965c-0.324 0-0.587-0.263-0.587-0.587s0.263-0.587 0.587-0.587v0zM24.58 15.097c1.831 0 3.32 1.489 3.32 3.32s-1.489 3.32-3.32 3.32c-0.556 0-1.080-0.138-1.541-0.381-0.461 0.243-0.985 0.381-1.541 0.381-1.831 0-3.32-1.489-3.32-3.32s1.489-3.32 3.32-3.32c0.556 0 1.080 0.138 1.541 0.381 0.461-0.243 0.985-0.381 1.541-0.381zM8.776 15.365c1.029 0 1.867 0.838 1.867 1.867v0 2.371c0 1.029-0.837 1.867-1.867 1.867v0h-3.184c-1.029 0-1.867-0.837-1.867-1.867v0-2.371c0-1.029 0.837-1.867 1.867-1.867v0zM21.499 16.27c-1.184 0-2.147 0.963-2.147 2.147s0.963 2.147 2.147 2.147c0.173 0 0.341-0.021 0.502-0.060-0.463-0.571-0.741-1.297-0.741-2.087s0.278-1.517 0.741-2.087c-0.161-0.039-0.329-0.060-0.502-0.060zM24.58 16.27c-0.173 0-0.341 0.021-0.502 0.060 0.463 0.571 0.741 1.297 0.741 2.087s-0.278 1.517-0.741 2.087c0.161 0.039 0.329 0.060 0.502 0.060 1.184 0 2.147-0.963 2.147-2.147s-0.963-2.147-2.147-2.147zM9.47 19.004h-1.7v1.293h1.006c0.383 0 0.694-0.311 0.694-0.694v0-0.599zM6.597 16.538h-1.006c-0.383 0-0.694 0.311-0.694 0.694v0 2.371c0 0.383 0.311 0.694 0.694 0.694v0h1.005v-3.759zM23.039 16.924c-0.375 0.387-0.606 0.913-0.606 1.493s0.232 1.106 0.606 1.493c0.375-0.387 0.606-0.913 0.606-1.493s-0.232-1.107-0.606-1.493zM38.788 5.138h-29.248v2.068h5.956c0.324 0 0.587 0.263 0.587 0.587s-0.263 0.587-0.587 0.587v0h-5.956v2.782h19.73c1.281 0 2.324 1.043 2.324 2.324v0 6.083h6.043c0.635 0 1.151-0.516 1.151-1.151v0-10.038h-20.945c-0.324 0-0.587-0.263-0.587-0.587s0.263-0.587 0.587-0.587v0h20.945v-2.068zM8.776 16.538h-1.006v1.293h1.699v-0.599c0-0.383-0.311-0.694-0.694-0.694v0z"></path>
</svg>
