<!-- Generated by IcoMoon.io -->
<svg version="1.1" xmlns="http://www.w3.org/2000/svg" width="32" height="32" viewBox="0 0 32 32">
<title>DateTime</title>
<path d="M4.003 1.002v4.003c0 0.554 0.448 1.002 1.002 1.002 0.547-0.007 0.996-0.455 0.996-1.009v-3.997c0-0.554-0.448-1.002-1.002-1.002v0c-0.554 0-0.996 0.448-0.996 1.002z"></path>
<path d="M16 12.003h3.997v4.003h-3.997v-4.003z"></path>
<path d="M20.003 1.002v4.003c0 0.554 0.448 1.002 1.002 1.002s1.002-0.448 1.002-1.002v-4.003c0-0.554-0.448-1.002-1.002-1.002v0c-0.561 0-1.002 0.448-1.002 1.002z"></path>
<path d="M32 24c0-4.419-3.581-8-8-8s-8 3.581-8 8c0 4.419 3.581 8 8 8h0.007c4.412 0 7.993-3.581 7.993-8v0zM24 30.002c-3.311 0-6.002-2.691-6.002-6.002s2.691-6.002 6.002-6.002c3.311 0 6.002 2.691 6.002 6.002s-2.691 6.002-6.002 6.002z"></path>
<path d="M2.17 25.998h11.832v-1.998h-11.832c-0.092 0-0.165-0.092-0.165-0.198v-13.804h22.002v4.003h1.998v-7.802c0-1.214-0.97-2.196-2.163-2.196h-0.831v1.002c0 1.101-0.897 1.998-1.998 1.998s-1.998-0.897-1.998-1.998v-1.002h-12.003v1.002c0 1.101-0.897 1.998-1.998 1.998s-1.998-0.897-1.998-1.998v-1.002h-0.844c-1.2 0-2.17 0.983-2.17 2.196v17.603c0 1.214 0.97 2.196 2.17 2.196z"></path>
<path d="M27.001 24h-3.001v-3.001c0-0.554-0.448-1.002-1.002-1.002s-1.002 0.448-1.002 1.002v4.003c0 0.554 0.448 1.002 1.002 1.002h4.003c0.554 0 1.002-0.448 1.002-1.002s-0.448-1.002-1.002-1.002z"></path>
<path d="M9.998 17.998h4.003v4.003h-4.003v-4.003z"></path>
<path d="M4.003 12.003h4.003v4.003h-4.003v-4.003z"></path>
<path d="M9.998 12.003h4.003v4.003h-4.003v-4.003z"></path>
<path d="M4.003 17.998h4.003v4.003h-4.003v-4.003z"></path>
</svg>
