<!-- Generated by IcoMoon.io -->
<svg version="1.1" xmlns="http://www.w3.org/2000/svg" width="32" height="32" viewBox="0 0 32 32">
<title>Date</title>
<path d="M29.5 9.25v-3c0-0.689-0.561-1.25-1.25-1.25h-1.5v2.5h-2.5v-2.5h-16.5v2.5h-2.5v-2.5h-1.5c-0.689 0-1.25 0.561-1.25 1.25v3h27zM29.5 28.25v-16.5h-27v16.5c0 0.689 0.561 1.25 1.25 1.25h24.5c0.689 0 1.25-0.561 1.25-1.25zM28.25 2.5c2.068 0 3.75 1.682 3.75 3.75v22c0 2.068-1.682 3.75-3.75 3.75h-24.5c-2.068 0-3.75-1.682-3.75-3.75v-22c0-2.068 1.682-3.75 3.75-3.75h1.5v-2.5h2.5v2.5h16.5v-2.5h2.5v2.5h1.5zM4.75 16.875h2.5v-2.5h-2.5v2.5zM9.75 16.875h2.5v-2.5h-2.5v2.5zM14.75 16.875h2.5v-2.5h-2.5v2.5zM19.75 16.875h2.5v-2.5h-2.5v2.5zM24.75 16.875h2.5v-2.5h-2.5v2.5zM4.75 21.875h2.5v-2.5h-2.5v2.5zM9.75 21.875h2.5v-2.5h-2.5v2.5zM14.75 21.875h2.5v-2.5h-2.5v2.5zM19.75 21.875h2.5v-2.5h-2.5v2.5zM4.75 26.875h2.5v-2.5h-2.5v2.5zM9.75 26.875h2.5v-2.5h-2.5v2.5zM14.75 26.875h2.5v-2.5h-2.5v2.5zM19.75 26.875h2.5v-2.5h-2.5v2.5zM24.75 21.875h2.5v-2.5h-2.5v2.5z"></path>
</svg>
