<!-- Generated by IcoMoon.io -->
<svg version="1.1" xmlns="http://www.w3.org/2000/svg" width="38" height="32" viewBox="0 0 38 32">
<title>Deal</title>
<path fill="#8b99a5" d="M12.58 0c-3.156 0-6.019 0.621-8.16 1.692-2.145 1.071-3.693 2.669-3.693 4.643v18.964c0 1.955 1.533 3.545 3.68 4.618 2.145 1.072 5.012 1.703 8.173 1.703 2.656 0 5.101-0.454 7.087-1.235 1.553 0.787 3.305 1.236 5.162 1.236 6.319 0 11.457-5.14 11.457-11.459s-5.139-11.459-11.457-11.459c-0.137 0-0.273 0.009-0.407 0.013v-2.383c0-1.974-1.537-3.572-3.68-4.643s-5.004-1.692-8.161-1.692zM12.58 1.593c2.953 0 5.62 0.612 7.482 1.543s2.803 2.116 2.803 3.199c-0.368 1.677-1.597 2.601-2.803 3.185-1.862 0.931-4.529 1.542-7.482 1.542s-5.62-0.611-7.482-1.542c-1.379-0.716-2.636-1.804-2.803-3.185 0-1.082 0.941-2.268 2.803-3.199s4.529-1.543 7.482-1.543zM2.308 9.545c0.585 0.538 1.308 1.018 2.111 1.42 2.143 1.071 5.004 1.69 8.163 1.69 1.369 0 2.678-0.127 3.901-0.346-0.931 0.989-1.687 2.148-2.223 3.42-0.545 0.048-1.105 0.087-1.679 0.087-2.948 0-5.612-0.614-7.471-1.543-1.857-0.929-2.801-2.097-2.801-3.199v-1.529zM24.829 10.285c5.465 0 9.876 4.413 9.876 9.876 0 5.466-4.412 9.879-9.876 9.879s-9.878-4.413-9.878-9.878c0-5.465 4.413-9.878 9.876-9.878zM24.742 12.249c-0.196 0.020-0.378 0.116-0.508 0.263-0.131 0.15-0.201 0.342-0.196 0.538v1.236c-0.736 0.109-1.405 0.384-1.949 0.815-0.735 0.577-1.212 1.482-1.212 2.493 0 1.103 0.644 1.933 1.383 2.371s1.559 0.647 2.284 0.927c0.825 0.317 1.584 0.545 2.038 0.815s0.617 0.419 0.617 1.024c0 0.545-0.215 0.931-0.617 1.248-0.401 0.316-1.012 0.531-1.753 0.531-1.268 0-2.179-0.529-2.409-1.284-0.025-0.105-0.073-0.204-0.137-0.289-0.065-0.086-0.148-0.157-0.241-0.209-0.095-0.054-0.198-0.087-0.305-0.097-0.106-0.012-0.215 0-0.319 0.031-0.102 0.032-0.198 0.086-0.279 0.156s-0.148 0.156-0.196 0.253c-0.047 0.097-0.073 0.204-0.079 0.31-0.004 0.108 0.012 0.215 0.051 0.316 0.415 1.37 1.696 2.131 3.123 2.335v1.247c0 0.105 0.019 0.209 0.058 0.305 0.038 0.097 0.096 0.186 0.17 0.262 0.073 0.073 0.16 0.132 0.257 0.173 0.096 0.041 0.201 0.061 0.305 0.061s0.208-0.020 0.305-0.061c0.096-0.041 0.183-0.099 0.257-0.175 0.073-0.074 0.131-0.163 0.17-0.26 0.039-0.096 0.058-0.201 0.057-0.305v-1.247c0.736-0.113 1.407-0.385 1.951-0.815 0.735-0.579 1.21-1.471 1.21-2.483 0-1.103-0.644-1.943-1.382-2.383-0.74-0.438-1.561-0.647-2.285-0.927-0.825-0.317-1.584-0.545-2.036-0.815-0.455-0.269-0.618-0.407-0.618-1.012 0-0.544 0.215-0.931 0.617-1.247 0.401-0.317 1.012-0.531 1.754-0.531 1.267 0 2.179 0.516 2.407 1.271 0.022 0.108 0.067 0.209 0.131 0.298 0.063 0.090 0.145 0.166 0.239 0.221 0.095 0.057 0.201 0.092 0.308 0.105 0.109 0.015 0.22 0.004 0.326-0.028 0.105-0.032 0.202-0.086 0.285-0.157s0.151-0.16 0.198-0.259c0.048-0.099 0.073-0.207 0.077-0.316 0.003-0.111-0.016-0.22-0.058-0.321-0.413-1.369-1.696-2.129-3.123-2.333v-1.248c0.003-0.112-0.019-0.224-0.064-0.327-0.044-0.103-0.109-0.196-0.192-0.272-0.084-0.076-0.182-0.134-0.289-0.169-0.106-0.035-0.218-0.047-0.332-0.033zM2.308 14.284c0.582 0.535 1.299 1.008 2.099 1.408 2.145 1.073 5.011 1.703 8.173 1.703 0.385 0 0.761-0.017 1.135-0.036-0.224 0.896-0.345 1.837-0.345 2.803 0 0.127 0.009 0.256 0.013 0.383-0.265 0.010-0.531 0.012-0.803 0.012-2.948 0-5.612-0.614-7.471-1.542-1.857-0.931-2.801-2.099-2.801-3.2v-1.527zM2.308 19.025c0.582 0.535 1.299 1.008 2.099 1.407 2.145 1.073 5.011 1.705 8.173 1.705 0.324 0 0.647-0.010 0.963-0.025 0.189 1.089 0.528 2.125 1.001 3.087-0.637 0.064-1.29 0.099-1.964 0.099-2.948 0-5.612-0.614-7.471-1.542-1.857-0.931-2.801-2.099-2.801-3.2v-1.53zM2.308 23.767c0.582 0.534 1.299 1.007 2.099 1.407 2.145 1.073 5.011 1.705 8.173 1.705 0.983 0 1.939-0.057 2.851-0.175 0.695 0.996 1.54 1.863 2.508 2.593-1.558 0.458-3.393 0.742-5.359 0.742-2.947 0-5.61-0.615-7.471-1.543-1.859-0.931-2.801-2.099-2.801-3.199v-1.53z"></path>
</svg>
