<!-- Generated by IcoMoon.io -->
<svg version="1.1" xmlns="http://www.w3.org/2000/svg" width="32" height="32" viewBox="0 0 32 32">
<title>DirectionShape</title>
<path fill="#f9f9f9" d="M5.333 0h21.333c2.946 0 5.333 2.388 5.333 5.333v21.333c0 2.946-2.388 5.333-5.333 5.333h-21.333c-2.946 0-5.333-2.388-5.333-5.333v-21.333c0-2.946 2.388-5.333 5.333-5.333z"></path>
<path fill="#8b99a5" d="M15.752 6.67c-1.505 0.039-3.023 0.443-4.417 1.248-4.459 2.574-5.994 8.288-3.42 12.747s8.296 5.994 12.755 3.42c4.459-2.575 5.986-8.296 3.412-12.755-1.77-3.066-5.021-4.744-8.331-4.66zM15.484 7.715v1.799c-0.001 0.069 0.012 0.137 0.037 0.201s0.064 0.122 0.112 0.171c0.048 0.049 0.106 0.088 0.169 0.114s0.131 0.040 0.2 0.040c0.069 0 0.137-0.014 0.2-0.040s0.121-0.065 0.169-0.114 0.086-0.107 0.112-0.171c0.026-0.064 0.038-0.132 0.037-0.201v-1.799c2.677 0.17 5.225 1.632 6.669 4.133 0.664 1.15 1.017 2.391 1.094 3.631h-1.799c-0.016-0.001-0.033-0.001-0.049 0-0.068 0.003-0.135 0.019-0.197 0.048s-0.117 0.070-0.164 0.12c-0.046 0.050-0.082 0.109-0.105 0.174s-0.033 0.132-0.030 0.201c0.003 0.068 0.020 0.135 0.049 0.197s0.070 0.117 0.121 0.163c0.051 0.046 0.11 0.081 0.174 0.104s0.133 0.033 0.201 0.030h1.799c-0.168 2.68-1.63 5.224-4.133 6.669-1.15 0.664-2.391 1.025-3.63 1.102v-1.807c0.001-0.074-0.013-0.147-0.042-0.215s-0.072-0.129-0.127-0.179c-0.054-0.050-0.119-0.088-0.189-0.111s-0.144-0.031-0.218-0.023c-0.129 0.014-0.248 0.076-0.333 0.174s-0.131 0.223-0.129 0.353v1.799c-2.68-0.168-5.224-1.629-6.669-4.133-0.664-1.151-1.025-2.39-1.102-3.631h1.807c0.069 0.001 0.137-0.012 0.201-0.037s0.122-0.064 0.171-0.112c0.049-0.048 0.088-0.106 0.114-0.169s0.040-0.131 0.040-0.2c0-0.069-0.014-0.137-0.040-0.2s-0.065-0.121-0.114-0.169-0.107-0.086-0.171-0.112c-0.064-0.026-0.132-0.038-0.201-0.037h-1.799c0.17-2.677 1.632-5.225 4.133-6.669 1.15-0.664 2.391-1.017 3.631-1.094zM20.46 12.885c-0.027 0.001-0.054 0.003-0.081 0.008l-5.276 1.248c-0.099 0.022-0.189 0.073-0.259 0.146l-3.712 3.947c-0.075 0.081-0.123 0.184-0.135 0.294s0.011 0.221 0.066 0.317 0.14 0.172 0.241 0.216c0.101 0.044 0.215 0.055 0.323 0.031l5.276-1.248c0.099-0.022 0.189-0.073 0.259-0.146l3.712-3.947c0.069-0.076 0.115-0.171 0.13-0.273s-0.001-0.206-0.045-0.299c-0.044-0.093-0.115-0.171-0.204-0.223s-0.191-0.077-0.294-0.071v0zM18.929 14.303l-2.423 2.577-3.436 0.802 2.423-2.561 3.436-0.818zM15.938 15.479c-0.067 0.008-0.132 0.037-0.194 0.073-0.248 0.143-0.33 0.457-0.186 0.705s0.457 0.33 0.705 0.186c0.248-0.143 0.33-0.457 0.186-0.705-0.107-0.186-0.31-0.284-0.511-0.259z"></path>
</svg>
