<!-- Generated by IcoMoon.io -->
<svg version="1.1" xmlns="http://www.w3.org/2000/svg" width="32" height="32" viewBox="0 0 32 32">
<title>Direction</title>
<path d="M15.575 0.005c-2.579 0.066-5.183 0.76-7.571 2.139-7.644 4.413-10.276 14.208-5.863 21.852s14.222 10.276 21.866 5.863c7.644-4.413 10.262-14.222 5.849-21.866-3.034-5.255-8.607-8.133-14.281-7.988zM15.116 1.797v3.084c-0.002 0.118 0.020 0.235 0.064 0.344s0.109 0.209 0.192 0.293c0.083 0.084 0.181 0.151 0.29 0.196s0.225 0.069 0.343 0.069c0.118 0 0.235-0.023 0.343-0.069s0.207-0.112 0.29-0.196 0.148-0.183 0.192-0.293c0.044-0.109 0.066-0.226 0.064-0.344v-3.084c4.59 0.291 8.958 2.797 11.433 7.085 1.138 1.971 1.743 4.099 1.876 6.224h-3.084c-0.028-0.001-0.056-0.001-0.083 0-0.117 0.005-0.232 0.033-0.338 0.083s-0.201 0.12-0.28 0.206c-0.079 0.086-0.14 0.188-0.18 0.298s-0.057 0.227-0.052 0.344c0.006 0.117 0.034 0.232 0.084 0.338s0.12 0.201 0.207 0.28c0.087 0.079 0.188 0.14 0.299 0.179s0.227 0.057 0.344 0.051h3.084c-0.288 4.594-2.794 8.955-7.085 11.433-1.971 1.138-4.099 1.757-6.224 1.889v-3.098c0.003-0.127-0.022-0.252-0.072-0.369s-0.124-0.221-0.217-0.306c-0.093-0.085-0.204-0.15-0.324-0.189s-0.248-0.053-0.373-0.039c-0.221 0.024-0.425 0.131-0.571 0.298s-0.225 0.383-0.22 0.605v3.084c-4.594-0.288-8.956-2.793-11.433-7.085-1.139-1.973-1.757-4.098-1.889-6.224h3.098c0.118 0.002 0.235-0.020 0.344-0.064s0.209-0.109 0.293-0.192c0.084-0.083 0.151-0.181 0.196-0.29s0.069-0.225 0.069-0.343c0-0.118-0.023-0.235-0.069-0.343s-0.112-0.207-0.196-0.29-0.183-0.148-0.293-0.192c-0.109-0.044-0.226-0.066-0.344-0.064h-3.084c0.291-4.59 2.797-8.958 7.085-11.433 1.971-1.138 4.099-1.743 6.224-1.875zM23.646 10.66c-0.047 0.001-0.093 0.006-0.139 0.014l-9.044 2.139c-0.169 0.038-0.324 0.125-0.445 0.25l-6.363 6.766c-0.129 0.139-0.211 0.316-0.232 0.505s0.018 0.379 0.113 0.544 0.24 0.295 0.414 0.371c0.174 0.076 0.368 0.095 0.553 0.053l9.044-2.139c0.169-0.038 0.324-0.125 0.445-0.25l6.363-6.765c0.119-0.131 0.196-0.294 0.222-0.469s-0.001-0.353-0.077-0.513c-0.076-0.159-0.198-0.293-0.35-0.383s-0.327-0.133-0.504-0.122v0zM21.020 13.092l-4.154 4.418-5.89 1.375 4.154-4.39 5.89-1.403zM15.894 15.106c-0.114 0.014-0.227 0.064-0.333 0.125-0.425 0.246-0.565 0.784-0.32 1.209s0.783 0.565 1.209 0.32c0.425-0.245 0.565-0.783 0.32-1.209-0.184-0.319-0.531-0.487-0.875-0.444z"></path>
</svg>
