<!-- Generated by IcoMoon.io -->
<svg version="1.1" xmlns="http://www.w3.org/2000/svg" width="32" height="32" viewBox="0 0 32 32">
<title>Document</title>
<path fill="#00acb9" d="M26.706 9.019l-6.725-6.725c-0.188-0.188-0.441-0.294-0.706-0.294h-13.275c-0.553 0-1 0.447-1 1v26c0 0.553 0.447 1 1 1h20c0.553 0 1-0.447 1-1v-19.272c0-0.266-0.106-0.522-0.294-0.709zM24.694 10.188h-5.881v-5.881l5.881 5.881zM24.75 27.75h-17.5v-23.5h9.437v6.75c0 0.348 0.138 0.682 0.384 0.928s0.58 0.384 0.928 0.384h6.75v15.437zM15.75 19.313h-5.75c-0.137 0-0.25 0.112-0.25 0.25v1.5c0 0.137 0.113 0.25 0.25 0.25h5.75c0.137 0 0.25-0.113 0.25-0.25v-1.5c0-0.137-0.113-0.25-0.25-0.25zM9.75 15.313v1.5c0 0.137 0.113 0.25 0.25 0.25h12c0.137 0 0.25-0.113 0.25-0.25v-1.5c0-0.137-0.113-0.25-0.25-0.25h-12c-0.137 0-0.25 0.113-0.25 0.25z"></path>
</svg>
