<!-- Generated by IcoMoon.io -->
<svg version="1.1" xmlns="http://www.w3.org/2000/svg" width="32" height="32" viewBox="0 0 32 32">
<title>DoubleArrow</title>
<path d="M31.13 15.051c0.478 0.46 0.502 1.21 0.072 1.699l-0.072 0.075-12.8 12.308c-0.49 0.471-1.269 0.456-1.74-0.034-0.446-0.464-0.456-1.188-0.039-1.663l0.073-0.077 11.878-11.421-11.878-11.421c-0.464-0.446-0.502-1.169-0.104-1.661l0.070-0.080c0.446-0.464 1.169-0.502 1.661-0.104l0.080 0.070 12.8 12.308z"></path>
<path d="M15.253 15.051c0.478 0.46 0.502 1.21 0.072 1.699l-0.072 0.075-12.8 12.308c-0.49 0.471-1.269 0.456-1.74-0.034-0.446-0.464-0.456-1.188-0.039-1.663l0.073-0.077 11.878-11.421-11.878-11.421c-0.464-0.446-0.502-1.169-0.104-1.661l0.070-0.080c0.446-0.464 1.169-0.502 1.661-0.104l0.080 0.070 12.8 12.308z"></path>
</svg>
