<!-- Generated by IcoMoon.io -->
<svg version="1.1" xmlns="http://www.w3.org/2000/svg" width="32" height="32" viewBox="0 0 32 32">
<title>Dropbox</title>
<path d="M9.187 24.953c-0.186 0-0.361-0.041-0.506-0.12l-2.221-1.201c-0.034-0.018-0.056-0.024-0.068-0.025-0.004 0.011-0.010 0.034-0.010 0.072v0.69c0 0.208 0.161 0.497 0.338 0.605l8.606 5.299v-10.020l-5.429 4.462c-0.183 0.151-0.443 0.238-0.711 0.238z"></path>
<path d="M9.332 23.464v0c0.129 0 0.257-0.042 0.335-0.109l4.681-4.063c0.042-0.036 0.064-0.076 0.062-0.108s-0.032-0.067-0.079-0.096l-8.36-5.075c-0.064-0.039-0.15-0.060-0.243-0.060-0.127 0-0.249 0.039-0.327 0.105l-4.873 4.136c-0.041 0.035-0.063 0.072-0.061 0.1s0.031 0.061 0.077 0.088l8.552 5.024c0.062 0.037 0.146 0.057 0.237 0.057z"></path>
<path d="M5.784 12.035c0.097 0 0.186-0.022 0.251-0.062l8.953-5.472c0.046-0.028 0.074-0.062 0.076-0.091s-0.021-0.067-0.063-0.101l-5.39-4.479c-0.077-0.064-0.198-0.102-0.324-0.102-0.095 0-0.184 0.022-0.249 0.062l-8.963 5.534c-0.046 0.028-0.074 0.062-0.076 0.091s0.022 0.066 0.063 0.1l5.394 4.419c0.078 0.064 0.2 0.102 0.327 0.102z"></path>
<path d="M31.924 7.324l-8.962-5.533c-0.065-0.040-0.153-0.062-0.249-0.062-0.125 0-0.246 0.038-0.323 0.102l-5.39 4.477c-0.041 0.034-0.065 0.072-0.063 0.101s0.031 0.063 0.076 0.091l8.952 5.472c0.066 0.040 0.155 0.062 0.251 0.062 0.127 0 0.249-0.038 0.327-0.102l5.392-4.418c0.041-0.034 0.065-0.071 0.063-0.1s-0.030-0.063-0.076-0.091z"></path>
<path d="M31.475 18.195l-4.874-4.137c-0.078-0.066-0.2-0.105-0.327-0.105-0.093 0-0.18 0.021-0.243 0.060l-8.359 5.075c-0.047 0.029-0.076 0.064-0.079 0.096s0.020 0.071 0.062 0.108l4.684 4.063c0.078 0.067 0.206 0.109 0.334 0.109 0.090 0 0.175-0.020 0.237-0.057l8.549-5.024c0.046-0.027 0.075-0.060 0.077-0.088s-0.020-0.065-0.061-0.1z"></path>
<path d="M25.54 23.632l-2.219 1.201c-0.145 0.079-0.32 0.12-0.506 0.12-0.268 0-0.528-0.086-0.711-0.237l-5.429-4.462v9.962c0 0.021 0.002 0.038 0.004 0.050 0.011-0.004 0.026-0.011 0.045-0.023l8.555-5.269c0.177-0.109 0.338-0.398 0.338-0.606v-0.69c0-0.038-0.006-0.060-0.010-0.071-0.013 0.002-0.035 0.007-0.068 0.025z"></path>
</svg>
