<!-- Generated by IcoMoon.io -->
<svg version="1.1" xmlns="http://www.w3.org/2000/svg" width="32" height="32" viewBox="0 0 32 32">
<title>Edit</title>
<path opacity="0.7" fill="#000" d="M26.285 16c-0.631 0-1.143 0.512-1.143 1.143v11.428c0 0.631-0.512 1.143-1.143 1.143h-20.571c-0.631 0-1.143-0.512-1.143-1.143v-22.857c0-0.631 0.512-1.143 1.143-1.143h13.714c0.631 0 1.143-0.512 1.143-1.143s-0.512-1.143-1.143-1.143h-13.714c-1.894 0-3.429 1.535-3.429 3.429v22.857c0 1.894 1.535 3.429 3.429 3.429h20.571c1.894 0 3.429-1.535 3.429-3.429v-11.428c0-0.631-0.512-1.143-1.143-1.143z"></path>
<path opacity="0.7" fill="#000" d="M30.719 1.282c-0.821-0.821-1.934-1.282-3.094-1.282-1.161-0.003-2.275 0.458-3.094 1.282l-15.054 15.052c-0.125 0.126-0.219 0.279-0.275 0.447l-2.286 6.857c-0.199 0.599 0.124 1.246 0.723 1.445 0.116 0.039 0.238 0.058 0.36 0.058s0.245-0.020 0.361-0.058l6.857-2.286c0.168-0.056 0.321-0.151 0.447-0.277l15.054-15.053c1.708-1.708 1.709-4.478 0-6.187z"></path>
</svg>
