<!-- Generated by IcoMoon.io -->
<svg version="1.1" xmlns="http://www.w3.org/2000/svg" width="32" height="32" viewBox="0 0 32 32">
<title>EditV2</title>
<path d="M28.5 15c-0.829 0-1.5 0.672-1.5 1.5v12.5h-24v-24h12.5c0.829 0 1.5-0.672 1.5-1.5s-0.671-1.5-1.5-1.5h-13.5c-1.104 0-2 0.896-2 2v26c0 1.104 0.896 2 2 2h26c1.104 0 2-0.896 2-2v-13.5c0-0.828-0.671-1.5-1.5-1.5zM14 20h-2v-2l14.5-14.5 2 2-14.5 14.5zM31.651 4.651l-4.302-4.302c-0.235-0.235-0.542-0.349-0.849-0.349-0.308 0-0.614 0.114-0.849 0.349l-16.651 16.651v6h6l16.651-16.651c0.235-0.235 0.349-0.542 0.349-0.849s-0.114-0.614-0.349-0.849z"></path>
</svg>
