<!-- Generated by IcoMoon.io -->
<svg version="1.1" xmlns="http://www.w3.org/2000/svg" width="32" height="32" viewBox="0 0 32 32">
<title>EnFlag</title>
<path fill="#f0f0f0" d="M0 5.333h32v21.334h-32v-21.334z"></path>
<path fill="#d80027" d="M18 5.333h-4v8.667h-14v4h14v8.667h4v-8.667h14v-4h-14z"></path>
<path fill="#0052b4" d="M24.612 19.71l7.388 4.105v-4.105z"></path>
<path fill="#0052b4" d="M19.478 19.71l12.522 6.957v-1.967l-8.981-4.989z"></path>
<path fill="#0052b4" d="M28.665 26.666l-9.186-5.104v5.104z"></path>
<path fill="#f0f0f0" d="M19.478 19.71l12.522 6.957v-1.967l-8.981-4.989z"></path>
<path fill="#d80027" d="M19.478 19.71l12.522 6.957v-1.967l-8.981-4.989z"></path>
<path fill="#0052b4" d="M5.646 19.71l-5.646 3.137v-3.137z"></path>
<path fill="#0052b4" d="M12.522 20.594v6.072h-10.929z"></path>
<path fill="#d80027" d="M8.981 19.71l-8.981 4.989v1.967l12.522-6.957z"></path>
<path fill="#0052b4" d="M7.388 12.29l-7.388-4.105v4.105z"></path>
<path fill="#0052b4" d="M12.522 12.29l-12.522-6.957v1.967l8.981 4.989z"></path>
<path fill="#0052b4" d="M3.335 5.333l9.186 5.104v-5.104z"></path>
<path fill="#f0f0f0" d="M12.522 12.29l-12.522-6.957v1.967l8.981 4.989z"></path>
<path fill="#d80027" d="M12.522 12.29l-12.522-6.957v1.967l8.981 4.989z"></path>
<path fill="#0052b4" d="M26.354 12.29l5.646-3.137v3.137z"></path>
<path fill="#0052b4" d="M19.478 11.405v-6.072h10.929z"></path>
<path fill="#d80027" d="M23.019 12.29l8.981-4.989v-1.967l-12.522 6.957z"></path>
</svg>
