<!-- Generated by IcoMoon.io -->
<svg version="1.1" xmlns="http://www.w3.org/2000/svg" width="32" height="32" viewBox="0 0 32 32">
<title>Envelop</title>
<path d="M31.555 6.908c0.278 0.436 0.445 0.95 0.445 1.504v0 15c0 1.551-1.262 2.813-2.813 2.813v0h-26.375c-1.551 0-2.813-1.262-2.813-2.813v0-15c0-0.554 0.167-1.068 0.445-1.504v0l14.993 11.629c0.167 0.125 0.364 0.188 0.562 0.188s0.395-0.062 0.562-0.188v0zM29.188 5.6c0.289 0 0.562 0.056 0.824 0.137v0l-14.012 10.878-14.011-10.878c0.262-0.081 0.535-0.137 0.824-0.137v0z"></path>
</svg>
