<!-- Generated by IcoMoon.io -->
<svg version="1.1" xmlns="http://www.w3.org/2000/svg" width="32" height="32" viewBox="0 0 32 32">
<title>Error</title>
<path fill="#fff" d="M16.063 0c-8.788 0-16.063 7.149-16.063 15.938s7.274 16.063 16.063 16.063c8.788 0 15.937-7.274 15.937-16.063s-7.149-15.938-15.937-15.938zM23.951 21.174c0.731 0.731 0.731 1.921 0 2.652-0.726 0.725-1.915 0.737-2.652 0l-5.236-5.238-5.362 5.239c-0.731 0.731-1.921 0.731-2.652 0s-0.731-1.921 0-2.652l5.238-5.238-5.238-5.238c-0.731-0.732-0.731-1.921 0-2.652s1.921-0.731 2.652 0l5.362 5.239 5.236-5.239c0.73-0.73 1.919-0.732 2.652 0 0.731 0.731 0.731 1.921 0 2.652l-5.237 5.238 5.237 5.237z"></path>
</svg>
