<!-- Generated by IcoMoon.io -->
<svg version="1.1" xmlns="http://www.w3.org/2000/svg" width="32" height="32" viewBox="0 0 32 32">
<title>Expand</title>
<path fill="#fff" d="M16 32c8.825 0 16-7.175 16-16s-7.175-16-16-16c-8.825 0-16 7.175-16 16s7.175 16 16 16zM16 2.291c7.545 0 13.709 6.131 13.709 13.709s-6.164 13.709-13.709 13.709-13.709-6.164-13.709-13.709c0-7.545 6.164-13.709 13.709-13.709z"></path>
<path fill="#fff" d="M15.192 20.547c0.202 0.202 0.505 0.337 0.808 0.337s0.606-0.135 0.808-0.337l6.164-6.164c0.438-0.438 0.438-1.179 0-1.617s-1.179-0.438-1.617 0l-5.356 5.322-5.322-5.322c-0.236-0.236-0.505-0.337-0.808-0.337s-0.606 0.101-0.808 0.337c-0.438 0.438-0.438 1.179 0 1.617l6.131 6.164z"></path>
</svg>
