<!-- Generated by IcoMoon.io -->
<svg version="1.1" xmlns="http://www.w3.org/2000/svg" width="32" height="32" viewBox="0 0 32 32">
<title>ExpertManagement</title>
<path fill="#fff" d="M25.032 20.679c-1.267 1.741-3.32 2.874-5.633 2.874h-3.245c-1.121 0-2.076-0.712-2.437-1.708-0.446-0.133-0.884-0.306-1.311-0.518-0.904-0.449-1.725-1.058-2.448-1.812-4.689 1.030-8.198 5.208-8.198 10.206v0.653c0 0.898 0.728 1.626 1.626 1.626h25.229c0.898 0 1.626-0.728 1.626-1.626v-0.653c0-3.861-2.094-7.233-5.209-9.042z"></path>
<path fill="#fff" d="M8.229 16.163c0.699 0 1.307-0.387 1.622-0.959 0.008 0.023 0.017 0.045 0.025 0.068 0.002 0.007 0.005 0.014 0.008 0.020 0.739 1.946 2.178 3.577 4.075 4.29 0.459-0.729 1.27-1.214 2.195-1.214h3.245c0.324 0 0.625-0.091 0.889-0.239 0.443-0.248 0.842-0.877 1.048-1.211 0.33-0.534 0.585-1.099 0.811-1.715 0.127 0.231 0.302 0.432 0.512 0.59v0.796c0 1.798-1.463 3.261-3.261 3.261h-3.245c-0.614 0-1.111 0.497-1.111 1.111s0.497 1.111 1.111 1.111h3.245c3.023 0 5.483-2.46 5.483-5.483v-0.796c0.45-0.338 0.741-0.876 0.741-1.481v-4.634c0-0.618-0.303-1.165-0.769-1.501-0.361-4.569-4.194-8.176-8.854-8.176s-8.493 3.607-8.854 8.176c-0.466 0.336-0.769 0.883-0.769 1.501v4.634c0 1.026 0.833 1.852 1.852 1.852zM16.001 2.222c3.45 0 6.295 2.636 6.627 6-0.218 0.172-0.397 0.391-0.52 0.643-1.048-2.735-3.388-4.639-6.107-4.639-2.777 0-5.080 1.97-6.103 4.628-0.001 0.004-0.003 0.007-0.004 0.011-0.123-0.252-0.302-0.471-0.52-0.643 0.333-3.364 3.178-6 6.628-6z"></path>
</svg>
