<!-- Generated by IcoMoon.io -->
<svg version="1.1" xmlns="http://www.w3.org/2000/svg" width="32" height="32" viewBox="0 0 32 32">
<title>Eye</title>
<path fill="#b6b6b6" d="M31.881 15.621c-0.252-0.367-6.308-8.955-15.882-8.955-8.215 0-15.535 8.539-15.843 8.903-0.209 0.248-0.209 0.612 0 0.861 0.308 0.364 7.628 8.903 15.843 8.903s15.535-8.539 15.843-8.903c0.193-0.229 0.211-0.561 0.039-0.809zM16 24c-6.585 0-12.847-6.28-14.438-8 1.588-1.721 7.843-8 14.438-8 7.706 0 13.144 6.271 14.472 7.964-1.533 1.665-7.831 8.036-14.472 8.036z"></path>
<path fill="#b6b6b6" d="M15.999 10.667c-2.941 0-5.333 2.392-5.333 5.333s2.392 5.333 5.333 5.333c2.941 0 5.333-2.392 5.333-5.333s-2.392-5.333-5.333-5.333zM15.999 20c-2.205 0-4-1.795-4-4s1.795-4 4-4c2.205 0 4 1.795 4 4s-1.795 4-4 4z"></path>
</svg>
