<!-- Generated by IcoMoon.io -->
<svg version="1.1" xmlns="http://www.w3.org/2000/svg" width="32" height="32" viewBox="0 0 32 32">
<title>Fax</title>
<path d="M29 8h-4c-1.657 0-3 1.343-3 3v1h-2v-12h-11.414l-6.586 6.586v5.414h-2v16c0 2.209 1.791 4 4 4h25c1.657 0 3-1.343 3-3v-18c0-1.657-1.343-3-3-3zM8 3.414v2.586h-2.586l2.586-2.586zM4 8h6v-6h8v10h-14v-4zM22 30h-18c-1.105 0-2-0.895-2-2v-14h20v16zM30 29c0 0.552-0.448 1-1 1h-5v-19c0-0.552 0.448-1 1-1h4c0.552 0 1 0.448 1 1v18z"></path>
<path d="M5 16h14v2h-14v-2z"></path>
<path d="M5 20h2v2h-2v-2z"></path>
<path d="M9 20h2v2h-2v-2z"></path>
<path d="M13 20h2v2h-2v-2z"></path>
<path d="M17 20h2v2h-2v-2z"></path>
<path d="M5 24h2v2h-2v-2z"></path>
<path d="M9 24h2v2h-2v-2z"></path>
<path d="M13 24h2v2h-2v-2z"></path>
<path d="M17 24h2v2h-2v-2z"></path>
</svg>
