<!-- Generated by IcoMoon.io -->
<svg version="1.1" xmlns="http://www.w3.org/2000/svg" width="27" height="32" viewBox="0 0 27 32">
<title>Flags</title>
<path d="M25.031 3.867c-0.308-0.168-0.688-0.168-0.996 0-1.192 0.62-2.534 0.941-3.897 0.933-1.993 0.041-3.919-0.67-5.347-1.973-1.649-1.513-3.877-2.339-6.184-2.293-1.857-0.015-3.673 0.514-5.194 1.515v-0.448c0-0.884-0.764-1.6-1.707-1.6s-1.707 0.716-1.707 1.6v28.8c0 0.884 0.764 1.6 1.707 1.6s1.707-0.716 1.707-1.6v-13.867c0.189-0.017 0.368-0.083 0.518-0.192 1.353-0.934 2.995-1.429 4.676-1.408 1.996-0.043 3.927 0.668 5.359 1.973 1.645 1.511 3.87 2.337 6.172 2.293 1.765 0.019 3.495-0.454 4.972-1.36 0.316-0.205 0.5-0.546 0.489-0.907v-12.133c0.004-0.385-0.214-0.741-0.569-0.933z"></path>
</svg>
