<!-- Generated by IcoMoon.io -->
<svg version="1.1" xmlns="http://www.w3.org/2000/svg" width="32" height="32" viewBox="0 0 32 32">
<title>FlagFilledVN</title>
<path fill="#da251d" d="M28.444 4.445h-24.889c-0.943 0-1.847 0.375-2.514 1.041s-1.041 1.571-1.041 2.514v16c0 0.943 0.375 1.847 1.041 2.514s1.571 1.041 2.514 1.041h24.889c0.943 0 1.847-0.375 2.514-1.041s1.041-1.571 1.041-2.514v-16c0-0.943-0.375-1.847-1.041-2.514s-1.571-1.041-2.514-1.041z"></path>
<path fill="#ff0" d="M17.558 14.255l-1.558-4.796-1.558 4.796h-5.042l4.079 2.963-1.558 4.796 4.079-2.964 4.079 2.964-1.558-4.796 4.079-2.963h-5.042z"></path>
</svg>
