<!-- Generated by IcoMoon.io -->
<svg version="1.1" xmlns="http://www.w3.org/2000/svg" width="32" height="32" viewBox="0 0 32 32">
<title>Folder</title>
<path d="M30.731 8.654c-0.846-0.846-1.859-1.269-3.038-1.269h-12.923v-0.615c0-1.179-0.423-2.192-1.269-3.038s-1.859-1.269-3.039-1.269h-6.154c-1.18 0-2.193 0.423-3.039 1.269s-1.269 1.859-1.269 3.038v18.462c0 1.179 0.423 2.192 1.269 3.038s1.859 1.27 3.039 1.27h23.385c1.18 0 2.193-0.423 3.038-1.27s1.269-1.859 1.269-3.038v-13.538c0-1.18-0.423-2.192-1.269-3.039zM29.538 25.231c0 0.513-0.179 0.949-0.538 1.308s-0.795 0.538-1.308 0.538h-23.385c-0.513 0-0.949-0.179-1.308-0.538s-0.538-0.795-0.538-1.308v-18.461c0-0.513 0.179-0.949 0.538-1.308s0.795-0.538 1.308-0.538h6.154c0.513 0 0.949 0.179 1.308 0.538s0.538 0.795 0.538 1.308v1.231c0 0.513 0.179 0.949 0.538 1.308s0.795 0.538 1.308 0.538h13.538c0.513 0 0.949 0.18 1.308 0.538s0.538 0.795 0.538 1.308v13.538z"></path>
</svg>
