<!-- Generated by IcoMoon.io -->
<svg version="1.1" xmlns="http://www.w3.org/2000/svg" width="32" height="32" viewBox="0 0 32 32">
<title>FolderFilledV2</title>
<path d="M30.731 8.654c-0.846-0.846-1.859-1.269-3.038-1.269h-12.923v-0.615c0-1.179-0.423-2.192-1.269-3.038s-1.859-1.269-3.039-1.269h-6.154c-1.18 0-2.193 0.423-3.039 1.269s-1.269 1.859-1.269 3.038v18.462c0 1.179 0.423 2.192 1.269 3.038s1.859 1.27 3.039 1.27h23.385c1.18 0 2.193-0.423 3.038-1.27s1.269-1.859 1.269-3.038v-13.538c0-1.18-0.423-2.192-1.269-3.039z"></path>
</svg>
