<!-- Generated by IcoMoon.io -->
<svg version="1.1" xmlns="http://www.w3.org/2000/svg" width="32" height="32" viewBox="0 0 32 32">
<title>Furniture</title>
<path fill="#0e3556" opacity="0.8" d="M8.938 20.308h14.083l1.5-14.385c0.194-1.885-0.090-3.343-0.854-4.375s-1.986-1.548-3.667-1.548h-8c-1.681 0-2.91 0.516-3.688 1.548s-1.069 2.49-0.875 4.375l1.5 14.385zM21.333 25.846h-10.667v4.846c0 0.359-0.128 0.667-0.385 0.923s-0.573 0.385-0.948 0.385h-2.667c-0.375 0-0.691-0.115-0.948-0.346s-0.385-0.526-0.385-0.885l-0.021-5.212c-0.486-0.192-0.913-0.439-1.281-0.74s-0.667-0.67-0.896-1.106c-0.229-0.436-0.417-0.869-0.563-1.298s-0.253-0.961-0.323-1.596c-0.069-0.635-0.115-1.208-0.135-1.721s-0.031-1.154-0.031-1.923c-0.611-0.115-1.111-0.388-1.5-0.817s-0.583-0.958-0.583-1.587c0-0.705 0.267-1.292 0.802-1.76s1.365-0.702 2.49-0.702c0.486 0 0.899 0.064 1.24 0.192s0.622 0.33 0.844 0.606c0.222 0.276 0.389 0.519 0.5 0.731s0.236 0.51 0.375 0.894l0.813 6.365c0.111 0.526 0.222 0.827 0.333 0.904 0.139 0.103 0.444 0.154 0.917 0.154h15.333c0.514 0 0.823-0.051 0.927-0.154s0.212-0.404 0.323-0.904l0.812-6.365c0.139-0.385 0.264-0.683 0.375-0.894s0.278-0.455 0.5-0.731 0.504-0.478 0.844-0.606c0.34-0.128 0.753-0.192 1.24-0.192 1.125 0 1.962 0.234 2.51 0.702s0.823 1.054 0.823 1.76c0 0.615-0.198 1.141-0.594 1.577s-0.906 0.712-1.531 0.827c0 0.782-0.010 1.426-0.031 1.933s-0.066 1.083-0.135 1.731c-0.069 0.648-0.174 1.189-0.312 1.625s-0.323 0.875-0.552 1.317c-0.229 0.442-0.528 0.814-0.896 1.115s-0.795 0.548-1.281 0.74v5.135c0 0.359-0.128 0.654-0.385 0.885s-0.573 0.346-0.948 0.346h-2.667c-0.375 0-0.691-0.115-0.948-0.346s-0.385-0.526-0.385-0.885v-4.923z"></path>
</svg>
