<!-- Generated by IcoMoon.io -->
<svg version="1.1" xmlns="http://www.w3.org/2000/svg" width="32" height="32" viewBox="0 0 32 32">
<title>Gold</title>
<path d="M28.469 16.679c-0.059 0.584-0.272 1.142-0.615 1.618-0.549 0.737-1.261 1.335-2.081 1.749s-1.725 0.63-2.644 0.633h-10.592v2.076c0 2.325 2.265 4.302 4.64 5.013 0.928 0.278 1.917 0.278 2.845 0 2.358-0.795 4.424-2.278 5.93-4.259s2.385-4.368 2.521-6.852l-0.003 0.021z"></path>
<path d="M17.177 27.762c-2.375-0.711-4.64-2.688-4.64-5.013v-6.66c0-0.91-0.96-1.422-2.219-1.97-1.458 1.017-5.273 3.499-5.255 6.706 0.016 0.682 0.213 1.348 0.569 1.931l0.128 0.206c1.324 1.989 3.212 3.537 5.422 4.444l0.412 0.163c2.046 0.787 4.264 1.016 6.428 0.665h0.043l0.192-0.035c0.587-0.105 1.166-0.252 1.732-0.441-0.917 0.273-1.894 0.274-2.813 0.003z"></path>
<path d="M12.732 7.556c-0.84-0.631-1.869-0.957-2.919-0.924-0.454 0.024-0.904 0.1-1.34 0.228l-0.252 0.082-0.060 0.021c-0.092 0.032-0.185 0.071-0.274 0.11h-0.028c-0.598 0.271-1.132 0.665-1.568 1.156-1.624 2.052-2.56 4.564-2.674 7.179s0.599 5.199 2.037 7.385c-0.007-0.010-0.013-0.021-0.018-0.032-0.359-0.582-0.557-1.25-0.572-1.934-0.018-3.2 3.794-5.689 5.252-6.702l5.806-4.107-3.388-2.46z"></path>
<path d="M19.687 20.679v-4.59c0-0.889 0.91-1.39 2.133-1.927 2.062-1.262 4.953-5.198 2.585-7.406 1.287 1.162 2.316 2.581 3.020 4.165s1.068 3.299 1.069 5.033c0 0.21 0 0.416 0 0.626 0.002 0.026 0.002 0.052 0 0.078 0 0 0 0 0 0.021-0.059 0.584-0.272 1.142-0.615 1.618-0.545 0.738-1.255 1.338-2.074 1.751s-1.723 0.628-2.641 0.628h-3.477v0.004z"></path>
<path d="M24.405 6.756c-1.266-1.145-2.754-2.018-4.371-2.563s-3.33-0.753-5.030-0.608c-1.701 0.144-3.354 0.637-4.856 1.448s-2.822 1.921-3.876 3.263c0.588-0.678 1.36-1.172 2.222-1.422 0.715-0.238 1.478-0.298 2.222-0.174s1.446 0.428 2.045 0.885l9.102 6.592c2.037-1.305 4.903-5.22 2.542-7.42z"></path>
</svg>
