<!-- Generated by IcoMoon.io -->
<svg version="1.1" xmlns="http://www.w3.org/2000/svg" width="32" height="32" viewBox="0 0 32 32">
<title>Google</title>
<path d="M26.489 0h-8.66c-2.269 0-5.127 0.335-7.523 2.308-1.81 1.555-2.69 3.695-2.69 5.628 0 3.275 2.522 6.594 6.978 6.594 0.42 0 0.881-0.043 1.347-0.084-0.21 0.502-0.423 0.922-0.423 1.637 0 1.302 0.673 2.099 1.261 2.855-1.889 0.125-5.422 0.335-8.030 1.93-2.48 1.473-3.238 3.612-3.238 5.125 0 3.108 2.943 6.007 9.039 6.007 7.231 0 11.057-3.989 11.057-7.94 0-2.895-1.681-4.325-3.531-5.879l-1.514-1.175c-0.46-0.379-1.091-0.881-1.091-1.806 0-0.923 0.63-1.513 1.176-2.058 1.765-1.385 3.532-2.855 3.532-5.963 0-3.193-2.020-4.873-2.985-5.67h2.608l2.687-1.509zM22.792 25.699c0 2.603-2.145 4.534-6.181 4.534-4.497 0-7.399-2.142-7.399-5.122 0-2.984 2.691-3.989 3.615-4.325 1.767-0.589 4.036-0.672 4.414-0.672 0.421 0 0.631 0 0.969 0.041 3.196 2.267 4.583 3.403 4.583 5.544zM19.428 12.177c-0.673 0.671-1.809 1.175-2.86 1.175-3.614 0-5.252-4.662-5.252-7.475 0-1.092 0.21-2.225 0.924-3.108 0.673-0.84 1.849-1.386 2.943-1.386 3.489 0 5.297 4.704 5.297 7.726 0 0.757-0.086 2.1-1.051 3.067z"></path>
</svg>
