<!-- Generated by IcoMoon.io -->
<svg version="1.1" xmlns="http://www.w3.org/2000/svg" width="32" height="32" viewBox="0 0 32 32">
<title>GooglePlusFilled</title>
<path d="M31.238 13.906h-2.011v-2.011c0-0.421-0.341-0.762-0.762-0.762h-2.714c-0.421 0-0.762 0.341-0.762 0.762v2.011h-2.011c-0.421 0-0.762 0.341-0.762 0.762v2.714c0 0.421 0.341 0.762 0.762 0.762h2.011v2.011c0 0.421 0.341 0.762 0.762 0.762h2.714c0.421 0 0.762-0.341 0.762-0.762v-2.011h2.011c0.421 0 0.762-0.341 0.762-0.762v-2.714c0-0.421-0.341-0.762-0.762-0.762z"></path>
<path d="M10.352 10.581c0.923 0 1.811 0.249 2.568 0.72l0.865 0.592c0.301 0.206 0.707 0.17 0.966-0.087l2.522-2.499c0.161-0.16 0.243-0.383 0.223-0.61s-0.141-0.432-0.328-0.56l-1.466-1.005c-0.030-0.020-0.061-0.039-0.094-0.055l-1.42-0.701c-0.019-0.009-0.038-0.018-0.057-0.026-1.223-0.483-2.512-0.728-3.831-0.728-2.718 0-5.282 1.043-7.22 2.937-1.967 1.923-3.062 4.539-3.080 7.365s1.040 5.457 2.982 7.407c1.927 1.935 4.661 3.045 7.501 3.045 2.81 0 5.446-1.091 7.232-2.993 1.415-1.507 2.284-3.519 2.512-5.82 0.002-0.022 0.003-0.044 0.004-0.066l0.026-2.067c0.001-0.043-0.002-0.085-0.009-0.128l-0.111-0.706c-0.058-0.371-0.378-0.644-0.753-0.644h-8.805c-0.421 0-0.762 0.341-0.762 0.762v3.046c0 0.421 0.341 0.762 0.762 0.762h4.489c-0.206 0.451-0.53 0.926-0.94 1.37-0.894 0.967-2.227 1.521-3.658 1.521-1.461 0-2.86-0.573-3.839-1.571-2.037-2.077-2.014-5.697 0.050-7.746 0.971-0.964 2.309-1.517 3.671-1.517z"></path>
</svg>
