<!-- Generated by IcoMoon.io -->
<svg version="1.1" xmlns="http://www.w3.org/2000/svg" width="31" height="32" viewBox="0 0 31 32">
<title>GreyStar</title>
<path fill="#cbcbcb" d="M30.733 11.064c-0.097-0.285-0.275-0.536-0.513-0.721s-0.524-0.297-0.825-0.321l-8.784-0.698-3.801-8.414c-0.121-0.271-0.318-0.501-0.567-0.663s-0.539-0.248-0.836-0.248c-0.297-0-0.587 0.086-0.836 0.247s-0.446 0.391-0.568 0.662l-3.801 8.416-8.784 0.698c-0.295 0.023-0.577 0.131-0.813 0.311s-0.414 0.423-0.515 0.701c-0.101 0.278-0.119 0.58-0.053 0.868s0.214 0.552 0.426 0.759l6.491 6.328-2.296 9.941c-0.070 0.301-0.047 0.616 0.064 0.904s0.307 0.536 0.561 0.712c0.254 0.176 0.555 0.271 0.864 0.273s0.611-0.088 0.868-0.26l8.389-5.593 8.389 5.593c0.262 0.174 0.572 0.264 0.887 0.257s0.62-0.11 0.875-0.296 0.446-0.445 0.549-0.742c0.103-0.298 0.112-0.62 0.027-0.923l-2.818-9.861 6.989-6.289c0.458-0.413 0.626-1.057 0.428-1.641z"></path>
</svg>
