<!-- Generated by IcoMoon.io -->
<svg version="1.1" xmlns="http://www.w3.org/2000/svg" width="34" height="32" viewBox="0 0 34 32">
<title>HeadlineTwo</title>
<path fill="#696969" d="M18.538 0.096c0.192-0.128 0.442-0.128 0.634 0v0l5.397 3.6v-1.408c0-0.316 0.256-0.571 0.571-0.571v0h2.857c0.316 0 0.571 0.256 0.571 0.571v0 4h-0.114l3.901 2.6c0.809 0.539 1.027 1.632 0.488 2.441s-1.632 1.027-2.441 0.488v0l-1.835-1.223v13.546c0.454 0.229 0.808 0.617 0.995 1.090 0.21 0.529 0.198 1.12-0.033 1.64-0.224 0.513-0.644 0.914-1.167 1.112v0l-8.826 3.366c-2.346 0.898-4.946 0.869-7.271-0.081v0l-4.266-1.771v0.218c0 0.316-0.256 0.571-0.571 0.571v0h-4.571c-0.316 0-0.571-0.256-0.571-0.571v0h-2.285v-1.143h2.285v-5.714h-2.285v-1.143h2.285c0-0.316 0.256-0.571 0.571-0.571v0h4.571c0.316 0 0.571 0.256 0.571 0.571v0h1.143v-11.121l-1.835 1.223c-0.809 0.539-1.901 0.321-2.441-0.488s-0.321-1.901 0.488-2.441v0zM9.447 22.856h-1.448v5.401l4.698 1.953c2.056 0.839 4.355 0.864 6.429 0.069v0l8.826-3.365c0.237-0.091 0.428-0.274 0.529-0.507 0.107-0.241 0.113-0.514 0.015-0.759-0.092-0.24-0.278-0.432-0.514-0.532-0.228-0.097-0.485-0.097-0.712 0v0l-4.777 2.028c-0.417 0.177-0.865 0.272-1.319 0.279-0.012 0-0.023 0.003-0.034 0.003v0h-6.856v-1.143h6.821c0.076 0 0.149-0.015 0.224-0.022 0.386-0.090 0.66-0.433 0.663-0.829 0.003-0.473-0.378-0.859-0.851-0.863v0h-4.432c-0.626-0-1.243-0.146-1.803-0.426-1.696-0.845-3.564-1.286-5.458-1.288v0zM6.856 22.285h-3.428v6.856h3.428v-6.856zM5.714 26.856v1.143h-1.143v-1.143h1.143zM18.855 4.116l-8.57 5.714v11.913c1.786 0.113 3.531 0.583 5.132 1.38 0.401 0.2 0.843 0.304 1.292 0.305v0h4.432c1.104 0 2 0.895 2 2-0.003 0.070-0.010 0.14-0.021 0.209v0l3.705-1.573c0.192-0.078 0.395-0.127 0.602-0.145v0-14.090l-8.57-5.714zM22.283 16.571c1.262 0 2.285 1.023 2.285 2.285s-1.023 2.285-2.285 2.285c-1.262 0-2.285-1.023-2.285-2.285s1.023-2.285 2.285-2.285zM23.021 10.454l0.808 0.808-9.142 9.142-0.808-0.808 9.142-9.142zM22.283 17.714c-0.631 0-1.143 0.512-1.143 1.143s0.512 1.143 1.143 1.143c0.631 0 1.143-0.512 1.143-1.143s-0.512-1.143-1.143-1.143zM15.427 9.715c1.262 0 2.285 1.023 2.285 2.285s-1.023 2.285-2.285 2.285c-1.262 0-2.285-1.023-2.285-2.285s1.023-2.285 2.285-2.285zM15.427 10.858c-0.631 0-1.143 0.512-1.143 1.143s0.512 1.143 1.143 1.143c0.631 0 1.143-0.512 1.143-1.143s-0.512-1.143-1.143-1.143zM18.855 1.259l-12.867 8.577c-0.172 0.114-0.275 0.308-0.275 0.514 0 0.122 0.036 0.241 0.104 0.342 0.189 0.284 0.572 0.361 0.856 0.172v0l11.864-7.91c0.192-0.128 0.442-0.128 0.634 0v0l11.864 7.911c0.101 0.068 0.22 0.104 0.342 0.104 0.341 0 0.618-0.277 0.618-0.618 0-0.207-0.103-0.4-0.275-0.514v0l-12.866-8.578zM27.425 2.859h-1.714v1.6l1.714 1.143v-2.743z"></path>
</svg>
