<!-- Generated by IcoMoon.io -->
<svg version="1.1" xmlns="http://www.w3.org/2000/svg" width="32" height="32" viewBox="0 0 32 32">
<title>HeadlineThree</title>
<path fill="#696969" d="M12.845 5.468c0.498-0.454 1.286-0.375 1.918-0.255v0l4.14 0.784c0.632-0.067 1.288 0.14 1.772 0.621 0.581 0.582 0.764 1.413 0.55 2.151 0.4 0.083 0.782 0.28 1.092 0.589 0.411 0.409 0.637 0.956 0.637 1.539 0 0.21-0.030 0.415-0.087 0.611 0.412 0.085 0.79 0.287 1.093 0.591 0.41 0.408 0.636 0.955 0.636 1.538 0 0.21-0.030 0.415-0.087 0.611 0.412 0.085 0.79 0.287 1.093 0.591 0.847 0.846 0.848 2.227 0 3.076v0l-0.102 0.102 2.089 2.087c0.305-0.167 0.649-0.256 1.007-0.256 0.56 0 1.086 0.217 1.48 0.611v0l1.109 1.106c0.395 0.395 0.612 0.92 0.612 1.481s-0.217 1.086-0.612 1.48v0l-6.727 6.719c-0.394 0.394-0.92 0.611-1.48 0.611s-1.086-0.217-1.48-0.611v0l-1.109-1.108c-0.395-0.394-0.612-0.92-0.612-1.48 0-0.358 0.089-0.701 0.256-1.005v0l-2.575-2.572c-0.561 0.065-1.136 0.025-1.651-0.011v0l-0.362-0.024c-0.6-0.035-1.158-0.032-1.382 0.2v0l-0.008 0.008-2.352 2.349c0.207 0.329 0.318 0.711 0.318 1.111 0 0.561-0.217 1.086-0.612 1.481v0l-1.109 1.108c-0.408 0.407-0.945 0.61-1.481 0.61s-1.071-0.203-1.479-0.609v0l-1.386-1.386c-0.245-0.245-0.245-0.642 0-0.888s0.642-0.245 0.888 0v0l1.385 1.385c0.326 0.325 0.859 0.325 1.187-0.001v0l1.108-1.107c0.157-0.157 0.244-0.367 0.244-0.592 0-0.207-0.074-0.402-0.209-0.554-0.064-0.030-0.124-0.071-0.177-0.124-0.054-0.054-0.096-0.116-0.126-0.182v0l-6.363-6.353c-0.065-0.030-0.127-0.072-0.18-0.125-0.030-0.030-0.056-0.063-0.079-0.097-0.322-0.193-0.747-0.151-1.024 0.126v0l-1.11 1.106c-0.157 0.157-0.243 0.367-0.243 0.592s0.087 0.435 0.244 0.592v0l1.385 1.383c0.245 0.245 0.245 0.642 0.001 0.888s-0.642 0.245-0.888 0v0l-1.385-1.383c-0.395-0.394-0.612-0.92-0.612-1.481s0.217-1.086 0.612-1.48v0l1.109-1.106c0.641-0.64 1.598-0.777 2.374-0.411v0l2.090-2.086-0.101-0.101c-0.849-0.851-0.849-2.231-0.001-3.078 0.239-0.239 0.524-0.415 0.836-0.52-0.247-0.359-0.38-0.784-0.38-1.23 0-0.582 0.226-1.129 0.637-1.54 0.303-0.302 0.68-0.504 1.092-0.589-0.057-0.196-0.087-0.402-0.087-0.612 0-0.582 0.227-1.128 0.638-1.537 0.302-0.302 0.679-0.504 1.091-0.589-0.057-0.196-0.086-0.401-0.086-0.611 0-0.583 0.226-1.129 0.636-1.539 0.618-0.617 1.518-0.785 2.29-0.504 0.032-0.037 0.064-0.070 0.095-0.098zM28.596 21.101c-0.225 0-0.436 0.087-0.593 0.244v0l-6.727 6.719c-0.157 0.157-0.244 0.367-0.244 0.591s0.087 0.434 0.244 0.591v0l1.109 1.108c0.157 0.157 0.368 0.244 0.593 0.244s0.436-0.087 0.593-0.244v0l6.727-6.719c0.157-0.157 0.244-0.367 0.244-0.592s-0.087-0.435-0.244-0.592v0l-1.109-1.106c-0.158-0.158-0.368-0.244-0.594-0.244zM3.859 26.998c0.243-0.247 0.64-0.251 0.888-0.008s0.251 0.641 0.008 0.888c-0.123 0.125-0.286 0.188-0.448 0.188-0.158 0-0.317-0.060-0.439-0.18v0c-0.249-0.245-0.252-0.642-0.009-0.889zM19.127 7.239l-0.119 0.009c-0.018 0.004-0.037 0.007-0.055 0.009-0.173 0.034-0.337 0.118-0.471 0.251v0l-1.793 1.792c0.207 0.337 0.317 0.727 0.317 1.135 0 0.583-0.226 1.129-0.636 1.539s-0.956 0.636-1.539 0.636v0l-0.017-0c0.004 0.563-0.207 1.126-0.635 1.555-0.412 0.41-0.959 0.635-1.541 0.635v0l-0.017-0 0 0.016c0 0.583-0.227 1.13-0.638 1.539-0.409 0.409-0.956 0.634-1.538 0.634v0l-0.016-0c0 0.005 0 0.011 0 0.016 0 0.583-0.227 1.13-0.638 1.539-0.409 0.409-0.955 0.635-1.539 0.635-0.408 0-0.798-0.111-1.137-0.318v0l-2.046 2.042 5.781 5.773 2.312-2.309c0.676-0.694 1.72-0.621 2.729-0.551 0.93 0.064 1.891 0.131 2.422-0.399v0l0.558-0.558c0.245-0.245 0.643-0.245 0.888 0.001s0.245 0.643-0.001 0.888v0l-0.558 0.557c-0.13 0.13-0.268 0.239-0.412 0.332v0l2.071 2.069 5.781-5.774-2.030-2.028-0.424 0.423c-0.123 0.122-0.283 0.184-0.444 0.184s-0.322-0.061-0.444-0.184c-0.245-0.245-0.245-0.643 0.001-0.888v0l0.866-0.865c0.001-0.001 0.001-0.001 0.001-0.001l0.546-0.545c0.358-0.359 0.359-0.943 0-1.301-0.173-0.174-0.405-0.269-0.652-0.269s-0.479 0.095-0.652 0.268c-0.003 0.003-0.006 0.006-0.009 0.009v0l-0.537 0.537c-0.123 0.123-0.283 0.184-0.444 0.184s-0.321-0.061-0.444-0.184c-0.245-0.245-0.245-0.642-0-0.888v0l1.095-1.095c0.174-0.173 0.269-0.404 0.269-0.651s-0.095-0.478-0.268-0.65c-0.174-0.174-0.405-0.269-0.653-0.269s-0.479 0.095-0.652 0.268v0l-0.632 0.629c-0.246 0.245-0.643 0.244-0.888-0.002s-0.244-0.643 0.002-0.888v0l0.629-0.626c0-0 0-0 0-0v0l0.549-0.55c0.174-0.174 0.27-0.404 0.27-0.651s-0.095-0.478-0.268-0.65c-0.36-0.359-0.943-0.36-1.303-0.003v0l-0.083 0.083-0.548 0.548c-0.245 0.245-0.643 0.245-0.888-0.001s-0.245-0.643 0.001-0.888v0l0.629-0.628c0.002-0.002 0.004-0.003 0.006-0.005v0l0.546-0.544c0.358-0.358 0.358-0.943-0.001-1.303-0.212-0.211-0.503-0.297-0.78-0.258zM21.014 20.766c0.309-0.156 0.687-0.032 0.843 0.278s0.032 0.687-0.278 0.843c-0.091 0.046-0.188 0.068-0.283 0.068-0.23 0-0.451-0.126-0.562-0.344-0.156-0.309-0.033-0.686 0.276-0.842v0zM7.624 15.456c-0.248 0-0.48 0.095-0.653 0.269-0.359 0.358-0.358 0.942 0.001 1.302v0l0.629 0.627c0.174 0.174 0.405 0.269 0.653 0.269s0.479-0.095 0.652-0.268c0.174-0.174 0.27-0.404 0.27-0.651s-0.095-0.478-0.268-0.65v0l-0.63-0.629c-0.174-0.173-0.405-0.269-0.653-0.269zM8.716 12.168c-0.248 0-0.48 0.095-0.652 0.268s-0.269 0.405-0.269 0.651c0 0.247 0.095 0.478 0.269 0.651v0l1.1 1.098c0 0 0 0 0 0v0l0.629 0.628c0.173 0.172 0.405 0.268 0.653 0.268s0.479-0.095 0.652-0.268c0.174-0.173 0.269-0.404 0.269-0.65s-0.095-0.478-0.268-0.65v0l-1.734-1.734c-0.172-0.17-0.402-0.263-0.648-0.263zM10.358 9.429c-0.247 0-0.478 0.095-0.651 0.268-0.174 0.173-0.269 0.404-0.27 0.65s0.095 0.478 0.269 0.652v0l2.278 2.277 0.091 0.080c0.16 0.122 0.355 0.188 0.562 0.188 0.248 0 0.48-0.095 0.654-0.268 0.358-0.358 0.358-0.943-0.001-1.303v0l-2.279-2.275c-0.174-0.174-0.406-0.269-0.653-0.269zM12.518 6.847c-0.359-0.243-0.853-0.207-1.171 0.111-0.173 0.172-0.268 0.403-0.268 0.651s0.095 0.478 0.268 0.65v0l2.831 2.825 0.092 0.081c0.16 0.123 0.355 0.189 0.561 0.189 0.248 0 0.479-0.095 0.652-0.268s0.268-0.404 0.268-0.651c0-0.192-0.058-0.374-0.164-0.526-0.786-0.191-1.565-0.888-1.808-1.12-0.328-0.313-1.056-1.087-1.259-1.941zM14.529 6.446c-0.51-0.097-0.728-0.075-0.81-0.055-0 0.016 0 0.036 0.003 0.062v0l0.020 0.114c0.089 0.358 0.437 0.867 0.904 1.313 0.379 0.363 0.725 0.589 0.977 0.71v0l1.63-1.629zM15.843 0c0.347 0 0.628 0.281 0.628 0.628v0 2.799c0 0.347-0.281 0.628-0.628 0.628s-0.628-0.281-0.628-0.628v0-2.799c0-0.347 0.281-0.628 0.628-0.628zM5.221 0.355c0.245-0.245 0.642-0.246 0.888-0.001v0l2.287 2.283c0.245 0.245 0.246 0.642 0.001 0.888-0.123 0.123-0.283 0.184-0.444 0.184s-0.321-0.061-0.443-0.183v0l-2.287-2.283c-0.245-0.245-0.246-0.642-0.001-0.888zM25.576 0.355c0.245-0.245 0.643-0.245 0.888 0.001s0.245 0.643-0 0.888v0l-2.285 2.283c-0.123 0.122-0.283 0.184-0.444 0.184s-0.321-0.061-0.444-0.184c-0.245-0.245-0.245-0.643 0-0.888v0z"></path>
</svg>
