<!-- Generated by IcoMoon.io -->
<svg version="1.1" xmlns="http://www.w3.org/2000/svg" width="34" height="32" viewBox="0 0 34 32">
<title>HeadlineOne</title>
<path fill="#696969" d="M27.035 17.254c3.352 0 6.080 2.727 6.080 6.080 0 2.577-1.612 4.785-3.881 5.668v0 2.352c0 0.357-0.29 0.647-0.647 0.647v0h-27.941c-0.357 0-0.647-0.29-0.647-0.647v0-6.439c0-1.334 0.424-2.602 1.226-3.668s1.903-1.825 3.185-2.194v0l6.147-1.773c0.343-0.099 0.702 0.099 0.801 0.442s-0.099 0.702-0.442 0.801v0l-0.503 0.145v2.372l3.85-2.516c0.215-0.14 0.493-0.14 0.707 0v0l3.85 2.516v-2.371l-0.503-0.146c-0.343-0.099-0.541-0.458-0.441-0.801s0.458-0.541 0.801-0.441v0l4.551 1.317c1.043-0.84 2.367-1.343 3.807-1.343zM9.12 19.040l-4.351 1.255c-2.046 0.59-3.475 2.49-3.475 4.62v0 5.792h11.552l-1.056-5.406c-0.024-0.124-0.011-0.253 0.037-0.37v0l0.957-2.324-0.421-1.296-2.242 1.465c-0.199 0.13-0.453 0.14-0.662 0.027s-0.339-0.331-0.339-0.569v0-3.194zM15.329 23.279h-1.424l-0.809 1.964 1.067 5.463h0.908l1.067-5.463-0.809-1.964zM20.115 19.042v3.192c0 0.237-0.13 0.456-0.339 0.569-0.096 0.052-0.202 0.078-0.308 0.078-0.124 0-0.247-0.035-0.354-0.105v0l-2.242-1.465-0.421 1.296 0.957 2.324c0.048 0.117 0.061 0.246 0.037 0.37v0l-1.056 5.406h11.552v-1.361c-0.296 0.044-0.598 0.067-0.905 0.067-3.352 0-6.080-2.727-6.080-6.080 0-1.385 0.466-2.663 1.249-3.687v0l-2.090-0.605zM27.035 18.547c-1.171 0-2.245 0.423-3.077 1.124-0.063 0.099-0.151 0.177-0.252 0.229-0.897 0.87-1.456 2.087-1.456 3.433 0 2.639 2.147 4.786 4.786 4.786s4.786-2.147 4.786-4.786c0-2.639-2.147-4.786-4.786-4.786zM26.858 19.809c0.354 0 0.641 0.284 0.646 0.636 0.751 0.25 1.291 0.924 1.291 1.713 0 0.357-0.29 0.647-0.647 0.647s-0.647-0.29-0.647-0.647c0-0.289-0.289-0.524-0.643-0.524s-0.644 0.235-0.644 0.524c0 0.289 0.289 0.524 0.643 0.524 1.068 0 1.937 0.815 1.937 1.818 0 0.79-0.541 1.464-1.293 1.714-0.028 0.331-0.306 0.591-0.644 0.591s-0.615-0.26-0.644-0.591c-0.752-0.25-1.293-0.924-1.293-1.714 0-0.357 0.29-0.647 0.647-0.647s0.647 0.29 0.647 0.647c0 0.289 0.289 0.524 0.643 0.524s0.643-0.235 0.643-0.524c0-0.289-0.289-0.524-0.643-0.524-1.068 0-1.937-0.815-1.937-1.818 0-0.79 0.54-1.463 1.291-1.713 0.006-0.352 0.293-0.636 0.646-0.636zM7.742 24.921c0.357 0 0.647 0.29 0.647 0.647s-0.29 0.647-0.647 0.647v0h-1.983c-0.357 0-0.647-0.29-0.647-0.647s0.29-0.647 0.647-0.647v0zM14.617 19.837l-1.133 0.74 0.458 1.408h1.35l0.458-1.408-1.133-0.74zM15.235 0c0.357 0 0.647 0.29 0.647 0.647s-0.29 0.647-0.647 0.647v0h-2.604c-1.532 0-2.779 1.246-2.779 2.779v0 2.54h9.369c2.188 0 3.968-1.78 3.968-3.968v0-1.35h-2.684c-0.357 0-0.647-0.29-0.647-0.647s0.29-0.647 0.647-0.647v0h3.331c0.357 0 0.647 0.29 0.647 0.647v0 1.997c0 2.406-1.623 4.438-3.832 5.063v0 0.393h0.388c1.213 0 2.199 0.986 2.199 2.199s-0.986 2.199-2.199 2.199v0h-0.441c-0.385 2.845-2.832 5.045-5.784 5.045s-5.4-2.2-5.784-5.045v0h-0.441c-1.213 0-2.199-0.986-2.199-2.199s0.986-2.199 2.199-2.199v0h0.388v-0.236c-0.244-0.093-0.418-0.328-0.418-0.604v0-3.187c0-2.245 1.827-4.072 4.072-4.072v0zM19.359 7.902c-0.046 0.001-0.091 0.003-0.137 0.003v0h-8.951v3.808c0 2.501 2.038 4.536 4.544 4.536s4.544-2.035 4.544-4.536v0zM8.977 9.393h-0.388c-0.499 0-0.905 0.406-0.905 0.905s0.406 0.905 0.905 0.905v0h0.388v-1.811zM21.040 9.393h-0.388v1.811h0.388c0.499 0 0.905-0.406 0.905-0.905s-0.406-0.905-0.905-0.905v0zM17.9 0c0.17 0 0.337 0.069 0.457 0.19s0.189 0.287 0.189 0.457c0 0.17-0.069 0.337-0.189 0.457s-0.287 0.19-0.457 0.19c-0.171 0-0.337-0.069-0.457-0.19s-0.19-0.287-0.19-0.457 0.069-0.337 0.19-0.457c0.12-0.12 0.287-0.19 0.457-0.19z"></path>
</svg>
