<!-- Generated by IcoMoon.io -->
<svg version="1.1" xmlns="http://www.w3.org/2000/svg" width="32" height="32" viewBox="0 0 32 32">
<title>HeadPhone</title>
<path d="M16 0c-8.822 0-16 7.178-16 16v6.629c0 1.638 1.435 2.971 3.2 2.971h1.6c0.424 0 0.831-0.169 1.131-0.469s0.469-0.707 0.469-1.131v-8.229c0-0.424-0.169-0.831-0.469-1.131s-0.707-0.469-1.131-0.469h-1.453c0.89-6.192 6.218-10.971 12.653-10.971s11.763 4.779 12.653 10.971h-1.453c-0.424 0-0.831 0.169-1.131 0.469s-0.469 0.707-0.469 1.131v9.829c0 1.765-1.435 3.2-3.2 3.2h-3.2v-1.6h-6.4v4.8h9.6c3.53 0 6.4-2.87 6.4-6.4 1.765 0 3.2-1.333 3.2-2.971v-6.629c0-8.822-7.178-16-16-16z"></path>
</svg>
