<!-- Generated by IcoMoon.io -->
<svg version="1.1" xmlns="http://www.w3.org/2000/svg" width="32" height="32" viewBox="0 0 32 32">
<title>HeartEmpty</title>
<path d="M8.835 3.984c-1.919 0-3.683 0.753-4.964 2.121-1.302 1.389-2.019 3.308-2.019 5.405 0 2.212 0.836 4.191 2.711 6.416 1.812 2.15 4.507 4.409 7.628 7.025l0.006 0.004c1.091 0.914 2.327 1.951 3.615 3.058 1.295-1.109 2.533-2.147 3.626-3.063 3.12-2.615 5.815-4.874 7.627-7.024 1.874-2.224 2.71-4.203 2.71-6.416 0-2.097-0.717-4.016-2.019-5.405-1.283-1.368-3.045-2.122-4.964-2.122-1.405 0-2.697 0.439-3.837 1.306-1.015 0.772-1.723 1.75-2.138 2.433-0.214 0.351-0.589 0.561-1.005 0.561s-0.791-0.21-1.005-0.561c-0.414-0.683-1.122-1.661-2.138-2.433-1.14-0.867-2.43-1.306-3.837-1.306zM15.815 29.838c-0.451 0-0.885-0.16-1.223-0.451-1.277-1.099-2.51-2.132-3.597-3.043l-0.005-0.004c-3.186-2.671-5.938-4.977-7.853-7.249-2.141-2.54-3.137-4.948-3.137-7.579 0-2.556 0.891-4.914 2.509-6.64 1.637-1.746 3.884-2.709 6.326-2.709 1.826 0 3.498 0.567 4.97 1.687 0.743 0.565 1.416 1.257 2.009 2.064 0.593-0.807 1.266-1.498 2.009-2.064 1.472-1.119 3.144-1.687 4.97-1.687 2.442 0 4.689 0.962 6.326 2.709 1.618 1.726 2.509 4.084 2.509 6.64 0 2.631-0.996 5.039-3.137 7.579-1.915 2.272-4.666 4.579-7.852 7.248-1.089 0.912-2.323 1.947-3.603 3.048-0.338 0.291-0.772 0.451-1.222 0.451z"></path>
</svg>
