<!-- Generated by IcoMoon.io -->
<svg version="1.1" xmlns="http://www.w3.org/2000/svg" width="32" height="32" viewBox="0 0 32 32">
<title>Heart</title>
<path d="M29.383 4.254c-1.655-1.689-3.974-2.651-6.404-2.654-2.432 0.003-4.754 0.964-6.411 2.653l-0.565 0.567-0.565-0.567c-3.289-3.362-8.826-3.555-12.366-0.431-0.157 0.138-0.308 0.282-0.454 0.431-3.489 3.574-3.489 9.097 0 12.671l12.555 12.572c0.434 0.435 1.158 0.454 1.617 0.042 0.015-0.014 0.030-0.027 0.044-0.042l12.55-12.572c3.489-3.573 3.489-9.096-0-12.67zM27.728 15.429h-0.001l-11.725 11.742-11.726-11.742c-2.666-2.731-2.666-6.95 0-9.681 2.421-2.491 6.51-2.648 9.134-0.349 0.127 0.112 0.25 0.228 0.367 0.349l1.394 1.397c0.459 0.433 1.201 0.433 1.661 0l1.394-1.395c2.421-2.491 6.51-2.648 9.134-0.349 0.127 0.112 0.25 0.228 0.367 0.349 2.689 2.735 2.709 6.963 0 9.68z"></path>
</svg>
