<!-- Generated by IcoMoon.io -->
<svg version="1.1" xmlns="http://www.w3.org/2000/svg" width="32" height="32" viewBox="0 0 32 32">
<title>HomeInvite</title>
<path fill="#00acb9" d="M29.334 20.165c0-0.354-0.14-0.693-0.391-0.943s-0.589-0.391-0.943-0.391h-1.333c-0.322-0-0.638 0.078-0.923 0.228-0.155 0.081-0.335 0.099-0.503 0.048l-5.803-1.751c-0.408-0.145-0.841-0.207-1.274-0.183s-0.856 0.134-1.245 0.324c-0.208 0.101-1.52 0.733-2.185 1.067-0.103 0.051-0.217 0.074-0.332 0.068s-0.226-0.042-0.323-0.104c-1.104-0.709-1.888-0.431-3.095-0.099-0.715 0.199-1.875 0.519-3.747 1.032-0.105 0.030-0.216 0.033-0.323 0.010s-0.206-0.072-0.289-0.143c-0.356-0.317-0.816-0.494-1.293-0.497h-1.333c-0.354 0-0.693 0.14-0.943 0.391s-0.391 0.589-0.391 0.943v7.333c0 0.354 0.14 0.693 0.391 0.943s0.589 0.391 0.943 0.391h1.333c0.298-0 0.592-0.068 0.861-0.198s0.504-0.318 0.69-0.552c0.062-0.078 0.141-0.141 0.231-0.185s0.189-0.066 0.289-0.066h1.783c0.174 0 0.341 0.068 0.465 0.189l2.573 2.507c0.327 0.367 0.783 0.594 1.273 0.633s0.976-0.112 1.358-0.423l3.436-2.76c0.118-0.095 0.266-0.147 0.417-0.147h5.887c0.1 0 0.198 0.022 0.288 0.065s0.169 0.106 0.232 0.184c0.185 0.234 0.421 0.423 0.69 0.553s0.563 0.198 0.861 0.198h1.333c0.354 0 0.693-0.14 0.943-0.391s0.391-0.589 0.391-0.943v-7.333zM15.322 20.496l2.481-1.2c0.154-0.082 0.325-0.128 0.5-0.135s0.348 0.026 0.508 0.096l5.383 1.624c0.137 0.042 0.257 0.126 0.342 0.241s0.131 0.254 0.131 0.398v3.647c0 0.177-0.070 0.346-0.195 0.471s-0.295 0.195-0.472 0.195h-3.147c-0.162 0.002-0.319-0.056-0.442-0.162s-0.203-0.253-0.225-0.413c-0.051-0.358-0.197-0.696-0.421-0.979l-1.156-1.273c-0.014-0.017-0.023-0.036-0.028-0.057s-0.004-0.043 0.002-0.063c0.006-0.021 0.016-0.040 0.031-0.055s0.033-0.028 0.053-0.035c0.13-0.035 0.251-0.096 0.356-0.18s0.193-0.187 0.258-0.304c0.065-0.118 0.105-0.247 0.118-0.381s0-0.269-0.040-0.397-0.105-0.247-0.192-0.35c-0.087-0.103-0.193-0.187-0.313-0.247s-0.251-0.096-0.385-0.106c-0.134-0.009-0.268 0.009-0.395 0.053l-2.26 0.703c-0.143 0.060-0.304 0.061-0.449 0.005s-0.262-0.167-0.327-0.308c-0.065-0.141-0.073-0.302-0.022-0.448s0.157-0.268 0.296-0.338l0.007-0.001zM14.134 28.773c-0.127 0.102-0.287 0.155-0.45 0.147s-0.317-0.075-0.434-0.188l-2.784-2.711c-0.124-0.121-0.291-0.189-0.465-0.189h-2c-0.177 0-0.346-0.070-0.471-0.195s-0.195-0.295-0.195-0.472v-3.153c0-0.146 0.048-0.288 0.137-0.404s0.213-0.2 0.354-0.239c1.839-0.503 2.987-0.82 3.696-1.016 0.593-0.164 0.869-0.241 1.007-0.276 0.073 0 0.146 0.016 0.213 0.047s0.126 0.076 0.174 0.131c0.048 0.056 0.083 0.121 0.104 0.192s0.025 0.145 0.015 0.217c-0.066 0.444-0.014 0.898 0.151 1.316 0.218 0.554 0.619 1.016 1.137 1.308s1.121 0.399 1.707 0.3c0.111-0.019 0.225-0.010 0.331 0.027s0.202 0.1 0.277 0.183l1.067 1.181c0.061 0.067 0.108 0.146 0.137 0.232s0.041 0.177 0.034 0.267c-0.007 0.091-0.032 0.179-0.075 0.259s-0.1 0.151-0.171 0.208l-3.493 2.827z"></path>
<path fill="#00acb9" d="M31.609 17.222c0.25-0.25 0.39-0.589 0.39-0.943s-0.14-0.693-0.39-0.943l-13.724-13.724c-0.5-0.5-1.178-0.781-1.885-0.781s-1.385 0.281-1.885 0.781l-13.724 13.72c-0.127 0.123-0.229 0.27-0.299 0.433s-0.107 0.338-0.108 0.515c-0.002 0.177 0.032 0.352 0.099 0.516s0.166 0.313 0.291 0.438c0.125 0.125 0.274 0.224 0.438 0.291s0.339 0.101 0.516 0.099c0.177-0.002 0.352-0.038 0.515-0.108s0.31-0.172 0.433-0.299l13.252-13.252c0.062-0.062 0.136-0.111 0.216-0.145s0.168-0.051 0.255-0.051c0.088 0 0.175 0.017 0.256 0.051s0.155 0.083 0.216 0.145l13.252 13.252c0.249 0.251 0.588 0.392 0.942 0.392s0.693-0.139 0.944-0.388z"></path>
<path fill="#00acb9" d="M21.333 2.165c0 0.354 0.14 0.693 0.391 0.943s0.589 0.391 0.943 0.391h2.667c0.177 0 0.346 0.070 0.471 0.195s0.195 0.295 0.195 0.471v2.667c0 0.354 0.14 0.693 0.391 0.943s0.589 0.391 0.943 0.391 0.693-0.14 0.943-0.391c0.25-0.25 0.39-0.589 0.39-0.943v-4c0-0.263-0.052-0.523-0.152-0.765s-0.248-0.463-0.434-0.649c-0.186-0.186-0.406-0.333-0.649-0.434s-0.503-0.152-0.765-0.152h-4c-0.354 0-0.693 0.14-0.943 0.391s-0.391 0.589-0.391 0.943z"></path>
</svg>
