<!-- Generated by IcoMoon.io -->
<svg version="1.1" xmlns="http://www.w3.org/2000/svg" width="46" height="32" viewBox="0 0 46 32">
<title>Hotline</title>
<path d="M39.96 20.506c-0.223-1.334-1.419-2.374-2.958-2.684-5.984-1.208-7.484-4.176-7.737-7.468-1.061-0.17-2.949-0.354-6.153-0.354s-5.092 0.184-6.153 0.354c-0.253 3.292-1.753 6.26-7.737 7.468-1.54 0.312-2.735 1.35-2.958 2.684l-1.154 6.884c-0.406 2.424 1.66 4.61 4.535 4.61h26.935c2.872 0 4.941-2.186 4.535-4.61l-1.154-6.884zM23.111 26.984c-3.239 0-5.865-2.24-5.865-5s2.626-5 5.865-5c3.239 0 5.865 2.24 5.865 5s-2.628 5-5.865 5zM46.215 8c-0.055-3-8.921-7.998-23.104-8-14.185 0.002-23.051 5-23.104 8s0.049 6.904 5.886 6.254c6.829-0.762 6.409-2.816 6.409-5.752 0-2.048 5.554-2.542 10.809-2.542s10.807 0.494 10.809 2.542c0 2.936-0.42 4.99 6.409 5.752 5.835 0.65 5.94-3.254 5.886-6.254z"></path>
</svg>
