<!-- Generated by IcoMoon.io -->
<svg version="1.1" xmlns="http://www.w3.org/2000/svg" width="36" height="32" viewBox="0 0 36 32">
<title>House</title>
<path fill="#00acb9" d="M32.538 30.003v-13.135l1.226 1.226 0.757-0.756-16.41-16.409-6.946 6.946v-6.189h-5.348v11.537l-4.115 4.115 0.757 0.756 1.226-1.226v13.135h-2.139v1.070h33.132v-1.070h-2.139zM6.887 2.754h3.209v6.189l-3.209 3.209v-9.398zM21.855 30.003v-11.753h6.411v11.759h-6.411v-0.007zM31.468 30.003h-2.139v-12.822h-8.544v12.822h-16.031v-14.205l13.357-13.357 13.357 13.357v14.205z"></path>
<path fill="#00acb9" d="M7.957 27.87h9.62v-9.62h-9.62v9.62zM9.026 23.592h3.209v3.209h-3.209v-3.209zM13.305 26.8v-3.209h3.209v3.209h-3.209zM16.507 22.522h-3.209v-3.209h3.209v3.209zM12.235 19.32v3.202h-3.209v-3.209h3.209v0.007z"></path>
<path fill="#00acb9" d="M23.452 23.592h-1.070v1.070h1.070v-1.070z"></path>
</svg>
