<!-- Generated by IcoMoon.io -->
<svg version="1.1" xmlns="http://www.w3.org/2000/svg" width="32" height="32" viewBox="0 0 32 32">
<title>Image</title>
<path d="M23.375 6.75h-13.694l9.381-5.419c0.3-0.175 0.681-0.069 0.856 0.231l2.119 3.669c0.175 0.3 0.556 0.4 0.856 0.231 0.3-0.175 0.4-0.556 0.231-0.856l-2.125-3.669c-0.519-0.894-1.669-1.2-2.563-0.688l-11.244 6.494c-0.006 0-0.006 0.006-0.013 0.006h-5.306c-1.031 0-1.875 0.844-1.875 1.875v21.5c0 1.031 0.844 1.875 1.875 1.875h21.5c1.031 0 1.875-0.844 1.875-1.875v-21.5c0-1.037-0.844-1.875-1.875-1.875zM24 30.125c0 0.344-0.281 0.625-0.625 0.625h-21.5c-0.344 0-0.625-0.281-0.625-0.625v-21.5c0-0.344 0.281-0.625 0.625-0.625h21.5c0.344 0 0.625 0.281 0.625 0.625v21.5z"></path>
<path d="M27.956 13.031c-0.119-0.119-0.275-0.181-0.444-0.181-0.163 0-0.325 0.069-0.444 0.181-0.119 0.119-0.181 0.275-0.181 0.444s0.069 0.325 0.181 0.444c0.119 0.119 0.275 0.181 0.444 0.181 0.163 0 0.325-0.069 0.444-0.181 0.119-0.119 0.181-0.275 0.181-0.444s-0.063-0.325-0.181-0.444z"></path>
<path d="M31.75 19.556l-2.587-4.481c-0.175-0.3-0.556-0.4-0.856-0.231-0.3 0.175-0.4 0.556-0.231 0.856l2.587 4.481c0.175 0.3 0.069 0.681-0.231 0.856l-4.019 2.319c-0.3 0.175-0.4 0.556-0.231 0.856 0.119 0.2 0.325 0.313 0.544 0.313 0.106 0 0.212-0.025 0.313-0.081l4.019-2.319c0.9-0.525 1.213-1.675 0.694-2.569z"></path>
<path d="M16.444 9.931c-0.119-0.119-0.275-0.181-0.444-0.181-0.162 0-0.325 0.069-0.444 0.181-0.119 0.119-0.181 0.275-0.181 0.444s0.069 0.325 0.181 0.444c0.119 0.119 0.275 0.181 0.444 0.181 0.163 0 0.325-0.069 0.444-0.181 0.119-0.119 0.181-0.275 0.181-0.444s-0.069-0.325-0.181-0.444z"></path>
<path d="M21.625 9.75h-2.438c-0.344 0-0.625 0.281-0.625 0.625s0.281 0.625 0.625 0.625h1.813v8.913l-4.962-4.963c-0.119-0.119-0.275-0.181-0.444-0.181s-0.325 0.069-0.444 0.181l-3.313 3.313c-0.244 0.244-0.244 0.637 0 0.881s0.637 0.244 0.881 0l2.869-2.869 5.4 5.4c0 0 0 0 0.006 0.006v3.069h-15.863l4.537-4.538 3.369 3.369c0.244 0.244 0.637 0.244 0.881 0s0.244-0.637 0-0.881l-3.813-3.813c-0.119-0.119-0.275-0.181-0.444-0.181s-0.325 0.069-0.444 0.181l-4.969 4.981v-12.869h8.375c0.344 0 0.625-0.281 0.625-0.625s-0.281-0.625-0.625-0.625h-9c-0.344 0-0.625 0.281-0.625 0.625v15c0 0.344 0.281 0.625 0.625 0.625h18c0.344 0 0.625-0.281 0.625-0.625v-15c0-0.344-0.281-0.625-0.625-0.625z"></path>
<path d="M9.106 12.438c-1.1 0-2 0.9-2 2s0.9 2 2 2c1.1 0 2-0.9 2-2 0-1.106-0.9-2-2-2zM9.106 15.188c-0.412 0-0.75-0.338-0.75-0.75s0.338-0.75 0.75-0.75c0.412 0 0.75 0.338 0.75 0.75s-0.338 0.75-0.75 0.75z"></path>
</svg>
