<!-- Generated by IcoMoon.io -->
<svg version="1.1" xmlns="http://www.w3.org/2000/svg" width="32" height="32" viewBox="0 0 32 32">
<title>Instagram</title>
<path d="M15.422 1.782l0.578 0c4.632 0 5.181 0.017 7.010 0.1 1.692 0.077 2.61 0.36 3.221 0.597 0.81 0.314 1.387 0.69 1.994 1.298s0.983 1.185 1.298 1.995c0.238 0.611 0.521 1.529 0.598 3.22 0.083 1.829 0.101 2.378 0.101 7.008s-0.018 5.179-0.101 7.008c-0.077 1.692-0.36 2.61-0.598 3.22-0.314 0.81-0.691 1.386-1.298 1.993s-1.184 0.983-1.994 1.298c-0.611 0.239-1.53 0.52-3.221 0.598-1.829 0.083-2.378 0.101-7.010 0.101s-5.181-0.018-7.010-0.101c-1.691-0.078-2.61-0.361-3.221-0.598-0.81-0.314-1.388-0.69-1.995-1.298s-0.983-1.184-1.298-1.994c-0.237-0.611-0.52-1.529-0.597-3.22-0.083-1.829-0.1-2.378-0.1-7.011s0.017-5.179 0.1-7.008c0.077-1.692 0.36-2.61 0.597-3.221 0.314-0.81 0.691-1.388 1.298-1.995s1.186-0.983 1.995-1.298c0.612-0.239 1.53-0.52 3.221-0.598 1.6-0.072 2.221-0.094 5.454-0.098v0.004c0.302-0 0.627-0 0.978-0zM23.179 6.744c0 1.149 0.932 2.082 2.082 2.082s2.082-0.933 2.082-2.082c0-1.149-0.933-2.082-2.082-2.082v0.001c-1.149 0-2.082 0.931-2.082 2.081zM16 7.095c-4.92 0-8.909 3.989-8.909 8.909s3.989 8.907 8.909 8.907 8.908-3.987 8.908-8.907c0-4.92-3.988-8.909-8.908-8.909zM21.783 16.005c0 3.194-2.589 5.783-5.783 5.783s-5.783-2.589-5.783-5.783c0-3.194 2.589-5.783 5.783-5.783s5.783 2.589 5.783 5.783z"></path>
</svg>
