<!-- Generated by IcoMoon.io -->
<svg version="1.1" xmlns="http://www.w3.org/2000/svg" width="31" height="32" viewBox="0 0 31 32">
<title>Interior</title>
<path fill="#696969" d="M0.764 0.606l30.434 30.434c0.128 0.128 0.166 0.32 0.097 0.488s-0.232 0.276-0.413 0.276h-30.434c-0.247 0-0.448-0.2-0.448-0.448v-30.434c0-0.181 0.109-0.344 0.276-0.413s0.36-0.031 0.488 0.097zM0.895 2.003l-0 5.493 0.525 0.001c0.247 0 0.448 0.2 0.448 0.448s-0.2 0.448-0.448 0.448l-0.525-0v2.285l1.343 0c0.247 0 0.448 0.2 0.448 0.448s-0.2 0.448-0.448 0.448l-1.343-0v2.286l0.525 0c0.247 0 0.448 0.2 0.448 0.448s-0.2 0.448-0.448 0.448l-0.525-0.001v2.283l1.343 0c0.247 0 0.448 0.2 0.448 0.448s-0.2 0.448-0.448 0.448l-1.343-0v2.282l0.525 0.001c0.247 0 0.448 0.2 0.448 0.448s-0.2 0.448-0.448 0.448l-0.525-0v2.286l1.343 0c0.247 0 0.448 0.2 0.448 0.448s-0.2 0.448-0.448 0.448l-1.343-0v2.285l0.525 0c0.247 0 0.448 0.2 0.448 0.448s-0.2 0.448-0.448 0.448l-0.525-0.001 0 3.441 3.58-0 0.001-0.524c0-0.247 0.2-0.448 0.448-0.448s0.448 0.2 0.448 0.448l-0 0.524h2.283l0-1.342c0-0.247 0.2-0.448 0.448-0.448s0.448 0.2 0.448 0.448l-0.001 1.342h2.286l0-0.524c0-0.247 0.2-0.448 0.448-0.448s0.448 0.2 0.448 0.448l-0.001 0.524h2.285l0-1.342c0-0.247 0.2-0.448 0.448-0.448s0.448 0.2 0.448 0.448l-0 1.342h2.285l0-0.524c0-0.247 0.2-0.448 0.448-0.448s0.448 0.2 0.448 0.448l-0 0.524h2.284l0-1.342c0-0.247 0.2-0.448 0.448-0.448s0.448 0.2 0.448 0.448l-0 1.342h2.284l0.001-0.524c0-0.247 0.2-0.448 0.448-0.448s0.448 0.2 0.448 0.448l-0 0.524 5.354 0-28.906-28.906zM5.687 11.857l3.102 3.102c0.17 0.176 0.167 0.455-0.005 0.627s-0.452 0.175-0.627 0.005l-2.338-2.338v12.731h12.731l-1.89-1.89c-0.17-0.176-0.167-0.455 0.005-0.627s0.452-0.175 0.627-0.005l2.654 2.654c0.128 0.128 0.166 0.32 0.097 0.488s-0.232 0.276-0.413 0.276h-14.259c-0.247 0-0.448-0.2-0.448-0.448v-14.259c0-0.181 0.109-0.344 0.276-0.413s0.36-0.031 0.488 0.097zM14.137 20.307l0.94 0.94c0.128 0.128 0.166 0.32 0.097 0.488s-0.232 0.276-0.413 0.276c-0.119-0-0.232-0.047-0.316-0.131l-0.94-0.94c-0.116-0.112-0.163-0.279-0.122-0.435s0.163-0.279 0.32-0.32c0.156-0.041 0.323 0.006 0.435 0.122zM11.004 17.174l0.918 0.918c0.128 0.128 0.166 0.32 0.097 0.488s-0.232 0.276-0.413 0.276c-0.119-0-0.232-0.047-0.316-0.131l-0.918-0.918c-0.116-0.112-0.163-0.279-0.122-0.435s0.163-0.279 0.32-0.32c0.156-0.041 0.323 0.006 0.435 0.122z"></path>
</svg>
