<!-- Generated by IcoMoon.io -->
<svg version="1.1" xmlns="http://www.w3.org/2000/svg" width="36" height="32" viewBox="0 0 36 32">
<title>InviteIcon</title>
<path d="M12.713 14.516c4.009 0 7.258-3.25 7.258-7.258s-3.25-7.258-7.258-7.258c-4.009 0-7.258 3.25-7.258 7.258s3.25 7.258 7.258 7.258z"></path>
<path d="M14.9 15.726h-4.373c-2.791 0.002-5.468 1.112-7.441 3.086s-3.084 4.65-3.086 7.441v3.687c0 0.321 0.127 0.629 0.354 0.855s0.535 0.354 0.855 0.354h23.009c0.321 0 0.628-0.128 0.855-0.354s0.354-0.535 0.354-0.855v-3.687c-0.003-2.791-1.113-5.467-3.087-7.44s-4.649-3.084-7.441-3.087z"></path>
<path d="M34.791 12.399h-3.024v-3.024c0-0.321-0.127-0.629-0.354-0.855s-0.535-0.354-0.855-0.354c-0.321 0-0.629 0.127-0.855 0.354s-0.354 0.535-0.354 0.855v3.024h-3.024c-0.321 0-0.629 0.127-0.855 0.354s-0.354 0.535-0.354 0.855c0 0.321 0.128 0.629 0.354 0.855s0.535 0.354 0.855 0.354h3.024v3.024c0 0.321 0.127 0.629 0.354 0.855s0.534 0.354 0.855 0.354c0.321 0 0.628-0.127 0.855-0.354s0.354-0.535 0.354-0.855v-3.024h3.024c0.321 0 0.629-0.127 0.855-0.354s0.354-0.535 0.354-0.855-0.127-0.629-0.354-0.855c-0.227-0.227-0.535-0.354-0.855-0.354z"></path>
</svg>
