<!-- Generated by IcoMoon.io -->
<svg version="1.1" xmlns="http://www.w3.org/2000/svg" width="32" height="32" viewBox="0 0 32 32">
<title>JamStampF</title>
<path fill="#0e3556" opacity="0.8" d="M13.091 13.040c-1.109-0.64-1.976-1.629-2.466-2.812s-0.576-2.495-0.245-3.732c0.332-1.237 1.062-2.33 2.078-3.11s2.261-1.202 3.542-1.202c1.281 0 2.526 0.423 3.542 1.202s1.747 1.873 2.078 3.11c0.332 1.237 0.246 2.549-0.244 3.732s-1.357 2.172-2.466 2.812v9.506h-5.818v-9.506zM4.364 24h23.273c0.772 0 1.512 0.307 2.057 0.852s0.852 1.285 0.852 2.057v2.909h-29.091v-2.909c0-0.772 0.306-1.511 0.852-2.057s1.285-0.852 2.057-0.852z"></path>
</svg>
