<!-- Generated by IcoMoon.io -->
<svg version="1.1" xmlns="http://www.w3.org/2000/svg" width="32" height="32" viewBox="0 0 32 32">
<title>Land</title>
<path fill="#00acb9" d="M24.541 12.483v-11.053c0-0.133-0.053-0.261-0.147-0.355s-0.222-0.147-0.355-0.147h-16.077c-0.133 0-0.261 0.053-0.355 0.147s-0.147 0.222-0.147 0.355v11.053c0 0.133 0.053 0.261 0.147 0.355s0.222 0.147 0.355 0.147h6.029v5.024c0 0.133 0.053 0.261 0.147 0.355s0.222 0.147 0.355 0.147h3.015c0.133 0 0.261-0.053 0.355-0.147s0.147-0.222 0.147-0.355v-5.024h6.029c0.133 0 0.261-0.053 0.355-0.147s0.147-0.222 0.147-0.355zM17.005 17.507h-2.010v-4.522h2.010v4.522zM23.537 11.981h-15.072v-10.048h15.072v10.048z"></path>
<path fill="#00acb9" d="M21.527 3.942h-11.053v1.005h11.053v-1.005z"></path>
<path fill="#00acb9" d="M21.527 8.967h-11.053v1.005h11.053v-1.005z"></path>
<path fill="#00acb9" d="M21.527 6.454h-11.053v1.005h11.053v-1.005z"></path>
<path fill="#00acb9" d="M1.933 5.952h2.010v-1.005h-2.512c-0.133 0-0.261 0.053-0.355 0.147s-0.147 0.222-0.147 0.355v2.512h1.005v-2.010z"></path>
<path fill="#00acb9" d="M1.933 11.981h-1.005v4.019h1.005v-4.019z"></path>
<path fill="#00acb9" d="M1.933 20.020h-1.005v4.019h1.005v-4.019z"></path>
<path fill="#00acb9" d="M1.43 31.072h2.512v-1.005h-2.010v-2.010h-1.005v2.512c0 0.133 0.053 0.261 0.147 0.355s0.222 0.147 0.355 0.147z"></path>
<path fill="#00acb9" d="M13.489 30.068h-4.522v1.005h4.522v-1.005z"></path>
<path fill="#00acb9" d="M23.034 30.068h-4.522v1.005h4.522v-1.005z"></path>
<path fill="#00acb9" d="M30.068 30.068h-2.010v1.005h2.512c0.133 0 0.261-0.053 0.355-0.147s0.147-0.222 0.147-0.355v-2.512h-1.005v2.010z"></path>
<path fill="#00acb9" d="M31.073 20.020h-1.005v4.019h1.005v-4.019z"></path>
<path fill="#00acb9" d="M31.073 11.981h-1.005v4.019h1.005v-4.019z"></path>
<path fill="#00acb9" d="M30.57 4.947h-2.512v1.005h2.010v2.010h1.005v-2.512c0-0.133-0.053-0.261-0.147-0.355s-0.222-0.147-0.355-0.147z"></path>
</svg>
