<!-- Generated by IcoMoon.io -->
<svg version="1.1" xmlns="http://www.w3.org/2000/svg" width="32" height="32" viewBox="0 0 32 32">
<title>Language</title>
<path d="M27.709 23.164c-0.938-0.353-1.885-0.661-2.838-0.927 0.393-1.553 0.635-3.215 0.717-4.93h4.080c-0.203 2.131-0.893 4.121-1.959 5.857zM22.193 28.252c0.286-0.397 0.56-0.823 0.82-1.28 0.398-0.698 0.752-1.449 1.063-2.242 0.662 0.182 1.32 0.386 1.974 0.614-1.1 1.183-2.404 2.171-3.857 2.909zM17.307 29.052v-5.39c1.401 0.061 2.8 0.219 4.189 0.476-1.033 2.486-2.515 4.287-4.189 4.914zM17.307 17.307h5.665c-0.083 1.525-0.308 2.984-0.65 4.326-1.662-0.326-3.337-0.523-5.015-0.59v-3.735zM17.307 10.957c1.678-0.067 3.353-0.264 5.015-0.589 0.342 1.342 0.567 2.801 0.65 4.326h-5.665v-3.736zM17.307 2.948c1.674 0.627 3.156 2.428 4.189 4.914-1.389 0.257-2.788 0.415-4.189 0.476v-5.39zM26.051 6.657c-0.654 0.227-1.312 0.431-1.974 0.614-0.311-0.794-0.665-1.545-1.063-2.242-0.26-0.458-0.534-0.884-0.82-1.28 1.454 0.737 2.758 1.726 3.857 2.909zM27.709 8.836c1.066 1.736 1.757 3.726 1.959 5.857h-4.079c-0.082-1.716-0.325-3.377-0.717-4.93 0.953-0.266 1.9-0.574 2.838-0.927zM14.693 8.338c-1.401-0.060-2.8-0.219-4.189-0.475 1.033-2.486 2.515-4.287 4.189-4.914v5.389zM14.693 14.693h-5.664c0.083-1.526 0.309-2.984 0.65-4.326 1.661 0.326 3.336 0.523 5.014 0.589v3.736zM14.693 21.042c-1.678 0.067-3.353 0.264-5.014 0.59-0.341-1.342-0.567-2.801-0.65-4.326h5.664v3.735zM14.693 29.052c-1.674-0.627-3.156-2.428-4.189-4.914 1.389-0.257 2.788-0.415 4.189-0.476v5.39zM5.949 25.344c0.655-0.228 1.314-0.432 1.975-0.614 0.31 0.793 0.664 1.545 1.062 2.242 0.26 0.457 0.534 0.884 0.821 1.28-1.453-0.738-2.758-1.726-3.858-2.908zM4.291 23.164c-1.066-1.736-1.757-3.726-1.959-5.857h4.079c0.083 1.715 0.325 3.377 0.718 4.93-0.954 0.266-1.9 0.574-2.839 0.927zM4.291 8.836c0.939 0.352 1.885 0.661 2.839 0.927-0.393 1.554-0.636 3.215-0.718 4.93h-4.079c0.202-2.131 0.893-4.121 1.959-5.857zM9.807 3.748c-0.287 0.397-0.561 0.823-0.821 1.28-0.397 0.697-0.752 1.448-1.062 2.242-0.662-0.182-1.321-0.387-1.975-0.614 1.1-1.182 2.405-2.171 3.858-2.908zM16 0c-8.836 0-16 7.164-16 16s7.164 16 16 16c8.836 0 16-7.164 16-16s-7.164-16-16-16z"></path>
</svg>
