<!-- Generated by IcoMoon.io -->
<svg version="1.1" xmlns="http://www.w3.org/2000/svg" width="32" height="32" viewBox="0 0 32 32">
<title>Lawvector</title>
<path fill="#0e3556" opacity="0.8" d="M16 6.514c-1.707 0-3.086-1.455-3.086-3.257s1.378-3.257 3.086-3.257c1.707 0 3.086 1.455 3.086 3.257s-1.378 3.257-3.086 3.257zM30.4 19.543c0 2.41-1.831 4.343-4.114 4.343h-2.057c-2.284 0-4.114-1.933-4.114-4.343l4.114-8.686h-2.057c-1.131 0-2.057-0.977-2.057-2.171h-2.057v17.371c0.864 0 2.057 0.977 2.057 2.172h2.057c0.864 0 2.057 0.977 2.057 2.171h-16.457c0-1.194 1.193-2.171 2.057-2.171h2.057c0-1.194 1.193-2.172 2.057-2.172h0.062l-0.062-17.371h-2.057c0 1.194-0.926 2.171-2.057 2.171h-2.057l4.114 8.686c0 2.41-1.831 4.343-4.114 4.343h-2.057c-2.283 0-4.114-1.933-4.114-4.343l4.114-8.686h-2.057v-2.171h6.171c0-1.194 0.926-2.171 2.057-2.171h8.229c1.132 0 2.057 0.977 2.057 2.171h6.172v2.171h-2.057l4.114 8.686zM6.743 13.029l-3.086 6.514h6.171l-3.086-6.514zM28.343 19.543l-3.086-6.514-3.086 6.514h6.172z"></path>
</svg>
