<!-- Generated by IcoMoon.io -->
<svg version="1.1" xmlns="http://www.w3.org/2000/svg" width="31" height="32" viewBox="0 0 31 32">
<title>Legal</title>
<path fill="#696969" d="M30.532 18.216h-0.765l-1.996-9.309c0.603-0.325 1.029-0.94 1.093-1.658h0.943c0.326 0 0.59-0.266 0.59-0.594v-0.318c0-0.878-0.655-1.612-1.524-1.708l-11.597-1.271c0.286-0.354 0.458-0.805 0.458-1.296 0-1.137-0.921-2.062-2.053-2.062s-2.053 0.925-2.053 2.062c0 0.491 0.172 0.942 0.458 1.296l-6.233 0.683c-0.256 0.028-0.441 0.259-0.413 0.517s0.258 0.443 0.514 0.415l7.727-0.847 13.091 1.434c0.387 0.043 0.68 0.363 0.693 0.75h-1.068c-0.001 0-0.002 0-0.002 0h-22.212c-0.001 0-0.002 0-0.002 0h-4.282c0.013-0.387 0.306-0.708 0.692-0.75l3.202-0.351c0.256-0.028 0.441-0.259 0.413-0.517s-0.258-0.443-0.514-0.415l-3.202 0.351c-0.868 0.096-1.523 0.83-1.523 1.708v0.318c0 0.327 0.265 0.594 0.59 0.594h0.943c0.064 0.718 0.49 1.333 1.093 1.658l-1.996 9.309h-0.765c-0.457 0-0.828 0.374-0.828 0.833 0 1.982 1.603 3.594 3.572 3.594h2c1.97 0 3.572-1.612 3.572-3.594 0-0.459-0.371-0.833-0.828-0.833h-0.766l-1.996-9.309c0.603-0.325 1.029-0.94 1.093-1.658h6.966v2.078c0 0.259 0.209 0.469 0.466 0.469s0.466-0.21 0.466-0.469v-2.078h2.207v18.689h-2.207v-14.424c0-0.259-0.209-0.469-0.466-0.469s-0.466 0.21-0.466 0.469v14.424h-0.206c-0.771 0-1.398 0.631-1.398 1.406 0 0.164 0.028 0.322 0.080 0.469h-0.513c-0.371 0-0.712 0.187-0.914 0.5l-1.287 2c-0.477 0.691 0.078 1.715 0.914 1.688h6.819c0.257 0 0.466-0.21 0.466-0.469s-0.209-0.469-0.466-0.469h-6.819c-0.142-0.020-0.192-0.111-0.131-0.241l1.287-2c0.029-0.045 0.078-0.072 0.131-0.072h8.144c0.053 0 0.102 0.027 0.131 0.072l1.287 2c0.060 0.13 0.010 0.221-0.131 0.241h-1.725c-0.257 0-0.466 0.21-0.466 0.469s0.209 0.469 0.466 0.469h1.725c0.835 0.027 1.39-0.997 0.914-1.688l-1.287-2c-0.201-0.313-0.543-0.5-0.914-0.5h-0.388c0.052-0.147 0.080-0.304 0.080-0.469 0-0.775-0.627-1.406-1.398-1.406h-0.33v-18.689h7.028c0.064 0.718 0.49 1.333 1.093 1.658l-1.996 9.309h-0.765c-0.457 0-0.828 0.374-0.828 0.833 0 1.982 1.603 3.594 3.572 3.594h2c0.253 0 0.506-0.027 0.751-0.080 0.252-0.054 0.412-0.303 0.358-0.556s-0.301-0.415-0.553-0.36c-0.181 0.039-0.368 0.059-0.556 0.059h-2c-1.421 0-2.584-1.135-2.639-2.552h7.277c-0.020 0.54-0.2 1.051-0.523 1.485-0.154 0.207-0.112 0.501 0.094 0.656s0.498 0.113 0.652-0.095c0.465-0.625 0.71-1.369 0.71-2.151 0-0.459-0.372-0.833-0.828-0.833v0zM15.68 0.938c0.618 0 1.121 0.504 1.121 1.124s-0.503 1.124-1.121 1.124c-0.618 0-1.121-0.504-1.121-1.124s0.503-1.124 1.121-1.124zM18.481 27.343c0 0.259-0.209 0.469-0.466 0.469h-4.608c-0.257 0-0.466-0.21-0.466-0.469s0.209-0.469 0.466-0.469h4.608c0.257 0 0.466 0.21 0.466 0.469zM5.573 21.705h-2c-1.421 0-2.584-1.135-2.639-2.552h7.277c-0.055 1.416-1.217 2.552-2.639 2.552zM6.598 18.216h-4.051l1.944-9.064c0.054 0.003 0.109 0.003 0.164 0l1.944 9.064zM4.573 8.217c-0.571 0-1.046-0.42-1.135-0.969h2.271c-0.090 0.548-0.564 0.969-1.135 0.969zM27.923 7.248c-0.090 0.548-0.564 0.969-1.135 0.969s-1.046-0.42-1.135-0.969h2.271zM26.706 9.152c0.054 0.003 0.109 0.003 0.164 0l1.944 9.064h-4.051l1.944-9.064z"></path>
</svg>
