<!-- Generated by IcoMoon.io -->
<svg version="1.1" xmlns="http://www.w3.org/2000/svg" width="32" height="32" viewBox="0 0 32 32">
<title>Linkedin</title>
<path d="M8.637 4.942c-0.040-1.796-1.324-3.164-3.41-3.164s-3.449 1.368-3.449 3.164c0 1.759 1.323 3.166 3.37 3.166h0.039c2.126 0 3.45-1.407 3.45-3.166zM8.235 10.608h-6.097v18.318h6.097v-18.318zM23.203 10.178c4.012 0 7.020 2.619 7.020 8.245l-0 10.503h-6.097v-9.8c0-2.462-0.882-4.141-3.089-4.141-1.684 0-2.688 1.132-3.128 2.226-0.161 0.392-0.201 0.938-0.201 1.486v10.23h-6.097c0 0 0.080-16.599 0-18.318h6.097v2.595c0.809-1.247 2.259-3.025 5.495-3.025z"></path>
</svg>
