<!-- Generated by IcoMoon.io -->
<svg version="1.1" xmlns="http://www.w3.org/2000/svg" width="32" height="32" viewBox="0 0 32 32">
<title>LinkedinFilled</title>
<path d="M7.449 10.295h-6.424c-0.285 0-0.516 0.231-0.516 0.516v20.638c0 0.285 0.231 0.516 0.516 0.516h6.424c0.285 0 0.516-0.231 0.516-0.516v-20.638c0-0.285-0.231-0.516-0.516-0.516z"></path>
<path d="M4.239 0.035c-2.337 0-4.239 1.9-4.239 4.234 0 2.336 1.902 4.236 4.239 4.236 2.336 0 4.236-1.9 4.236-4.236s-1.9-4.234-4.236-4.234z"></path>
<path d="M23.789 9.782c-2.58 0-4.487 1.109-5.644 2.369v-1.34c0-0.285-0.231-0.516-0.516-0.516h-6.152c-0.285 0-0.516 0.231-0.516 0.516v20.638c0 0.285 0.231 0.516 0.516 0.516h6.41c0.285 0 0.516-0.231 0.516-0.516v-10.211c0-3.441 0.935-4.781 3.333-4.781 2.612 0 2.82 2.149 2.82 4.958v10.034c0 0.285 0.231 0.516 0.516 0.516h6.412c0.285 0 0.516-0.231 0.516-0.516v-11.32c0-5.116-0.976-10.347-8.211-10.347z"></path>
</svg>
