<!-- Generated by IcoMoon.io -->
<svg version="1.1" xmlns="http://www.w3.org/2000/svg" width="32" height="32" viewBox="0 0 32 32">
<title>ListViewMode</title>
<path fill="#fff" d="M4 1c0-0.552-0.448-1-1-1h-2c-0.552 0-1 0.448-1 1v2c0 0.552 0.448 1 1 1h2c0.552 0 1-0.448 1-1v-2zM32 1c0-0.552-0.448-1-1-1h-22c-0.552 0-1 0.448-1 1v2c0 0.552 0.448 1 1 1h22c0.552 0 1-0.448 1-1v-2zM32 15c0-0.552-0.448-1-1-1h-22c-0.552 0-1 0.448-1 1v2c0 0.552 0.448 1 1 1h22c0.552 0 1-0.448 1-1v-2zM8 29c0-0.552 0.448-1 1-1h22c0.552 0 1 0.448 1 1v2c0 0.552-0.448 1-1 1h-22c-0.552 0-1-0.448-1-1v-2zM0 15c0-0.552 0.448-1 1-1h2c0.552 0 1 0.448 1 1v2c0 0.552-0.448 1-1 1h-2c-0.552 0-1-0.448-1-1v-2zM4 29c0-0.552-0.448-1-1-1h-2c-0.552 0-1 0.448-1 1v2c0 0.552 0.448 1 1 1h2c0.552 0 1-0.448 1-1v-2z"></path>
</svg>
