<!-- Generated by IcoMoon.io -->
<svg version="1.1" xmlns="http://www.w3.org/2000/svg" width="31" height="32" viewBox="0 0 31 32">
<title>LocationShape</title>
<path fill="#0e3556" d="M2.612 0h26.122c1.443 0 2.612 1.17 2.612 2.612v26.776c0 1.443-1.17 2.612-2.612 2.612h-26.122c-1.443 0-2.612-1.17-2.612-2.612v-26.776c0-1.443 1.17-2.612 2.612-2.612z"></path>
<path fill="#f6f6f6" d="M16.779 11.805c0 0.749-0.607 1.357-1.357 1.357s-1.357-0.607-1.357-1.356 0.608-1.357 1.357-1.357c0.749 0 1.357 0.607 1.357 1.356zM13.614 17.683h0.452v2.713c0 0.249 0.203 0.452 0.452 0.452h1.808c0.249 0 0.452-0.203 0.452-0.452v-2.713h0.452c0.249 0 0.452-0.203 0.452-0.452v-2.713c0-0.231-0.363-0.739-0.993-0.813-0.259-0.049-0.758-0.085-1.261-0.085-0.508-0-1.014 0.035-1.275 0.085-0.63 0.074-0.993 0.582-0.993 0.813v2.713c0 0.249 0.203 0.452 0.452 0.452zM20.396 20.396c0 1.242-2.578 1.808-4.973 1.808s-4.973-0.566-4.973-1.808c0-0.956 1.422-1.407 2.615-1.617 0.247-0.043 0.481 0.121 0.524 0.367s-0.121 0.481-0.367 0.524c-1.439 0.252-1.845 0.648-1.869 0.733 0.069 0.237 1.426 0.897 4.070 0.897s4.001-0.66 4.070-0.911c-0.024-0.071-0.433-0.469-1.882-0.721-0.246-0.043-0.41-0.277-0.368-0.523s0.273-0.41 0.523-0.368c1.2 0.209 2.629 0.659 2.629 1.619z"></path>
</svg>
