<!-- Generated by IcoMoon.io -->
<svg version="1.1" xmlns="http://www.w3.org/2000/svg" width="27" height="32" viewBox="0 0 27 32">
<title>LocationMarker</title>
<path fill="#53545d" d="M0.889 12.799c0-7.069 5.73-12.799 12.799-12.799s12.799 5.73 12.799 12.799c0 6.010-2.918 8.361-5.638 10.553-1.784 1.438-3.483 2.806-4.218 5.094l-0.816 2.464c-0.229 0.681-0.883 1.125-1.6 1.088h-0.896c-0.717 0.037-1.371-0.407-1.6-1.088l-0.816-2.464c-0.764-2.281-2.487-3.649-4.292-5.081-2.765-2.195-5.723-4.544-5.723-10.566zM8.888 12.799c0 2.651 2.149 4.8 4.8 4.8 1.273 0 2.494-0.506 3.394-1.406s1.406-2.121 1.406-3.394c0-2.651-2.149-4.8-4.8-4.8s-4.8 2.149-4.8 4.8z"></path>
</svg>
