<!-- Generated by IcoMoon.io -->
<svg version="1.1" xmlns="http://www.w3.org/2000/svg" width="32" height="32" viewBox="0 0 32 32">
<title>LockFilled</title>
<path d="M27.331 12h-2v-2.669c0-5.144-4.188-9.331-9.331-9.331s-9.331 4.188-9.331 9.331v2.669h-2c-0.369 0-0.669 0.3-0.669 0.669v16.669c0 1.469 1.194 2.663 2.669 2.663h18.669c1.469 0 2.669-1.194 2.669-2.669v-16.663c-0.006-0.369-0.306-0.669-0.675-0.669zM17.994 25.925c0.019 0.188-0.037 0.375-0.169 0.519-0.125 0.144-0.306 0.225-0.494 0.225h-2.669c-0.188 0-0.369-0.081-0.494-0.225s-0.188-0.331-0.169-0.519l0.419-3.781c-0.681-0.494-1.094-1.281-1.094-2.144 0-1.469 1.194-2.669 2.669-2.669s2.669 1.194 2.669 2.669c0 0.863-0.406 1.65-1.094 2.144l0.425 3.781zM21.331 12h-10.662v-2.669c0-2.944 2.394-5.331 5.331-5.331s5.331 2.394 5.331 5.331v2.669z"></path>
</svg>
