<!-- Generated by IcoMoon.io -->
<svg version="1.1" xmlns="http://www.w3.org/2000/svg" width="32" height="32" viewBox="0 0 32 32">
<title>MagnifyV2</title>
<path d="M2.705 12.443c0-5.612 4.466-10.191 9.979-10.191 5.495 0 9.979 4.561 9.979 10.191s-4.466 10.191-9.979 10.191c-5.513 0-9.979-4.579-9.979-10.191zM21.615 20.889c2.003-2.215 3.253-5.18 3.253-8.446 0-6.85-5.458-12.443-12.184-12.443s-12.184 5.593-12.184 12.443c0 6.85 5.458 12.443 12.184 12.443 2.738 0 5.256-0.92 7.296-2.477l9.060 9.253c0.221 0.225 0.496 0.338 0.772 0.338s0.57-0.113 0.772-0.338c0.423-0.432 0.423-1.145 0-1.595l-8.968-9.178z"></path>
</svg>
