<!-- Generated by IcoMoon.io -->
<svg version="1.1" xmlns="http://www.w3.org/2000/svg" width="32" height="32" viewBox="0 0 32 32">
<title>MailFilledV2</title>
<path d="M2.909 11.433c0.383 0.271 1.539 1.074 3.467 2.41s3.405 2.365 4.431 3.086c0.112 0.079 0.352 0.251 0.719 0.516s0.671 0.479 0.913 0.643c0.243 0.164 0.536 0.347 0.88 0.549s0.668 0.355 0.973 0.456c0.304 0.102 0.586 0.152 0.845 0.152h0.034c0.259 0 0.541-0.051 0.845-0.152s0.629-0.254 0.973-0.456 0.637-0.386 0.88-0.549c0.243-0.164 0.547-0.378 0.913-0.643s0.606-0.437 0.719-0.516c1.037-0.721 3.676-2.554 7.915-5.497 0.823-0.575 1.511-1.268 2.063-2.080s0.829-1.662 0.829-2.553c0-0.744-0.268-1.381-0.804-1.911s-1.17-0.795-1.903-0.795h-24.896c-0.868 0-1.536 0.293-2.004 0.88s-0.702 1.319-0.702 2.198c0 0.711 0.31 1.48 0.93 2.308s1.28 1.48 1.979 1.954z"></path>
<path d="M28.616 13.243c-3.698 2.503-6.506 4.448-8.423 5.835-0.643 0.473-1.164 0.843-1.564 1.107s-0.933 0.536-1.599 0.812c-0.665 0.277-1.285 0.415-1.86 0.415h-0.034c-0.575 0-1.195-0.138-1.86-0.415s-1.198-0.547-1.598-0.812c-0.4-0.265-0.922-0.634-1.564-1.107-1.523-1.116-4.324-3.062-8.406-5.835-0.643-0.428-1.212-0.919-1.709-1.471v13.429c0 0.745 0.265 1.381 0.795 1.911s1.167 0.795 1.911 0.795h24.896c0.744 0 1.381-0.265 1.911-0.795s0.795-1.167 0.795-1.911v-13.429c-0.485 0.541-1.049 1.031-1.692 1.471z"></path>
</svg>
