<!-- Generated by IcoMoon.io -->
<svg version="1.1" xmlns="http://www.w3.org/2000/svg" width="32" height="32" viewBox="0 0 32 32">
<title>Mail</title>
<path d="M29.261 5.981l-13.117 11.006-13.117-11.006v-0.792h26.234v0.792zM29.261 25.369h-26.234v-15.437l11.819 9.917c0.376 0.316 0.836 0.474 1.297 0.474s0.921-0.158 1.297-0.474l11.819-9.917v15.437zM30.27 2.162h-28.253c-1.114 0-2.018 0.903-2.018 2.018v22.198c0 1.114 0.904 2.018 2.018 2.018h28.253c1.114 0 2.018-0.904 2.018-2.018v-22.198c0-1.115-0.904-2.018-2.018-2.018z"></path>
</svg>
