<!-- Generated by IcoMoon.io -->
<svg version="1.1" xmlns="http://www.w3.org/2000/svg" width="31" height="32" viewBox="0 0 31 32">
<title>MapShape</title>
<path fill="#0e3556" d="M2.612 0h26.122c1.443 0 2.612 1.17 2.612 2.612v26.776c0 1.443-1.17 2.612-2.612 2.612h-26.122c-1.443 0-2.612-1.17-2.612-2.612v-26.776c0-1.443 1.17-2.612 2.612-2.612z"></path>
<path fill="#fff" d="M19.69 11.265h0.147c0.135 0 0.245 0.11 0.245 0.245v7.264c0.001 0.2-0.119 0.38-0.304 0.456l-1.778 0.74c-0.178 0.074-0.37 0.113-0.563 0.113h-0.588c-0.193-0-0.385-0.038-0.563-0.113l-2.082-0.867-2.17 0.906c-0.12 0.049-0.248 0.074-0.377 0.073h-0.147c-0.135 0-0.245-0.11-0.245-0.245v-7.264c-0.001-0.2 0.119-0.38 0.304-0.456l1.778-0.74c0.179-0.074 0.37-0.113 0.563-0.113h0.588c0.193 0 0.385 0.038 0.563 0.113l2.082 0.867 2.17-0.906c0.12-0.049 0.248-0.074 0.377-0.073zM13.714 12.284l-1.469 0.612v5.961l1.469-0.612v-5.961zM14.694 18.245l1.959 0.818v-5.961l-1.959-0.818v5.961zM17.633 19.063l1.469-0.612v-5.961l-1.469 0.612v5.961z"></path>
</svg>
