<!-- Generated by IcoMoon.io -->
<svg version="1.1" xmlns="http://www.w3.org/2000/svg" width="32" height="32" viewBox="0 0 32 32">
<title>Maps</title>
<path d="M7.531 7.142l-5.118 2.662v3.18l5.118-2.662z"></path>
<path d="M20.693 30.993v-24.897l-9.652-5.060v24.817l9.652 5.141zM19.304 24.719c0.008 0.175-0.088 0.344-0.234 0.439-0.073 0.051-0.161 0.073-0.256 0.073-0.080 0-0.161-0.022-0.234-0.058l-5.74-3.027c-0.168-0.088-0.27-0.264-0.264-0.454v-5.052c-0.008-0.175 0.088-0.344 0.234-0.439s0.336-0.095 0.49-0.015l5.74 3.020c0.168 0.088 0.27 0.264 0.264 0.454v5.060zM19.267 14.848c-0.132 0.248-0.439 0.344-0.695 0.212l-5.747-3.020c-0.248-0.132-0.344-0.439-0.212-0.687s0.439-0.344 0.687-0.219l5.747 3.020c0.256 0.139 0.351 0.446 0.219 0.695zM12.613 7.025c0.132-0.248 0.439-0.344 0.695-0.212l5.747 3.020c0.248 0.132 0.344 0.439 0.212 0.695-0.066 0.117-0.168 0.212-0.3 0.248s-0.27 0.029-0.388-0.037l-5.747-3.020c-0.256-0.139-0.351-0.446-0.219-0.695z"></path>
<path d="M13.6 21.385l4.68 2.486v-3.897l-4.68-2.486z"></path>
<path d="M0 31.030l10.017-5.176v-24.824l-10.017 5.096v24.904zM8.306 20.472l-6.208 3.188c-0.161 0.088-0.359 0.073-0.512-0.022-0.153-0.103-0.241-0.27-0.234-0.454s0.117-0.351 0.278-0.431l6.208-3.188c0.161-0.088 0.359-0.073 0.512 0.022 0.153 0.103 0.241 0.27 0.234 0.454s-0.11 0.351-0.278 0.431zM1.389 9.489c-0.008-0.19 0.088-0.365 0.256-0.454l6.185-3.188c0.153-0.080 0.344-0.073 0.49 0.022s0.234 0.264 0.227 0.439v4.328c0.008 0.19-0.095 0.365-0.256 0.454l-6.193 3.188c-0.073 0.037-0.146 0.058-0.227 0.058-0.088 0-0.183-0.029-0.256-0.073-0.146-0.095-0.234-0.264-0.227-0.439v-4.336zM1.63 19.141l6.208-3.188c0.161-0.088 0.359-0.073 0.512 0.022 0.153 0.103 0.241 0.27 0.234 0.454s-0.117 0.351-0.278 0.431l-6.208 3.188c-0.161 0.088-0.359 0.073-0.512-0.022-0.153-0.103-0.241-0.27-0.234-0.454s0.117-0.351 0.278-0.431z"></path>
<path d="M21.717 31.059v0l10.164-5.206v-24.912l-10.164 5.206v24.912zM23.529 10.41l6.208-3.188c0.161-0.088 0.359-0.080 0.512 0.022s0.241 0.278 0.234 0.46c-0.008 0.183-0.117 0.351-0.285 0.431l-6.208 3.188c-0.161 0.088-0.359 0.073-0.512-0.022-0.153-0.103-0.241-0.27-0.234-0.454 0.015-0.198 0.117-0.359 0.285-0.439zM23.529 14.015l6.208-3.188c0.161-0.088 0.359-0.080 0.512 0.022s0.241 0.278 0.234 0.46c-0.008 0.183-0.117 0.351-0.285 0.431l-6.208 3.188c-0.161 0.088-0.359 0.073-0.512-0.022-0.153-0.103-0.241-0.27-0.234-0.454 0.015-0.19 0.117-0.359 0.285-0.439zM23.529 17.627l6.208-3.188c0.161-0.088 0.359-0.073 0.512 0.022 0.153 0.103 0.241 0.278 0.234 0.46s-0.117 0.351-0.285 0.431l-6.208 3.188c-0.161 0.088-0.359 0.073-0.512-0.022-0.153-0.103-0.241-0.27-0.234-0.454 0.015-0.198 0.117-0.359 0.285-0.439z"></path>
</svg>
