<!-- Generated by IcoMoon.io -->
<svg version="1.1" xmlns="http://www.w3.org/2000/svg" width="34" height="32" viewBox="0 0 34 32">
<title>MapView</title>
<path fill="#fff" d="M11.579 0c3.191 0 5.911 2.094 6.902 5.002 2.364-0.481 3.379-0.689 3.461-0.703 0.009-0.002 0.016-0.003 0.023-0.005l0.020-0.005c0.016-0.004 0.030-0.007 0.052-0.007l0.030 0 0.041 0.003c0.357 0.034 1.871 0.358 10.781 2.16 0.462 0.093 0.794 0.506 0.794 0.985v0 23.563c0 0.633-0.57 1.108-1.179 0.985v0l-10.399-2.103c-9.066 1.845-10.269 2.107-10.531 2.124l-0.050 0c-0.006-0.001-0.012-0.001-0.018-0.002l-0.017-0.003-0.030-0.005c-0.003-0-0.004-0-0.005-0-0.091-0.014-0.864-0.172-10.66-2.153-0.462-0.093-0.794-0.506-0.794-0.985v0-23.563c0-0.634 0.57-1.108 1.179-0.985v0l3.495 0.707c0.989-2.912 3.71-5.010 6.905-5.010zM1.974 6.511v21.515l8.618 1.743v-9.177c-0.457-0.686-1.732-2.633-3.025-4.901-2.215-3.884-3.291-6.586-3.291-8.261 0-0.151 0.005-0.301 0.014-0.45v0l-2.316-0.468zM23.092 6.511v21.515l8.618 1.743v-21.515l-8.618-1.743zM21.118 6.513l-2.251 0.458c0.009 0.152 0.014 0.305 0.014 0.459 0 1.674-1.076 4.376-3.291 8.261-1.293 2.268-2.568 4.215-3.025 4.901v0 9.176l8.553-1.74v-21.515zM11.579 2.008c-2.938 0-5.329 2.432-5.329 5.422 0 2.523 3.969 8.928 5.329 11.044 1.362-2.119 5.329-8.522 5.329-11.044 0-2.99-2.391-5.422-5.329-5.422zM11.579 4.284c1.705 0 3.092 1.411 3.092 3.146s-1.387 3.146-3.092 3.146c-1.705 0-3.092-1.411-3.092-3.146s1.387-3.146 3.092-3.146zM11.579 6.292c-0.617 0-1.118 0.51-1.118 1.138s0.502 1.138 1.118 1.138c0.617 0 1.118-0.51 1.118-1.138s-0.502-1.138-1.118-1.138z"></path>
</svg>
