<!-- Generated by IcoMoon.io -->
<svg version="1.1" xmlns="http://www.w3.org/2000/svg" width="32" height="32" viewBox="0 0 32 32">
<title>MinusCircle</title>
<path d="M15.949 32c-8.746 0-15.949-7.203-15.949-16.051s7.203-15.949 15.949-15.949 15.949 7.203 15.949 15.949c0.103 8.849-7.1 16.051-15.949 16.051zM15.949 1.852c-7.82 0-14.096 6.277-14.096 14.096s6.379 14.199 14.199 14.199c7.82 0 14.199-6.379 14.199-14.199s-6.482-14.096-14.302-14.096z"></path>
<path d="M22.328 16.875h-12.656c-0.514 0-0.926-0.412-0.926-0.926s0.412-0.926 0.926-0.926h12.553c0.514 0 0.926 0.412 0.926 0.926s-0.412 0.926-0.823 0.926z"></path>
</svg>
