<!-- Generated by IcoMoon.io -->
<svg version="1.1" xmlns="http://www.w3.org/2000/svg" width="32" height="32" viewBox="0 0 32 32">
<title>Mobile</title>
<path d="M22.766 0h-13.431c-1.285 0-2.336 1.051-2.336 2.336v27.328c0 1.285 1.051 2.336 2.336 2.336h13.431c1.285 0 2.336-1.051 2.336-2.336v-27.328c0-1.285-1.051-2.336-2.336-2.336zM12.723 1.401h6.657c0.117 0 0.35 0.234 0.35 0.584s-0.117 0.584-0.35 0.584h-6.657c-0.117 0-0.234-0.234-0.234-0.584s0.117-0.584 0.234-0.584zM16.11 29.781c-0.818 0-1.518-0.701-1.518-1.518s0.701-1.518 1.518-1.518c0.818 0 1.518 0.701 1.518 1.518-0.117 0.818-0.701 1.518-1.518 1.518zM23.35 24.642h-14.599v-20.672h14.599v20.672z"></path>
</svg>
