<!-- Generated by IcoMoon.io -->
<svg version="1.1" xmlns="http://www.w3.org/2000/svg" width="32" height="32" viewBox="0 0 32 32">
<title>Money</title>
<path fill="#0e3556" opacity="0.8" d="M30.4 5.12h-28.8c-0.883 0-1.6 0.737-1.6 1.646v19.749c0 0.909 0.717 1.646 1.6 1.646h28.8c0.884 0 1.6-0.737 1.6-1.646v-19.749c0-0.909-0.716-1.646-1.6-1.646zM8.8 20.337v0.829c0 0.227-0.179 0.412-0.4 0.412h-0.8c-0.221 0-0.4-0.184-0.4-0.412v-0.838c-0.564-0.030-1.114-0.232-1.569-0.584-0.195-0.151-0.205-0.451-0.029-0.624l0.588-0.576c0.138-0.136 0.345-0.142 0.506-0.038 0.194 0.124 0.413 0.191 0.641 0.191h1.406c0.325 0 0.59-0.304 0.59-0.678 0-0.306-0.181-0.576-0.438-0.655l-2.25-0.694c-0.929-0.287-1.579-1.204-1.579-2.232 0-1.261 0.952-2.285 2.134-2.318v-0.829c0-0.227 0.179-0.411 0.4-0.411h0.8c0.221 0 0.4 0.184 0.4 0.411v0.838c0.565 0.030 1.114 0.232 1.569 0.584 0.195 0.151 0.205 0.451 0.028 0.624l-0.588 0.576c-0.139 0.136-0.345 0.142-0.507 0.038-0.194-0.125-0.413-0.191-0.641-0.191h-1.405c-0.325 0-0.59 0.304-0.59 0.678 0 0.306 0.181 0.575 0.439 0.655l2.25 0.694c0.93 0.287 1.579 1.204 1.579 2.232 0 1.262-0.953 2.285-2.133 2.318zM20.8 19.52c0 0.227-0.179 0.411-0.4 0.411h-5.6c-0.221 0-0.4-0.184-0.4-0.411v-0.823c0-0.227 0.179-0.412 0.4-0.412h5.6c0.221 0 0.4 0.184 0.4 0.412v0.823zM28.8 19.52c0 0.227-0.179 0.411-0.4 0.411h-4c-0.221 0-0.4-0.184-0.4-0.411v-0.823c0-0.227 0.179-0.412 0.4-0.412h4c0.221 0 0.4 0.184 0.4 0.412v0.823zM28.8 14.583c0 0.227-0.179 0.411-0.4 0.411h-13.6c-0.221 0-0.4-0.184-0.4-0.411v-0.823c0-0.227 0.179-0.411 0.4-0.411h13.6c0.221 0 0.4 0.184 0.4 0.411v0.823z"></path>
</svg>
