<!-- Generated by IcoMoon.io -->
<svg version="1.1" xmlns="http://www.w3.org/2000/svg" width="32" height="32" viewBox="0 0 32 32">
<title>MoneyBag</title>
<path d="M17.95 21.256c-0.12-0.128-0.271-0.226-0.429-0.309-0.339-0.181-0.715-0.286-1.084-0.384v2.861c0.602-0.068 1.288-0.286 1.604-0.843 0 0 0 0 0 0s0 0 0 0 0 0 0 0c0.151-0.271 0.181-0.595 0.12-0.896-0.038-0.158-0.105-0.309-0.211-0.429z"></path>
<path d="M13.628 16.678c-0.105 0.151-0.166 0.324-0.188 0.504-0.015 0.181-0.008 0.384 0.060 0.557 0.068 0.166 0.203 0.286 0.346 0.384 0.158 0.105 0.339 0.196 0.512 0.264 0.151 0.060 0.316 0.12 0.504 0.173v-2.59c-0.459 0.098-0.964 0.309-1.235 0.708z"></path>
<path d="M17.446 6.965c2.432-2.048 4.058-6.648 3.057-6.852-1.333-0.271-4.216 0.904-5.617 1.114-1.98 0.241-4.134-2.146-5.346-0.821-0.986 1.084 0.708 5.015 3.351 6.724-7.891 3.878-18.974 23.334 0.369 24.749 26.76 1.958 13.365-21.143 4.186-24.915zM19.742 22.31c-0.083 0.76-0.482 1.446-1.084 1.912-0.632 0.489-1.431 0.723-2.221 0.783v0.836c0 0.226-0.098 0.444-0.264 0.587-0.233 0.203-0.572 0.256-0.851 0.128s-0.459-0.414-0.459-0.715v-0.919c-0.136-0.023-0.271-0.053-0.407-0.090-0.738-0.203-1.423-0.602-1.928-1.182-0.248-0.294-0.452-0.625-0.595-0.979-0.038-0.090-0.068-0.188-0.098-0.286-0.023-0.090-0.053-0.173-0.060-0.264-0.015-0.151 0.015-0.309 0.083-0.444 0.143-0.279 0.452-0.444 0.768-0.422 0.309 0.030 0.58 0.241 0.678 0.535 0.030 0.090 0.053 0.181 0.083 0.271s0.075 0.173 0.12 0.256 0.211 0.309 0.346 0.444c0.279 0.271 0.632 0.444 1.001 0.542v-3.117c-0.723-0.188-1.468-0.429-2.063-0.888-0.286-0.226-0.535-0.504-0.7-0.836-0.173-0.346-0.241-0.738-0.241-1.129s0.075-0.783 0.233-1.144c0.151-0.339 0.376-0.64 0.648-0.888 0.58-0.535 1.348-0.828 2.123-0.941v-0.851c0-0.226 0.098-0.444 0.264-0.587 0.233-0.203 0.572-0.256 0.851-0.128s0.459 0.414 0.459 0.715v0.858c0.105 0.015 0.203 0.030 0.309 0.045 0.76 0.136 1.498 0.452 2.056 0.994 0.264 0.256 0.474 0.565 0.632 0.904 0.045 0.090 0.083 0.188 0.113 0.286 0.030 0.090 0.060 0.188 0.075 0.279 0.023 0.151 0 0.309-0.068 0.452-0.136 0.286-0.429 0.467-0.745 0.452-0.309-0.015-0.587-0.218-0.7-0.504-0.030-0.083-0.053-0.181-0.083-0.264-0.038-0.090-0.075-0.173-0.128-0.248-0.098-0.151-0.226-0.286-0.369-0.392-0.316-0.233-0.7-0.354-1.077-0.422v2.982c0.452 0.105 0.911 0.226 1.348 0.399 0.655 0.256 1.28 0.655 1.641 1.288-0.053-0.098-0.113-0.196 0 0s0.060 0.098 0 0.008c0.279 0.512 0.376 1.114 0.309 1.687z"></path>
</svg>
