<!-- Generated by IcoMoon.io -->
<svg version="1.1" xmlns="http://www.w3.org/2000/svg" width="32" height="32" viewBox="0 0 32 32">
<title>NextCircle</title>
<path fill="#00acbb" d="M6.737 16.843h13.894l-5.473 5.473 1.118 1.263 7.579-7.579-7.579-7.579-1.118 1.263 5.473 5.474h-13.894v1.684zM32 16c0-2.101-0.414-4.181-1.218-6.123s-1.983-3.706-3.468-5.191c-1.486-1.485-3.25-2.663-5.191-3.468s-4.021-1.218-6.123-1.218c-2.101 0-4.181 0.414-6.123 1.218s-3.706 1.983-5.191 3.468c-1.485 1.486-2.663 3.25-3.468 5.191s-1.218 4.021-1.218 6.123c0 4.243 1.685 8.314 4.686 11.314s7.071 4.686 11.314 4.686c4.243 0 8.314-1.685 11.314-4.686s4.686-7.071 4.686-11.314zM30.316 16c0 3.797-1.508 7.438-4.192 10.123-2.687 2.685-6.326 4.193-10.124 4.193s-7.438-1.508-10.123-4.192c-2.685-2.686-4.193-6.326-4.193-10.124s1.508-7.438 4.192-10.123c2.686-2.685 6.327-4.193 10.124-4.193 3.797 0 7.438 1.508 10.123 4.192 2.685 2.687 4.193 6.329 4.193 10.124z"></path>
</svg>
