<!-- Generated by IcoMoon.io -->
<svg version="1.1" xmlns="http://www.w3.org/2000/svg" width="24" height="32" viewBox="0 0 24 32">
<title>Notarized</title>
<path fill="#696969" d="M22.899 0c0.784 0 1.421 0.634 1.421 1.413v0 29.174c0 0.779-0.637 1.413-1.421 1.413v0h-9.639c-0.26 0-0.472-0.21-0.472-0.469s0.211-0.469 0.472-0.469v0h9.639c0.264 0 0.478-0.213 0.478-0.475v0-29.174c0-0.262-0.215-0.475-0.478-0.475v0h-15.673v4.833c0 0.779-0.638 1.413-1.421 1.413v0h-4.862v23.404c0 0.262 0.215 0.475 0.478 0.475v0h9.639c0.26 0 0.472 0.21 0.472 0.469s-0.211 0.469-0.472 0.469v0h-9.639c-0.784 0-1.421-0.634-1.421-1.413v0-23.872c0-0.121 0.048-0.242 0.138-0.331v0l6.283-6.246c0.085-0.084 0.204-0.137 0.333-0.137v0zM20.64 25.6c0.265 0 0.48 0.215 0.48 0.48s-0.215 0.48-0.48 0.48h-16.96c-0.265 0-0.48-0.215-0.48-0.48s0.215-0.48 0.48-0.48h16.96zM20.64 21.76c0.265 0 0.48 0.215 0.48 0.48s-0.215 0.48-0.48 0.48h-16.96c-0.265 0-0.48-0.215-0.48-0.48s0.215-0.48 0.48-0.48h16.96zM20.64 17.92c0.265 0 0.48 0.215 0.48 0.48s-0.215 0.48-0.48 0.48h-16.96c-0.265 0-0.48-0.215-0.48-0.48s0.215-0.48 0.48-0.48h16.96zM20.64 14.080c0.265 0 0.48 0.215 0.48 0.48s-0.215 0.48-0.48 0.48h-16.96c-0.265 0-0.48-0.215-0.48-0.48s0.215-0.48 0.48-0.48h16.96zM14.88 10.24c0.265 0 0.48 0.215 0.48 0.48s-0.215 0.48-0.48 0.48h-11.2c-0.265 0-0.48-0.215-0.48-0.48s0.215-0.48 0.48-0.48h11.2zM6.283 1.6c-0.677 0.673-3.995 3.971-4.673 4.646v0h4.195c0.264 0 0.478-0.213 0.478-0.475v0z"></path>
</svg>
