<!-- Generated by IcoMoon.io -->
<svg version="1.1" xmlns="http://www.w3.org/2000/svg" width="32" height="32" viewBox="0 0 32 32">
<title>NotifySystem</title>
<path fill="#00acb9" d="M32 16c0 8.837-7.163 16-16 16s-16-7.163-16-16c0-8.837 7.163-16 16-16s16 7.163 16 16z"></path>
<path fill="#fff" d="M23.719 14.342l-0.938-0.333c-0.134-0.048-0.257-0.123-0.36-0.221s-0.185-0.217-0.239-0.349-0.081-0.273-0.077-0.416c0.004-0.143 0.037-0.283 0.099-0.411l0.427-0.899c0.156-0.328 0.206-0.696 0.144-1.054s-0.233-0.688-0.49-0.945c-0.257-0.257-0.587-0.428-0.945-0.49s-0.726-0.012-1.054 0.144l-0.899 0.427c-0.129 0.061-0.269 0.094-0.411 0.098s-0.284-0.023-0.416-0.077c-0.132-0.055-0.25-0.136-0.348-0.239s-0.173-0.226-0.221-0.36l-0.333-0.937c-0.122-0.342-0.347-0.638-0.644-0.847s-0.651-0.322-1.014-0.322c-0.363 0-0.717 0.112-1.014 0.322s-0.522 0.505-0.644 0.847l-0.333 0.938c-0.048 0.134-0.123 0.257-0.221 0.36s-0.217 0.185-0.348 0.239c-0.132 0.055-0.273 0.081-0.416 0.077s-0.282-0.037-0.411-0.098l-0.899-0.427c-0.328-0.156-0.696-0.206-1.054-0.144s-0.688 0.233-0.945 0.49c-0.257 0.257-0.428 0.587-0.49 0.945s-0.012 0.726 0.144 1.054l0.427 0.899c0.061 0.129 0.095 0.269 0.098 0.411s-0.022 0.284-0.077 0.416c-0.054 0.132-0.136 0.25-0.239 0.349s-0.226 0.174-0.36 0.222l-0.938 0.333c-0.342 0.122-0.638 0.347-0.848 0.643s-0.322 0.651-0.322 1.014c0 0.363 0.112 0.718 0.322 1.014s0.505 0.522 0.848 0.643l0.938 0.333c0.134 0.048 0.257 0.123 0.36 0.221s0.185 0.217 0.239 0.349c0.054 0.132 0.081 0.273 0.077 0.416s-0.037 0.282-0.098 0.411l-0.427 0.899c-0.156 0.328-0.206 0.696-0.144 1.054s0.233 0.688 0.49 0.945c0.257 0.257 0.587 0.428 0.945 0.49s0.726 0.012 1.054-0.144l0.899-0.427c0.129-0.061 0.269-0.095 0.411-0.099s0.284 0.023 0.416 0.077c0.132 0.055 0.25 0.136 0.348 0.239s0.173 0.226 0.221 0.361l0.333 0.937c0.122 0.342 0.347 0.638 0.644 0.847s0.651 0.322 1.014 0.322c0.363 0 0.717-0.112 1.014-0.322s0.522-0.505 0.644-0.847l0.333-0.938c0.048-0.134 0.123-0.257 0.221-0.36s0.217-0.185 0.348-0.239 0.273-0.081 0.416-0.077c0.142 0.004 0.282 0.037 0.411 0.099l0.899 0.427c0.328 0.156 0.696 0.206 1.054 0.144s0.688-0.233 0.945-0.49c0.257-0.257 0.428-0.587 0.49-0.945s0.012-0.726-0.144-1.054l-0.427-0.899c-0.061-0.129-0.095-0.269-0.098-0.411s0.023-0.284 0.077-0.416c0.054-0.132 0.136-0.25 0.239-0.349s0.226-0.174 0.36-0.221l0.938-0.334c0.342-0.122 0.638-0.347 0.848-0.643s0.322-0.651 0.322-1.014c0-0.363-0.112-0.717-0.322-1.014s-0.505-0.522-0.848-0.643zM16 19.544c-0.7-0.010-1.382-0.221-1.965-0.608s-1.043-0.933-1.325-1.573c-0.36-0.873-0.36-1.852 0.001-2.725s1.053-1.566 1.925-1.928c0.874-0.349 1.849-0.343 2.718 0.016s1.564 1.045 1.934 1.91c0.36 0.873 0.36 1.852-0.001 2.725s-1.053 1.566-1.925 1.928c-0.432 0.178-0.896 0.264-1.363 0.255z"></path>
</svg>
