<!-- Generated by IcoMoon.io -->
<svg version="1.1" xmlns="http://www.w3.org/2000/svg" width="32" height="32" viewBox="0 0 32 32">
<title>NotificationRulesManagement</title>
<path fill="#fff" d="M27.715 22.408h-1.989v-17.655c0-2.631-1.913-4.753-4.284-4.753h-17.366c-0.076 0-0.153 0-0.23 0.042-2.372 0.297-4.055 2.631-3.825 5.263 0.23 2.207 1.798 3.989 3.825 4.244 0.076 0 0.153 0.042 0.23 0.042h0.229v17.698c0.038 2.589 1.951 4.711 4.284 4.711h19.126c2.372 0 4.284-2.122 4.284-4.753 0.038-2.716-1.913-4.838-4.284-4.838zM4.305 7.003v-0.042c-1.109 0-1.989-0.976-1.989-2.207s0.88-2.207 1.989-2.207h13.35c-0.65 1.401-0.65 3.056 0 4.456h-13.35zM22.666 24.361h-15.683v-2.546h15.683v2.546zM22.666 19.268h-15.683v-2.546h15.683v2.546zM22.666 14.175h-15.683v-2.546h15.683v2.546zM27.753 29.369c-1.109 0-1.989-0.976-1.989-2.207v-2.207h1.989c1.109 0 1.989 0.976 1.989 2.207s-0.88 2.207-1.989 2.207z"></path>
</svg>
