<!-- Generated by IcoMoon.io -->
<svg version="1.1" xmlns="http://www.w3.org/2000/svg" width="32" height="32" viewBox="0 0 32 32">
<title>NotifyExchange</title>
<path fill="#00acb9" d="M32 16c0 8.837-7.163 16-16 16s-16-7.163-16-16c0-8.837 7.163-16 16-16s16 7.163 16 16z"></path>
<path fill="#fff" d="M16.292 21.713c0.046 0.043 0.083 0.096 0.108 0.154s0.038 0.121 0.038 0.184-0.013 0.126-0.038 0.184c-0.025 0.058-0.062 0.11-0.108 0.154l-0.683 0.695c-0.262 0.238-0.6 0.374-0.953 0.383s-0.698-0.11-0.971-0.335l-0.077-0.048-3.175-3.145c-0.137-0.134-0.246-0.295-0.321-0.472s-0.113-0.368-0.112-0.56c0.003-0.144 0.026-0.287 0.067-0.424 0 0 0 0 0-0.048 0.050-0.137 0.118-0.267 0.202-0.386 0.040-0.059 0.085-0.114 0.135-0.164l0.674-0.675c0.045-0.047 0.099-0.084 0.158-0.108s0.124-0.037 0.188-0.036c0.125 0.001 0.245 0.049 0.337 0.135l4.532 4.515zM13.136 11.044l0.173-0.145c0.098-0.081 0.159-0.197 0.172-0.324s-0.025-0.253-0.105-0.351l-1.203-1.495c-0.039-0.055-0.089-0.1-0.147-0.134s-0.123-0.054-0.19-0.059c-0.062-0.007-0.125-0.001-0.184 0.017s-0.115 0.049-0.162 0.089l-4.917 4.1c-0.098 0.081-0.16 0.197-0.172 0.324s0.025 0.253 0.105 0.351l1.222 1.495c0.039 0.049 0.087 0.089 0.141 0.119s0.115 0.048 0.176 0.054c0.1 0.005 0.199-0.026 0.279-0.087l4.811-3.955zM21.796 18.607l-4.185-3.482-1.414 1.129c-0.397 0.316-0.9 0.468-1.405 0.427s-0.976-0.273-1.318-0.649c-0.186-0.197-0.328-0.431-0.418-0.687s-0.124-0.528-0.102-0.798c0.020-0.266 0.094-0.525 0.216-0.762s0.291-0.447 0.496-0.617l1.453-1.206-1.020-0.444-5.301 4.399 0.481 0.965c0.017 0.039 0.039 0.075 0.067 0.106l0.269 0.309 0.087-0.077 0.683-0.675c0.275-0.259 0.638-0.403 1.015-0.403s0.74 0.144 1.015 0.403l4.57 4.476c0.266 0.273 0.415 0.64 0.414 1.023-0.002 0.355-0.132 0.698-0.366 0.965l4.301-2.672c0.033-0.017 0.062-0.040 0.087-0.068 0.211-0.208 0.352-0.477 0.404-0.769s0.011-0.593-0.116-0.861l0.087-0.029zM25.452 12.732l-4.849-4.032c-0.102-0.078-0.228-0.116-0.356-0.106-0.128 0.017-0.245 0.083-0.327 0.183l-1.212 1.495c-0.080 0.099-0.117 0.225-0.105 0.351s0.074 0.243 0.172 0.324h0.048l5.032 4.167v-0.077h0.106c0.127-0.014 0.244-0.076 0.327-0.174l1.212-1.495c0.070-0.093 0.105-0.207 0.099-0.323s-0.051-0.227-0.128-0.313h-0.019zM15.667 12.732l-1.386 1.177c-0.11 0.087-0.199 0.196-0.262 0.321s-0.098 0.262-0.103 0.402c-0.010 0.14 0.009 0.281 0.055 0.414s0.119 0.255 0.214 0.358c0.177 0.195 0.422 0.316 0.684 0.338s0.523-0.058 0.73-0.222l1.741-1.389c0.085-0.071 0.192-0.111 0.303-0.111s0.218 0.039 0.303 0.111l4.58 3.801 0.279-0.685 0.395-0.965 0.164-0.28-5.34-4.418-2.357 1.148z"></path>
</svg>
