<!-- Generated by IcoMoon.io -->
<svg version="1.1" xmlns="http://www.w3.org/2000/svg" width="32" height="32" viewBox="0 0 32 32">
<title>NotifySuggestion</title>
<path fill="#00acb9" d="M32 16c0 8.837-7.163 16-16 16s-16-7.163-16-16c0-8.837 7.163-16 16-16s16 7.163 16 16z"></path>
<path fill="#fff" d="M20.889 11.117l0.897-0.897c0.197-0.197 0.197-0.517 0-0.717-0.197-0.197-0.516-0.197-0.717 0l-0.897 0.897c-0.197 0.197-0.197 0.517 0 0.717 0.197 0.197 0.52 0.197 0.717 0z"></path>
<path fill="#fff" d="M20.889 19.464c-0.197-0.197-0.516-0.197-0.717 0-0.197 0.197-0.197 0.517 0 0.717l0.897 0.897c0.197 0.197 0.516 0.197 0.717 0 0.197-0.197 0.197-0.516 0-0.717l-0.897-0.897z"></path>
<path fill="#fff" d="M11.111 11.117c0.197 0.197 0.516 0.197 0.717 0 0.197-0.197 0.197-0.516 0-0.717l-0.897-0.897c-0.197-0.197-0.516-0.197-0.717 0s-0.197 0.516 0 0.717l0.897 0.897z"></path>
<path fill="#fff" d="M20.738 14.593c-0.287-2.435-2.453-4.092-4.738-4.092-2.64 0-4.788 2.148-4.788 4.792 0 1.514 0.692 2.905 1.901 3.82 0.549 0.416 0.861 1.029 0.861 1.689v0.696c-0.018 0.287 0.294 0.574 0.617 0.495l3.042-0.696c0.23-0.054 0.395-0.258 0.395-0.495 0-0.656 0.323-1.277 0.882-1.707 1.395-1.065 2.077-2.747 1.829-4.501z"></path>
<path fill="#fff" d="M14.59 23.653l3.045-0.696c0.273-0.061 0.445-0.334 0.38-0.606-0.061-0.273-0.334-0.441-0.606-0.38l-3.045 0.696c-0.273 0.061-0.445 0.334-0.38 0.606 0.050 0.265 0.351 0.456 0.606 0.38z"></path>
<path fill="#fff" d="M17.41 23.639l-3.045 0.696c-0.273 0.061-0.445 0.334-0.38 0.606 0.075 0.298 0.359 0.438 0.606 0.38l3.045-0.696c0.273-0.061 0.445-0.334 0.38-0.606-0.061-0.273-0.334-0.445-0.606-0.38z"></path>
<path fill="#fff" d="M16 9.392c0.28 0 0.506-0.226 0.506-0.506v-1.27c0-0.28-0.226-0.506-0.506-0.506s-0.506 0.226-0.506 0.506v1.266c0 0.28 0.226 0.509 0.506 0.509z"></path>
<path fill="#fff" d="M23.672 14.783h-1.266c-0.28 0-0.506 0.226-0.506 0.506s0.226 0.506 0.506 0.506h1.266c0.28 0 0.506-0.226 0.506-0.506 0.004-0.276-0.226-0.506-0.506-0.506z"></path>
<path fill="#fff" d="M9.594 14.783h-1.266c-0.28 0-0.506 0.226-0.506 0.506s0.226 0.506 0.506 0.506h1.266c0.28 0 0.506-0.226 0.506-0.506 0-0.276-0.226-0.506-0.506-0.506z"></path>
<path fill="#fff" d="M11.111 19.464l-0.897 0.897c-0.197 0.197-0.197 0.516 0 0.717 0.197 0.197 0.516 0.197 0.717 0l0.897-0.897c0.197-0.197 0.197-0.516 0-0.717-0.197-0.197-0.52-0.197-0.717 0z"></path>
</svg>
