<!-- Generated by IcoMoon.io -->
<svg version="1.1" xmlns="http://www.w3.org/2000/svg" width="32" height="32" viewBox="0 0 32 32">
<title>Paypal</title>
<path d="M29.647 5.581c1.3 2.384 0.871 5.194 0.359 6.856-2.77 9.048-15.269 8.556-17.077 8.556-1.806 0-2.227 1.684-2.227 1.684l-1.35 5.891c-0.368 2.068-2.244 1.965-2.244 1.965s-2.438 0-4.068 0c-0.102 0-0.198-0.007-0.285-0.020-0.020 0.379 0.034 1.486 1.388 1.486 1.629 0 4.067 0 4.067 0s1.875 0.105 2.245-1.963l1.349-5.891c0 0 0.422-1.684 2.228-1.684s14.307 0.492 17.079-8.556c0.618-2.022 1.121-5.739-1.462-8.323z"></path>
<path d="M8.095 27.284l1.35-5.892c0 0 0.419-1.681 2.228-1.681 1.805 0 14.306 0.489 17.076-8.557 1.014-3.307 1.717-11.154-10.905-11.154h-9.117c0 0-1.895-0.088-2.363 1.927l-5.957 25.71c0 0-0.256 1.611 1.374 1.611s4.070 0 4.070 0 1.875 0.106 2.244-1.964zM11.531 12.329l1.211-5.224c0 0 0.386-1.421 1.631-1.631 1.245-0.211 3.365 0.038 3.91 0.14 3.541 0.665 2.788 4.015 2.788 4.015-0.701 5.171-8.75 4.454-8.75 4.454-1.262-0.456-0.789-1.754-0.789-1.754z"></path>
</svg>
