<!-- Generated by IcoMoon.io -->
<svg version="1.1" xmlns="http://www.w3.org/2000/svg" width="32" height="32" viewBox="0 0 32 32">
<title>PencilV2</title>
<path d="M31.371 6.709l-6.078-6.079c-0.838-0.84-2.199-0.84-3.038 0l-1.519 1.52c-0.84 0.839-0.84 2.2 0 3.040l6.077 6.078c0.839 0.84 2.199 0.84 3.039 0l1.519-1.52c0.839-0.838 0.839-2.2 0-3.039zM12.31 26.172c-0.009 0.006-0.021 0.014-0.035 0.022-0.007 0.005-0.017 0.010-0.025 0.017s-0.018 0.011-0.029 0.017c-0.010 0.006-0.018 0.011-0.029 0.017-0.353 0.211-1.392 0.758-3.911 1.669-0.295 0.106-0.615 0.219-0.951 0.335l-3.582-3.583c0.116-0.338 0.23-0.661 0.337-0.957 0.909-2.529 1.456-3.57 1.666-3.922 0.006-0.009 0.010-0.017 0.015-0.024 0.007-0.013 0.014-0.024 0.021-0.033 0.005-0.009 0.010-0.017 0.015-0.025 0.009-0.013 0.016-0.025 0.023-0.036l0.262-0.262 6.493 6.495-0.268 0.269zM19.217 6.709c-0.84-0.84-2.2-0.84-3.038 0l-11.727 11.737c0 0-1.069 1.076-3.481 8.86-0.017 0.054-0.033 0.109-0.051 0.164-0.043 0.14-0.087 0.28-0.13 0.424-0.039 0.127-0.078 0.257-0.118 0.387-0.033 0.11-0.066 0.219-0.099 0.331-0.077 0.255-0.155 0.514-0.234 0.782-0.173 0.588-0.596 1.914-0.118 2.394 0.46 0.462 1.802 0.056 2.388-0.118 0.266-0.079 0.523-0.156 0.777-0.232 0.117-0.036 0.231-0.070 0.344-0.105 0.123-0.037 0.246-0.075 0.365-0.111 0.152-0.047 0.3-0.093 0.448-0.137 0.044-0.014 0.086-0.027 0.13-0.041 7.411-2.306 8.742-3.389 8.852-3.488l0.002-0.002c0.005-0.004 0.007-0.006 0.007-0.006l0.343-0.344 0.023 0.023 11.394-11.398c0.839-0.84 0.839-2.201 0-3.040l-6.077-6.078z"></path>
</svg>
