<!-- Generated by IcoMoon.io -->
<svg version="1.1" xmlns="http://www.w3.org/2000/svg" width="32" height="32" viewBox="0 0 32 32">
<title>Pencil</title>
<path d="M2.317 29.68l1.587-5.213c0.001-0.002 0.003-0.003 0.005-0.001l3.626 3.626c0.002 0.002 0.001 0.004-0.001 0.005l-5.213 1.587c-0.002 0.001-0.004-0.001-0.004-0.004zM10.445 28.822c0 0 0.052-0.052 0.116-0.116l12.281-12.281c0.064-0.064 0.121-0.121 0.127-0.127s0.064-0.064 0.127-0.127l6.507-6.507c0.001-0.001 0.001-0.003 0-0.004l-7.263-7.263c-0.001-0.001-0.003-0.001-0.004 0l-19.157 19.157c0 0-0.001 0.001-0.001 0.001l-3.177 10.44c-0.001 0.002 0.002 0.004 0.004 0.004l10.284-3.13c0.086-0.026 0.157-0.048 0.157-0.048z"></path>
<path d="M31.347 6.75c0.821-0.829 0.821-2.185 0-3.014l-3.065-3.094c-0.821-0.829-2.165-0.829-2.986 0l-1.53 1.545c-0.001 0.001-0.001 0.003 0 0.004l6.046 6.104c0.001 0.001 0.003 0.001 0.004 0l1.53-1.545z"></path>
</svg>
