<!-- Generated by IcoMoon.io -->
<svg version="1.1" xmlns="http://www.w3.org/2000/svg" width="32" height="32" viewBox="0 0 32 32">
<title>Phone</title>
<path d="M31.933 24.796c-0.090-0.273-0.666-0.674-1.727-1.204-0.287-0.167-0.697-0.394-1.227-0.682s-1.012-0.553-1.443-0.796c-0.432-0.242-0.838-0.477-1.216-0.704-0.061-0.045-0.25-0.178-0.568-0.398s-0.587-0.383-0.807-0.489c-0.22-0.106-0.436-0.159-0.648-0.159-0.303 0-0.681 0.216-1.136 0.648s-0.871 0.901-1.25 1.41c-0.379 0.508-0.78 0.977-1.204 1.409s-0.773 0.648-1.046 0.648c-0.137 0-0.307-0.038-0.512-0.113s-0.36-0.141-0.466-0.193c-0.106-0.053-0.287-0.159-0.545-0.319s-0.402-0.246-0.432-0.262c-2.076-1.152-3.856-2.47-5.341-3.955s-2.803-3.265-3.955-5.341c-0.015-0.030-0.102-0.174-0.261-0.432s-0.265-0.439-0.318-0.546c-0.053-0.106-0.117-0.261-0.193-0.466s-0.114-0.375-0.114-0.511c0-0.273 0.216-0.621 0.648-1.046s0.902-0.826 1.409-1.204c0.508-0.379 0.977-0.795 1.409-1.25s0.648-0.833 0.648-1.136c0-0.212-0.053-0.428-0.159-0.648s-0.269-0.489-0.489-0.807c-0.22-0.318-0.352-0.507-0.398-0.568-0.227-0.379-0.462-0.784-0.704-1.216s-0.508-0.913-0.796-1.443c-0.288-0.53-0.515-0.939-0.682-1.227-0.53-1.060-0.931-1.636-1.204-1.727-0.106-0.045-0.265-0.068-0.477-0.068-0.409 0-0.943 0.076-1.602 0.227s-1.178 0.31-1.557 0.477c-0.758 0.318-1.561 1.242-2.409 2.772-0.773 1.424-1.159 2.833-1.159 4.227 0 0.409 0.026 0.806 0.080 1.193s0.148 0.822 0.284 1.307c0.136 0.485 0.246 0.845 0.329 1.079s0.238 0.655 0.466 1.261c0.227 0.606 0.364 0.977 0.409 1.114 0.53 1.485 1.159 2.811 1.886 3.977 1.196 1.939 2.829 3.944 4.898 6.012s4.072 3.701 6.012 4.898c1.167 0.727 2.493 1.356 3.978 1.887 0.136 0.045 0.508 0.181 1.113 0.409s1.027 0.383 1.261 0.466c0.235 0.083 0.595 0.193 1.079 0.33s0.921 0.231 1.307 0.285c0.387 0.052 0.784 0.079 1.193 0.079 1.394 0 2.803-0.387 4.228-1.159 1.53-0.848 2.454-1.651 2.772-2.41 0.167-0.378 0.326-0.897 0.477-1.557s0.227-1.193 0.227-1.602c0-0.213-0.022-0.372-0.068-0.479z"></path>
</svg>
