<!-- Generated by IcoMoon.io -->
<svg version="1.1" xmlns="http://www.w3.org/2000/svg" width="32" height="32" viewBox="0 0 32 32">
<title>PhoneRing</title>
<path d="M24.535 29.633c-0.104 0.010-0.214 0.014-0.327 0.014-3.135 0-8.81-3.486-13.8-8.476-2.647-2.647-4.863-5.441-6.407-8.081-1.455-2.486-2.185-4.634-2.055-6.048 0.128-1.387 1.632-3.247 2.671-4.343l5.763 5.763-2.842 2.842 12.736 12.736 2.842-2.842 5.762 5.762c-1.086 1.024-2.967 2.545-4.342 2.672zM23.115 18.469l-2.842 2.842-10.006-10.006 2.842-2.842-8.463-8.462-0.681 0.627c-0.377 0.346-3.686 3.464-3.942 6.239-0.214 2.323 1.139 5.198 2.311 7.201 1.627 2.779 3.947 5.708 6.708 8.47 5.493 5.492 11.445 9.041 15.165 9.042 0.173 0 0.342-0.007 0.505-0.023 2.775-0.256 5.892-3.565 6.239-3.942l0.627-0.681-8.463-8.463z"></path>
<path d="M17.236 4.047v-1.93c6.741 0 12.225 5.484 12.225 12.225h-1.93c0-5.676-4.618-10.294-10.295-10.294z"></path>
<path d="M17.236 8.551v-1.93c4.257 0 7.721 3.463 7.721 7.721h-1.93c0-3.193-2.598-5.791-5.791-5.791z"></path>
</svg>
