<!-- Generated by IcoMoon.io -->
<svg version="1.1" xmlns="http://www.w3.org/2000/svg" width="32" height="32" viewBox="0 0 32 32">
<title>PhoneV2</title>
<path d="M28.42 25.885l-1.804 1.825c-1.158 1.173-2.992 1.596-4.551 1.043-8.898-3.146-15.946-10.38-18.854-19.348-0.567-1.752 0.034-3.68 1.499-4.797l1.577-1.202c0.349-0.267 0.767-0.408 1.21-0.408 0.751 0 1.434 0.417 1.779 1.090l2.665 5.18c0.037 0.070 0.055 0.146 0.055 0.225 0 0.16-0.072 0.272-0.132 0.337l-0.554 0.604c-1.399 1.519-1.702 3.775-0.754 5.611 1.196 2.322 3.059 4.183 5.385 5.38 1.804 0.931 4.123 0.617 5.616-0.753l0.605-0.556c0.098-0.089 0.353-0.184 0.562-0.077l5.183 2.663c0.674 0.346 1.092 1.028 1.092 1.78 0 0.527-0.206 1.025-0.579 1.403zM29.278 20.036l-5.183-2.663c-1.27-0.654-2.91-0.431-3.962 0.536l-0.606 0.554c-0.586 0.54-1.502 0.665-2.212 0.297-1.768-0.909-3.182-2.323-4.093-4.088-0.373-0.724-0.254-1.611 0.299-2.211l0.554-0.604c0.595-0.648 0.922-1.487 0.922-2.364 0-0.552-0.134-1.104-0.387-1.596l-2.666-5.18c-0.862-1.676-2.567-2.717-4.447-2.717-1.107 0-2.155 0.354-3.031 1.023l-1.576 1.202c-2.475 1.887-3.492 5.142-2.533 8.103 3.194 9.851 10.934 17.795 20.707 21.251 0.789 0.28 1.614 0.421 2.451 0.421 1.957 0 3.865-0.795 5.236-2.183l1.805-1.826c0.931-0.942 1.444-2.188 1.444-3.509 0-1.88-1.043-3.584-2.722-4.446z"></path>
</svg>
