<!-- Generated by IcoMoon.io -->
<svg version="1.1" xmlns="http://www.w3.org/2000/svg" width="32" height="32" viewBox="0 0 32 32">
<title>PhoneRingFilled</title>
<path d="M23.91 20.804c-1.027-1.014-2.31-1.014-3.331 0-0.779 0.772-1.558 1.544-2.324 2.33-0.209 0.216-0.386 0.262-0.641 0.117-0.504-0.274-1.041-0.497-1.524-0.798-2.258-1.42-4.149-3.246-5.825-5.3-0.831-1.021-1.571-2.115-2.088-3.345-0.104-0.248-0.085-0.412 0.118-0.615 0.778-0.753 1.537-1.524 2.303-2.297 1.066-1.073 1.066-2.33-0.007-3.41-0.609-0.615-1.217-1.217-1.825-1.832-0.629-0.628-1.25-1.263-1.885-1.885-1.028-1.002-2.31-1.002-3.332 0.007-0.785 0.772-1.537 1.564-2.336 2.323-0.739 0.7-1.112 1.558-1.191 2.559-0.125 1.629 0.275 3.168 0.838 4.666 1.152 3.102 2.906 5.858 5.033 8.383 2.873 3.416 6.301 6.12 10.314 8.070 1.806 0.877 3.678 1.551 5.713 1.662 1.4 0.078 2.618-0.275 3.593-1.368 0.668-0.746 1.42-1.426 2.127-2.14 1.047-1.060 1.054-2.342 0.013-3.39-1.244-1.25-2.494-2.493-3.744-3.737z"></path>
<path d="M22.661 15.589l2.414-0.413c-0.379-2.218-1.426-4.227-3.016-5.824-1.682-1.682-3.809-2.742-6.152-3.069l-0.34 2.428c1.812 0.255 3.462 1.073 4.764 2.376 1.23 1.23 2.035 2.788 2.33 4.502z"></path>
<path d="M26.436 5.091c-2.787-2.787-6.315-4.548-10.209-5.091l-0.34 2.428c3.363 0.471 6.413 1.996 8.822 4.397 2.284 2.284 3.782 5.17 4.326 8.344l2.415-0.412c-0.635-3.679-2.369-7.016-5.013-9.667z"></path>
</svg>
