<!-- Generated by IcoMoon.io -->
<svg version="1.1" xmlns="http://www.w3.org/2000/svg" width="32" height="32" viewBox="0 0 32 32">
<title>PhoneFilled</title>
<path d="M29.51 24.762l-4.662-4.663c-0.929-0.925-2.466-0.897-3.427 0.065l-2.348 2.348c-0.149-0.082-0.302-0.168-0.463-0.258-1.483-0.822-3.513-1.948-5.649-4.086-2.142-2.142-3.27-4.175-4.094-5.659-0.087-0.157-0.17-0.309-0.252-0.453l2.351-2.35c0.963-0.963 0.989-2.5 0.062-3.428l-4.662-4.663c-0.926-0.926-2.465-0.898-3.427 0.065l-1.314 1.321 0.036 0.036c-0.44 0.562-0.808 1.21-1.082 1.91-0.252 0.665-0.409 1.301-0.482 1.937-0.616 5.103 1.717 9.767 8.045 16.096 8.748 8.747 15.798 8.087 16.102 8.055 0.663-0.079 1.297-0.237 1.943-0.488 0.693-0.271 1.341-0.638 1.903-1.078l0.028 0.025 1.331-1.304c0.96-0.963 0.988-2.5 0.062-3.429z"></path>
</svg>
