<!-- Generated by IcoMoon.io -->
<svg version="1.1" xmlns="http://www.w3.org/2000/svg" width="32" height="32" viewBox="0 0 32 32">
<title>Plane</title>
<path d="M29.033 18.734v1.528c0 0.402-0.161 0.724-0.482 0.965-0.241 0.161-0.482 0.241-0.724 0.241-0.080 0-0.161 0-0.322 0l-9.568-2.332v9.246l2.653 1.849c0.241 0.161 0.322 0.402 0.322 0.643v0.322c0 0.241-0.080 0.482-0.241 0.643s-0.322 0.161-0.563 0.161c0 0-0.080 0-0.080 0l-4.261-0.643-4.261 0.643c-0.241 0-0.482 0-0.643-0.161s-0.241-0.402-0.241-0.643v-0.322c0-0.241 0.161-0.482 0.322-0.643l2.653-1.849v-9.246l-9.648 2.251c-0.322 0.080-0.724 0-1.045-0.241-0.241-0.161-0.402-0.563-0.402-0.884v-1.528c0-0.402 0.241-0.804 0.643-1.045l10.452-5.789v-9.648c-0.080-1.286 0.965-2.251 2.171-2.251s2.251 0.965 2.251 2.251v9.648l10.452 5.789c0.322 0.161 0.563 0.563 0.563 1.045z"></path>
</svg>
