<!-- Generated by IcoMoon.io -->
<svg version="1.1" xmlns="http://www.w3.org/2000/svg" width="36" height="32" viewBox="0 0 36 32">
<title>PostManagement</title>
<path fill="#fff" stroke="#fff" stroke-linejoin="miter" stroke-linecap="butt" stroke-miterlimit="4" stroke-width="2.1333" d="M7.111 8.178h1.067v-6.4c0-0.189 0.075-0.369 0.208-0.503s0.314-0.208 0.503-0.208h24.889c0.189 0 0.37 0.075 0.503 0.208s0.208 0.314 0.208 0.503v23.111c0 1.603-0.637 3.14-1.77 4.274s-2.671 1.77-4.274 1.77h-23.111c-1.132 0-2.217-0.45-3.017-1.25s-1.25-1.885-1.25-3.017v-17.778c0-0.189 0.075-0.369 0.208-0.503s0.314-0.208 0.503-0.208h5.333zM3.556 9.6h-1.067v17.067c0 0.754 0.3 1.478 0.833 2.011v0c0.533 0.534 1.257 0.833 2.011 0.833s1.478-0.3 2.011-0.833c0.533-0.533 0.833-1.257 0.833-2.011v-17.067h-4.622zM9.344 28.080l-0.519 1.431h19.62c1.226 0 2.402-0.487 3.268-1.354s1.354-2.042 1.354-3.268v-22.4h-23.467v24.173c-0.004 0.484-0.091 0.963-0.256 1.418zM24.889 15.289h1.778c0.189 0 0.369 0.075 0.503 0.208s0.208 0.314 0.208 0.503c0 0.189-0.075 0.369-0.208 0.503s-0.314 0.208-0.503 0.208h-1.778c-0.189 0-0.369-0.075-0.503-0.208s-0.208-0.314-0.208-0.503c0-0.189 0.075-0.369 0.208-0.503s0.314-0.208 0.503-0.208zM24.889 22.4h1.778c0.189 0 0.369 0.075 0.503 0.208s0.208 0.314 0.208 0.503c0 0.189-0.075 0.369-0.208 0.503s-0.314 0.208-0.503 0.208h-1.778c-0.189 0-0.369-0.075-0.503-0.208s-0.208-0.314-0.208-0.503c0-0.189 0.075-0.369 0.208-0.503s0.314-0.208 0.503-0.208zM26.667 9.6h-10.667c-0.189 0-0.369-0.075-0.503-0.208s-0.208-0.314-0.208-0.503c0-0.189 0.075-0.369 0.208-0.503s0.314-0.208 0.503-0.208h10.667c0.189 0 0.369 0.075 0.503 0.208s0.208 0.314 0.208 0.503c0 0.189-0.075 0.369-0.208 0.503s-0.314 0.208-0.503 0.208zM17.778 16.711h-1.778c-0.189 0-0.369-0.075-0.503-0.208s-0.208-0.314-0.208-0.503c0-0.189 0.075-0.369 0.208-0.503s0.314-0.208 0.503-0.208h1.778c0.189 0 0.369 0.075 0.503 0.208s0.208 0.314 0.208 0.503c0 0.189-0.075 0.369-0.208 0.503s-0.314 0.208-0.503 0.208zM17.778 23.822h-1.778c-0.189 0-0.369-0.075-0.503-0.208s-0.208-0.314-0.208-0.503c0-0.189 0.075-0.369 0.208-0.503s0.314-0.208 0.503-0.208h1.778c0.189 0 0.369 0.075 0.503 0.208s0.208 0.314 0.208 0.503c0 0.189-0.075 0.369-0.208 0.503s-0.314 0.208-0.503 0.208z"></path>
</svg>
