<!-- Generated by IcoMoon.io -->
<svg version="1.1" xmlns="http://www.w3.org/2000/svg" width="18" height="32" viewBox="0 0 18 32">
<title>PrevPage</title>
<path fill="#fff" d="M6.502 17.468l10.261-10.261c0.282-0.282 0.438-0.659 0.438-1.061s-0.155-0.779-0.438-1.061l-0.899-0.899c-0.282-0.283-0.659-0.438-1.061-0.438s-0.778 0.156-1.061 0.438l-12.217 12.217c-0.283 0.283-0.439 0.662-0.438 1.064-0.001 0.404 0.154 0.782 0.438 1.065l12.206 12.205c0.282 0.283 0.659 0.438 1.061 0.438s0.778-0.156 1.061-0.438l0.899-0.899c0.585-0.585 0.585-1.537 0-2.122l-10.25-10.25z"></path>
</svg>
