<!-- Generated by IcoMoon.io -->
<svg version="1.1" xmlns="http://www.w3.org/2000/svg" width="28" height="32" viewBox="0 0 28 32">
<title>ProfileManagement</title>
<path fill="#fff" d="M23.599 0h-19.2c-1.76 0-3.2 1.44-3.2 3.2v25.6c0 1.76 1.44 3.2 3.2 3.2h19.2c1.76 0 3.2-1.44 3.2-3.2v-25.6c0-1.76-1.44-3.2-3.2-3.2zM13.839 3.2c1.76 0 3.2 1.44 3.2 3.2s-1.44 3.2-3.2 3.2c-1.76 0-3.2-1.44-3.2-3.2s1.44-3.2 3.2-3.2zM13.839 11.2c3.52 0 6.4 1.28 6.4 4.8h-12.8c0-3.52 2.88-4.8 6.4-4.8zM17.199 28.8h-11.2c-0.96 0-1.6-0.64-1.6-1.6s0.64-1.6 1.6-1.6h11.2c0.96 0 1.6 0.64 1.6 1.6s-0.64 1.6-1.6 1.6zM21.999 22.4h-16c-0.96 0-1.6-0.64-1.6-1.6s0.64-1.6 1.6-1.6h16c0.96 0 1.6 0.64 1.6 1.6s-0.64 1.6-1.6 1.6z"></path>
</svg>
