<!-- Generated by IcoMoon.io -->
<svg version="1.1" xmlns="http://www.w3.org/2000/svg" width="32" height="32" viewBox="0 0 32 32">
<title>ProjectManagement</title>
<path fill="#fff" d="M20 24v-20h6v20h-6zM12 20v-16h6v16h-6zM4 28v-24h6v24h-6zM2 30v-28h26v28h-26zM28 0h-26c-0.53 0-1.039 0.211-1.414 0.586s-0.586 0.884-0.586 1.414v28c0 0.53 0.211 1.039 0.586 1.414s0.884 0.586 1.414 0.586h26c0.53 0 1.039-0.211 1.414-0.586s0.586-0.884 0.586-1.414v-28c0-0.53-0.211-1.039-0.586-1.414s-0.884-0.586-1.414-0.586v0z"></path>
</svg>
