<!-- Generated by IcoMoon.io -->
<svg version="1.1" xmlns="http://www.w3.org/2000/svg" width="32" height="32" viewBox="0 0 32 32">
<title>Project</title>
<path fill="none" stroke="#00acb9" stroke-linejoin="round" stroke-linecap="round" stroke-miterlimit="4" stroke-width="2" d="M2 31v-20h12v20"></path>
<path fill="none" stroke="#00acb9" stroke-linejoin="round" stroke-linecap="round" stroke-miterlimit="4" stroke-width="2" d="M6 31v-16"></path>
<path fill="none" stroke="#00acb9" stroke-linejoin="round" stroke-linecap="round" stroke-miterlimit="4" stroke-width="2" d="M10 31v-16"></path>
<path fill="none" stroke="#00acb9" stroke-linejoin="round" stroke-linecap="round" stroke-miterlimit="4" stroke-width="2" d="M2 11l6-7 6 7"></path>
<path fill="none" stroke="#00acb9" stroke-linejoin="round" stroke-linecap="round" stroke-miterlimit="4" stroke-width="2" d="M8 1v3"></path>
<path fill="none" stroke="#00acb9" stroke-linejoin="round" stroke-linecap="round" stroke-miterlimit="4" stroke-width="2" d="M30 31v-16.279c-0-0.21-0.066-0.415-0.189-0.585s-0.296-0.298-0.495-0.364l-10-3.333c-0.15-0.050-0.311-0.064-0.467-0.040s-0.306 0.085-0.434 0.177c-0.129 0.093-0.233 0.215-0.305 0.356s-0.109 0.298-0.109 0.456v19.612"></path>
<path fill="none" stroke="#00acb9" stroke-linejoin="round" stroke-linecap="round" stroke-miterlimit="4" stroke-width="2" d="M26 28v1"></path>
<path fill="none" stroke="#00acb9" stroke-linejoin="round" stroke-linecap="round" stroke-miterlimit="4" stroke-width="2" d="M26 23v1"></path>
<path fill="none" stroke="#00acb9" stroke-linejoin="round" stroke-linecap="round" stroke-miterlimit="4" stroke-width="2" d="M26 18v1"></path>
<path fill="none" stroke="#00acb9" stroke-linejoin="round" stroke-linecap="round" stroke-miterlimit="4" stroke-width="2" d="M22 28v1"></path>
<path fill="none" stroke="#00acb9" stroke-linejoin="round" stroke-linecap="round" stroke-miterlimit="4" stroke-width="2" d="M22 23v1"></path>
<path fill="none" stroke="#00acb9" stroke-linejoin="round" stroke-linecap="round" stroke-miterlimit="4" stroke-width="2" d="M22 18v1"></path>
</svg>
