<!-- Generated by IcoMoon.io -->
<svg version="1.1" xmlns="http://www.w3.org/2000/svg" width="32" height="32" viewBox="0 0 32 32">
<title>Question</title>
<path d="M28.293 1.371h-12.2c-2.123 0-3.884 1.708-3.884 3.831v5.37h-8.343c-2.123 0-3.866 1.734-3.866 3.857v8.962c0 2.123 1.743 3.814 3.866 3.814h11.226l3.494 3.203c0.151 0.133 0.345 0.212 0.539 0.212 0.106 0 0.212-0.017 0.318-0.062 0.292-0.123 0.469-0.407 0.469-0.725v-9.369c0-0.442-0.354-0.796-0.796-0.796s-0.796 0.354-0.796 0.796v7.564l-2.38-2.194c-0.151-0.133-0.336-0.221-0.531-0.221h-11.546c-1.239 0-2.274-0.982-2.274-2.221v-8.962c0-1.247 1.035-2.265 2.274-2.265h8.343v8.44c0 0.318 0.204 0.602 0.496 0.725s0.637 0.070 0.867-0.142l2.919-2.663c0.080-0.070 0.151-0.133 0.212-0.195 0.159-0.142 0.318-0.292 0.39-0.336 0.062-0.009 0.23-0.009 0.371 0 0.142 0 0.31 0 0.505 0h10.324c2.123 0 3.822-1.725 3.822-3.84v-8.954c0-2.123-1.699-3.831-3.822-3.831zM30.523 14.164c0 1.247-0.991 2.247-2.229 2.247h-10.324c-0.186 0-0.345 0-0.478 0-0.955-0.017-1.141 0.089-1.875 0.761-0.062 0.053-0.142 0.115-0.221 0.186l-1.593 1.442v-13.598c0-1.247 1.044-2.238 2.291-2.238h12.2c1.247 0 2.229 0.991 2.229 2.238v8.962z"></path>
<path d="M5.963 17.915c-0.442 0-0.796 0.354-0.796 0.796s0.354 0.796 0.796 0.796h0.070c0.442 0 0.796-0.354 0.796-0.796s-0.354-0.796-0.796-0.796h-0.070z"></path>
<path d="M22.011 12.368c-0.442 0-0.779 0.354-0.779 0.796v0.009c0 0.443 0.336 0.796 0.779 0.796s0.796-0.363 0.796-0.796-0.354-0.806-0.796-0.806z"></path>
<path d="M8.732 17.915c-0.443 0-0.796 0.354-0.796 0.796s0.354 0.796 0.796 0.796h0.062c0.443 0 0.796-0.354 0.796-0.796s-0.354-0.796-0.796-0.796h-0.062z"></path>
<path d="M22.189 5.893c-1.309 0-2.38 1.071-2.38 2.38 0 0.443 0.354 0.796 0.796 0.796s0.796-0.354 0.796-0.796c0-0.433 0.354-0.787 0.787-0.787s0.787 0.354 0.787 0.787c0 0.212-0.257 0.451-0.655 0.779-0.505 0.424-1.133 0.938-1.133 1.805 0 0.433 0.363 0.779 0.796 0.779h0.009c0.442 0 0.796-0.354 0.787-0.787 0-0.115 0.363-0.416 0.558-0.575 0.513-0.433 1.23-1.026 1.23-2 0-1.318-1.061-2.38-2.38-2.38z"></path>
</svg>
