<!-- Generated by IcoMoon.io -->
<svg version="1.1" xmlns="http://www.w3.org/2000/svg" width="32" height="32" viewBox="0 0 32 32">
<title>QuoteFilled</title>
<path d="M11.55 4.191c-1.149 1.494-2.27 3.577-3.362 6.249s-1.609 5.129-1.551 7.37c0.517-0.172 1.121-0.259 1.81-0.259 1.667 0 3.075 0.474 4.224 1.422s1.724 2.371 1.724 4.267c0 1.839-0.589 3.376-1.767 4.612s-2.716 1.853-4.612 1.853c-2.471 0-4.381-0.848-5.732-2.543s-2.026-3.864-2.026-6.508c0-2.816 0.676-5.861 2.026-9.137s3.318-6.522 5.904-9.74l3.362 2.413zM28.789 4.191c-1.149 1.494-2.27 3.577-3.362 6.249s-1.609 5.129-1.551 7.37c0.517-0.172 1.121-0.259 1.81-0.259 1.667 0 3.075 0.474 4.224 1.422s1.724 2.371 1.724 4.267c0 1.839-0.589 3.376-1.767 4.612s-2.716 1.853-4.612 1.853c-2.471 0-4.381-0.848-5.732-2.543s-2.026-3.864-2.026-6.508c0-2.816 0.676-5.861 2.026-9.137s3.318-6.522 5.904-9.74l3.362 2.413z"></path>
</svg>
