<!-- Generated by IcoMoon.io -->
<svg version="1.1" xmlns="http://www.w3.org/2000/svg" width="32" height="32" viewBox="0 0 32 32">
<title>RealEstateBuilding</title>
<path fill="#fff" d="M30.667 4c-0.354 0-0.693 0.14-0.943 0.391s-0.391 0.589-0.391 0.943v22.667c0 0.354-0.141 0.693-0.391 0.943s-0.589 0.391-0.943 0.391h-22.667c-0.354 0-0.693 0.141-0.943 0.391s-0.391 0.589-0.391 0.943c0 0.354 0.14 0.693 0.391 0.943s0.589 0.391 0.943 0.391h22.667c1.061 0 2.078-0.421 2.828-1.172s1.172-1.768 1.172-2.828v-22.667c0-0.354-0.141-0.693-0.391-0.943s-0.589-0.391-0.943-0.391v0z"></path>
<path fill="#fff" d="M10.667 13.667h-4c-0.265 0-0.52 0.105-0.707 0.293s-0.293 0.442-0.293 0.707 0.105 0.52 0.293 0.707c0.188 0.188 0.442 0.293 0.707 0.293h4c0.265 0 0.52-0.105 0.707-0.293s0.293-0.442 0.293-0.707-0.105-0.52-0.293-0.707c-0.188-0.188-0.442-0.293-0.707-0.293z"></path>
<path fill="#fff" d="M10.667 17h-4c-0.265 0-0.52 0.105-0.707 0.293s-0.293 0.442-0.293 0.707 0.105 0.52 0.293 0.707c0.188 0.188 0.442 0.293 0.707 0.293h4c0.265 0 0.52-0.105 0.707-0.293s0.293-0.442 0.293-0.707-0.105-0.52-0.293-0.707c-0.188-0.188-0.442-0.293-0.707-0.293z"></path>
<path fill="#fff" d="M25.333 27.333c0.53 0 1.039-0.211 1.414-0.586s0.586-0.884 0.586-1.414v-23.333c0-0.53-0.211-1.039-0.586-1.414s-0.884-0.586-1.414-0.586h-23.333c-0.53 0-1.039 0.211-1.414 0.586s-0.586 0.884-0.586 1.414v23.333c0 0.53 0.211 1.039 0.586 1.414s0.884 0.586 1.414 0.586h23.333zM13.333 23.333c0 0.177-0.070 0.346-0.195 0.471s-0.295 0.195-0.471 0.195h-2c-0.177 0-0.346-0.070-0.471-0.195s-0.195-0.295-0.195-0.471v-1.333c0-0.177-0.070-0.346-0.195-0.471s-0.295-0.195-0.471-0.195h-1.333c-0.177 0-0.346 0.070-0.471 0.195s-0.195 0.295-0.195 0.471v1.333c0 0.177-0.070 0.346-0.195 0.471s-0.295 0.195-0.471 0.195h-2c-0.177 0-0.346-0.070-0.471-0.195s-0.195-0.295-0.195-0.471v-10c0-0.124 0.034-0.245 0.099-0.35s0.158-0.19 0.269-0.246l4-2c0.093-0.046 0.195-0.071 0.299-0.071s0.206 0.024 0.299 0.071l4 2c0.111 0.055 0.204 0.141 0.269 0.246s0.099 0.227 0.099 0.35v10zM24 23.333c0 0.177-0.070 0.346-0.195 0.471s-0.295 0.195-0.471 0.195h-7.333c-0.177 0-0.346-0.070-0.471-0.195s-0.195-0.295-0.195-0.471v-18c0-0.112 0.028-0.221 0.081-0.319s0.131-0.181 0.224-0.241c0.094-0.060 0.201-0.096 0.313-0.104s0.223 0.012 0.324 0.058l7.333 3.333c0.117 0.053 0.215 0.138 0.285 0.246s0.106 0.233 0.106 0.361v14.667z"></path>
<path fill="#fff" d="M21.333 13.667h-3.333c-0.265 0-0.52 0.105-0.707 0.293s-0.293 0.442-0.293 0.707 0.105 0.52 0.293 0.707c0.187 0.188 0.442 0.293 0.707 0.293h3.333c0.265 0 0.52-0.105 0.707-0.293s0.293-0.442 0.293-0.707-0.105-0.52-0.293-0.707c-0.187-0.188-0.442-0.293-0.707-0.293v0z"></path>
<path fill="#fff" d="M21.333 10.333h-3.333c-0.265 0-0.52 0.105-0.707 0.293s-0.293 0.442-0.293 0.707 0.105 0.52 0.293 0.707c0.187 0.188 0.442 0.293 0.707 0.293h3.333c0.265 0 0.52-0.105 0.707-0.293s0.293-0.442 0.293-0.707-0.105-0.52-0.293-0.707c-0.187-0.188-0.442-0.293-0.707-0.293v0z"></path>
<path fill="#fff" d="M21.333 17h-3.333c-0.265 0-0.52 0.105-0.707 0.293s-0.293 0.442-0.293 0.707 0.105 0.52 0.293 0.707c0.187 0.188 0.442 0.293 0.707 0.293h3.333c0.265 0 0.52-0.105 0.707-0.293s0.293-0.442 0.293-0.707-0.105-0.52-0.293-0.707c-0.187-0.188-0.442-0.293-0.707-0.293v0z"></path>
</svg>
