<!-- Generated by IcoMoon.io -->
<svg version="1.1" xmlns="http://www.w3.org/2000/svg" width="38" height="32" viewBox="0 0 38 32">
<title>Redo</title>
<path d="M23.467 25.771c-0.004 0.289 0.112 0.567 0.32 0.768l0.427 0.427c0.2 0.202 0.473 0.316 0.757 0.316s0.557-0.114 0.757-0.316l12.352-12.352c0.206-0.194 0.323-0.464 0.323-0.747s-0.117-0.553-0.323-0.747l-12.352-12.352c-0.2-0.202-0.473-0.316-0.757-0.316s-0.557 0.114-0.757 0.316l-0.427 0.427c-0.208 0.201-0.324 0.479-0.32 0.768v5.504c-12.492 0.222-22.711 10.015-23.467 22.485-0.003 0.258 0.088 0.508 0.256 0.704 0.183 0.178 0.428 0.277 0.683 0.277h0.213c0.514-0.002 0.953-0.369 1.045-0.875 1.003-5.525 11.2-9.792 21.269-9.792v5.504z"></path>
</svg>
