<!-- Generated by IcoMoon.io -->
<svg version="1.1" xmlns="http://www.w3.org/2000/svg" width="43" height="32" viewBox="0 0 43 32">
<title>Refresh</title>
<path d="M21.797 0c8.186 0 14.91 6.052 16.046 13.913h4.823l-8.116 9.275-8.116-9.275h5.38c-0.519-2.27-1.792-4.297-3.611-5.75s-4.078-2.246-6.406-2.25c-3.362 0-6.33 1.646-8.209 4.128l-3.965-4.522c1.518-1.736 3.389-3.126 5.489-4.078s4.379-1.443 6.685-1.441zM20.87 31.165c-8.162 0-14.91-6.052-16.046-13.913h-4.823l8.116-9.275c2.713 3.084 5.403 6.191 8.116 9.275h-5.38c0.519 2.27 1.792 4.297 3.611 5.75s4.078 2.246 6.406 2.25c3.362 0 6.33-1.646 8.209-4.128l3.965 4.522c-1.516 1.737-3.388 3.129-5.488 4.081s-4.38 1.442-6.686 1.438z"></path>
</svg>
