<!-- Generated by IcoMoon.io -->
<svg version="1.1" xmlns="http://www.w3.org/2000/svg" width="32" height="32" viewBox="0 0 32 32">
<title>ReportManagement</title>
<path fill="#fff" d="M30.857 8h-5.714v-6.857c0-0.631-0.512-1.143-1.143-1.143h-22.857c-0.631 0-1.143 0.512-1.143 1.143v26.286c0 2.525 2.047 4.571 4.571 4.571h22.857c2.525 0 4.571-2.047 4.571-4.571v-18.286c0-0.631-0.512-1.143-1.143-1.143zM9.143 5.714h6.857c0.631 0 1.143 0.512 1.143 1.143s-0.512 1.143-1.143 1.143h-6.857c-0.631 0-1.143-0.512-1.143-1.143s0.512-1.143 1.143-1.143zM19.429 27.429h-13.714c-0.631 0-1.143-0.512-1.143-1.143s0.512-1.143 1.143-1.143h13.714c0.631 0 1.143 0.512 1.143 1.143s-0.512 1.143-1.143 1.143zM19.429 22.857h-13.714c-0.631 0-1.143-0.512-1.143-1.143s0.512-1.143 1.143-1.143h13.714c0.631 0 1.143 0.512 1.143 1.143s-0.512 1.143-1.143 1.143zM19.429 18.286h-13.714c-0.631 0-1.143-0.512-1.143-1.143s0.512-1.143 1.143-1.143h13.714c0.631 0 1.143 0.512 1.143 1.143s-0.512 1.143-1.143 1.143zM19.429 13.714h-13.714c-0.631 0-1.143-0.512-1.143-1.143s0.512-1.143 1.143-1.143h13.714c0.631 0 1.143 0.512 1.143 1.143s-0.512 1.143-1.143 1.143zM29.714 27.429c0 1.262-1.023 2.286-2.286 2.286s-2.286-1.023-2.286-2.286v-17.143h4.572v17.143h-0z"></path>
</svg>
