<!-- Generated by IcoMoon.io -->
<svg version="1.1" xmlns="http://www.w3.org/2000/svg" width="32" height="32" viewBox="0 0 32 32">
<title>RequestManagement</title>
<path fill="none" stroke="#fff" stroke-linejoin="round" stroke-linecap="round" stroke-miterlimit="4" stroke-width="3.7647" d="M25.412 30.118c2.599 0 4.706-2.107 4.706-4.706s-2.107-4.706-4.706-4.706c-2.599 0-4.706 2.107-4.706 4.706s2.107 4.706 4.706 4.706z"></path>
<path fill="none" stroke="#fff" stroke-linejoin="round" stroke-linecap="round" stroke-miterlimit="4" stroke-width="3.7647" d="M6.588 11.294c2.599 0 4.706-2.107 4.706-4.706s-2.107-4.706-4.706-4.706c-2.599 0-4.706 2.107-4.706 4.706s2.107 4.706 4.706 4.706z"></path>
<path fill="none" stroke="#fff" stroke-linejoin="round" stroke-linecap="round" stroke-miterlimit="4" stroke-width="3.7647" d="M17.569 6.588h4.706c0.832 0 1.63 0.331 2.218 0.919s0.919 1.386 0.919 2.218v10.98"></path>
<path fill="none" stroke="#fff" stroke-linejoin="round" stroke-linecap="round" stroke-miterlimit="4" stroke-width="3.7647" d="M6.588 11.294v18.823"></path>
</svg>
