<!-- Generated by IcoMoon.io -->
<svg version="1.1" xmlns="http://www.w3.org/2000/svg" width="32" height="32" viewBox="0 0 32 32">
<title>RightArrowV2</title>
<path d="M31.968 15.242l-7.145-6.513c-0.198-0.161-0.416-0.192-0.651-0.093s-0.354 0.279-0.354 0.54v4.168h-23.223c-0.174 0-0.316 0.056-0.428 0.167s-0.167 0.254-0.167 0.428v3.573c0 0.173 0.056 0.316 0.167 0.428s0.255 0.167 0.428 0.167h23.223v4.168c0 0.249 0.118 0.428 0.354 0.539 0.236 0.1 0.453 0.062 0.652-0.111l7.145-6.588c0.124-0.124 0.186-0.273 0.186-0.447 0-0.161-0.062-0.303-0.186-0.427z"></path>
</svg>
