<!-- Generated by IcoMoon.io -->
<svg version="1.1" xmlns="http://www.w3.org/2000/svg" width="32" height="32" viewBox="0 0 32 32">
<title>RightArrow</title>
<path d="M24.994 15.259l-14.659-14.938c-0.21-0.214-0.451-0.321-0.724-0.321s-0.514 0.107-0.724 0.321l-1.573 1.603c-0.21 0.214-0.315 0.459-0.315 0.737s0.105 0.524 0.315 0.737l12.363 12.598-12.363 12.599c-0.21 0.214-0.315 0.46-0.315 0.737s0.105 0.524 0.315 0.738l1.573 1.602c0.21 0.214 0.451 0.32 0.724 0.32s0.514-0.107 0.724-0.32l14.659-14.938c0.21-0.214 0.314-0.46 0.314-0.737s-0.104-0.524-0.314-0.738z"></path>
</svg>
