<!-- Generated by IcoMoon.io -->
<svg version="1.1" xmlns="http://www.w3.org/2000/svg" width="32" height="32" viewBox="0 0 32 32">
<title>RightArrowV3</title>
<path d="M17.25 3.384c0.417-0.417 0.896-0.625 1.438-0.625s1.021 0.208 1.438 0.625l11.813 12.125-11.813 12.125c-0.208 0.167-0.438 0.302-0.688 0.406s-0.5 0.156-0.75 0.156c-0.25 0-0.5-0.052-0.75-0.156s-0.479-0.24-0.688-0.406c-0.375-0.417-0.563-0.896-0.563-1.438s0.188-1.021 0.563-1.438l7.375-7.313h-22.625c-0.583 0-1.063-0.198-1.438-0.594s-0.563-0.865-0.563-1.406c0-0.583 0.188-1.063 0.563-1.438s0.854-0.563 1.438-0.563h22.5l-7.25-7.25c-0.375-0.375-0.563-0.844-0.563-1.406s0.188-1.031 0.563-1.406z"></path>
</svg>
