<!-- Generated by IcoMoon.io -->
<svg version="1.1" xmlns="http://www.w3.org/2000/svg" width="30" height="32" viewBox="0 0 30 32">
<title>SalesPolicyManagement</title>
<path fill="#fff" d="M2.458 18.028l10.349 12.419c0.906 1.035 1.962 1.552 3.169 1.552 1.078 0 2.005-0.323 2.781-0.97l8.991-7.568c0.863-0.776 1.358-1.747 1.488-2.911 0.129-1.078-0.194-2.135-0.97-3.169l-10.349-12.419c-1.121-1.466-2.587-2.393-4.399-2.781l-8.991-2.070c-0.862-0.259-1.682-0.065-2.458 0.582l-1.1 0.97c-0.647 0.474-0.97 1.251-0.97 2.329l0.517 9.25c0.216 1.854 0.862 3.45 1.94 4.787zM4.010 2.763l9.12 2.199c0.949 0.216 1.897 0.798 2.846 1.746l10.349 12.419c0.345 0.345 0.453 0.733 0.323 1.164 0 0.259-0.194 0.625-0.582 1.1l-8.991 7.568c-0.302 0.259-0.668 0.377-1.1 0.356s-0.755-0.183-0.97-0.485l-10.349-12.419c-0.819-1.035-1.229-2.091-1.229-3.169l-0.647-9.509 1.229-0.97zM7.697 7.291c0 0.388-0.129 0.711-0.388 0.97s-0.582 0.388-0.97 0.388c-0.388 0-0.712-0.129-0.97-0.388s-0.388-0.582-0.388-0.97c0-0.388 0.129-0.712 0.388-0.97s0.582-0.388 0.97-0.388c0.388 0 0.712 0.129 0.97 0.388s0.388 0.582 0.388 0.97zM8.409 16.929l12.678 4.010h0.453c0.604 0 1.057-0.323 1.358-0.97 0.129-0.345 0.108-0.69-0.065-1.035s-0.431-0.582-0.776-0.712l-12.678-4.010c-0.345-0.172-0.701-0.172-1.067 0s-0.614 0.431-0.744 0.776c-0.259 0.992 0.022 1.639 0.841 1.941zM18.758 23.138c0 0.561-0.194 1.046-0.582 1.455s-0.884 0.614-1.488 0.614c-0.604 0-1.1-0.205-1.488-0.614s-0.582-0.895-0.582-1.455c0-0.561 0.205-1.046 0.614-1.455s0.895-0.615 1.455-0.615 1.046 0.205 1.455 0.615c0.41 0.41 0.614 0.895 0.614 1.455zM14.619 12.142c0 0.561-0.205 1.046-0.614 1.455s-0.895 0.614-1.455 0.614c-0.561 0-1.046-0.205-1.455-0.614s-0.614-0.895-0.614-1.455c0-0.561 0.194-1.046 0.582-1.455s0.884-0.614 1.488-0.614c0.604 0 1.1 0.205 1.488 0.614s0.582 0.895 0.582 1.455z"></path>
</svg>
