<!-- Generated by IcoMoon.io -->
<svg version="1.1" xmlns="http://www.w3.org/2000/svg" width="32" height="32" viewBox="0 0 32 32">
<title>Scroll</title>
<path fill="#0e3556" opacity="0.8" d="M2.4 1.6c-1.323 0-2.4 1.211-2.4 2.7v3.6c0 0.497 0.358 0.9 0.8 0.9h4v-4.5c0-1.489-1.077-2.7-2.4-2.7zM12.8 24.807v-3.407h14.4v-14.4c0-2.978-2.153-5.4-4.8-5.4h-16.82c0.508 0.754 0.821 1.683 0.821 2.7v20.7c0 2.186 1.733 3.918 3.737 3.551 1.573-0.288 2.662-1.95 2.662-3.744zM14.4 23.2v1.8c0 2.977-2.153 5.4-4.8 5.4h16.8c3.093 0 5.6-2.82 5.6-6.3 0-0.497-0.358-0.9-0.8-0.9h-16.8z"></path>
</svg>
