<!-- Generated by IcoMoon.io -->
<svg version="1.1" xmlns="http://www.w3.org/2000/svg" width="32" height="32" viewBox="0 0 32 32">
<title>Service</title>
<path fill="#696969" d="M22.15 21.525h-1.918l-0.996-0.443v-1.21c1.395-0.769 2.489-2.018 3.059-3.523h0.855c2.035 0 3.691-1.656 3.691-3.691 0-1.314-0.691-2.47-1.728-3.124v-0.421c0-5.025-4.088-9.113-9.113-9.113s-9.113 4.088-9.113 9.113v0.421c-1.037 0.654-1.729 1.81-1.729 3.124 0 2.035 1.656 3.691 3.691 3.691h0.855c0.569 1.505 1.664 2.754 3.059 3.523v1.205l-1.008 0.448h-1.907c-5.431 0-9.85 4.419-9.85 9.85 0 0.345 0.28 0.625 0.625 0.625h12.563c0.345 0 0.625-0.28 0.625-0.625s-0.28-0.625-0.625-0.625h-11.915c0.312-4.319 3.827-7.764 8.176-7.965-0.002 0.005-0.004 0.010-0.005 0.015-0.051 0.178-0.020 0.369 0.084 0.523l2.957 4.346c0.105 0.154 0.273 0.253 0.458 0.271 0.020 0.002 0.039 0.003 0.059 0.003 0.165 0 0.324-0.065 0.442-0.183l2.552-2.552 2.552 2.552c0.118 0.118 0.277 0.183 0.442 0.183 0.020 0 0.039-0.001 0.059-0.003 0.185-0.017 0.353-0.117 0.458-0.271l2.957-4.346c0.104-0.153 0.135-0.345 0.084-0.523-0.002-0.005-0.004-0.011-0.006-0.016 4.354 0.195 7.875 3.643 8.187 7.966h-11.915c-0.345 0-0.625 0.28-0.625 0.625s0.28 0.625 0.625 0.625h12.563c0.345 0 0.625-0.28 0.625-0.625 0-5.431-4.419-9.85-9.85-9.85zM21.465 9.726c-1.284-0.176-2.489-0.688-3.513-1.498-0.224-0.178-0.541-0.18-0.768-0.006-1.343 1.030-2.949 1.575-4.645 1.575-0.681 0-1.352-0.091-2.002-0.267v-0.318c0-3.012 2.45-5.462 5.462-5.462s5.463 2.45 5.463 5.462c0 0 0.001 0.497 0.003 0.514v0zM23.15 15.099h-0.422v-4.883h0.422c1.346 0 2.441 1.095 2.441 2.441s-1.095 2.441-2.441 2.441zM16 1.25c4.31 0 7.82 3.486 7.862 7.786-0.231-0.045-0.469-0.070-0.712-0.070h-0.442c-0.13-3.588-3.089-6.466-6.707-6.466s-6.577 2.879-6.707 6.466h-0.442c-0.243 0-0.481 0.024-0.712 0.070 0.042-4.3 3.552-7.786 7.862-7.786zM9.272 15.099h-0.422c-1.346 0-2.441-1.095-2.441-2.441s1.095-2.441 2.441-2.441h0.422v4.883h-0zM10.522 13.975v-3.159c0.659 0.153 1.334 0.23 2.017 0.23 1.814 0 3.539-0.535 5.020-1.553 1.164 0.82 2.503 1.329 3.918 1.493v3.022c-0.004 0.586-0.1 1.15-0.274 1.679h-2.985c-0.258-0.73-0.955-1.255-1.773-1.255h-0.837c-1.037 0-1.88 0.843-1.88 1.88s0.843 1.88 1.88 1.88h0.837c0.818 0 1.515-0.525 1.773-1.255h2.387c-0.976 1.512-2.676 2.515-4.605 2.515-3.020 0-5.478-2.457-5.478-5.478v0zM17.076 16.313c0 0.347-0.283 0.63-0.63 0.63h-0.837c-0.347 0-0.63-0.283-0.63-0.63s0.283-0.63 0.63-0.63h0.837c0.347 0 0.63 0.283 0.63 0.63zM16 20.703c0.691 0 1.358-0.105 1.986-0.299v1.045l-1.991 1.991-1.98-1.98v-1.056c0.628 0.194 1.295 0.299 1.986 0.299zM13.093 26.342l-2.111-3.104 2.106-0.937 2.023 2.023-2.018 2.018zM18.896 26.342l-2.018-2.018 2.023-2.023 2.106 0.937-2.111 3.104z"></path>
</svg>
