<!-- Generated by IcoMoon.io -->
<svg version="1.1" xmlns="http://www.w3.org/2000/svg" width="32" height="32" viewBox="0 0 32 32">
<title>ShapeEnvelop</title>
<path fill="#fff" stroke="#c0c0c0" stroke-linejoin="miter" stroke-linecap="butt" stroke-miterlimit="4" stroke-width="1.0667" d="M5.867 0.533h20.267c2.946 0 5.333 2.388 5.333 5.333v20.267c0 2.946-2.388 5.333-5.333 5.333h-20.267c-2.946 0-5.333-2.388-5.333-5.333v-20.267c0-2.946 2.388-5.333 5.333-5.333z"></path>
<path fill="#c0c0c0" d="M26.37 10.473c0.186 0.29 0.297 0.633 0.297 1.003v10c0 1.035-0.842 1.875-1.875 1.875h-17.583c-1.035 0-1.875-0.842-1.875-1.875v-10c0-0.37 0.111-0.713 0.297-1.003l9.995 7.753c0.112 0.083 0.243 0.125 0.375 0.125s0.263-0.042 0.374-0.125zM24.791 9.6c0.192 0 0.374 0.037 0.549 0.092l-9.341 7.252-9.341-7.253c0.175-0.053 0.356-0.091 0.549-0.091z"></path>
</svg>
