<!-- Generated by IcoMoon.io -->
<svg version="1.1" xmlns="http://www.w3.org/2000/svg" width="32" height="32" viewBox="0 0 32 32">
<title>ShapePhone</title>
<path fill="#fff" stroke="#00acb9" stroke-linejoin="miter" stroke-linecap="butt" stroke-miterlimit="4" stroke-width="1.0667" d="M5.867 0.533h20.267c2.946 0 5.333 2.388 5.333 5.333v20.267c0 2.946-2.388 5.333-5.333 5.333h-20.267c-2.946 0-5.333-2.388-5.333-5.333v-20.267c0-2.946 2.388-5.333 5.333-5.333z"></path>
<path fill="#00acb9" d="M23.434 19.865c-0.046-0.137-0.334-0.337-0.864-0.603-0.144-0.083-0.349-0.196-0.613-0.341-0.266-0.143-0.506-0.276-0.722-0.397-0.215-0.122-0.418-0.239-0.608-0.352-0.030-0.023-0.125-0.090-0.284-0.199-0.16-0.11-0.293-0.192-0.403-0.245-0.11-0.052-0.219-0.078-0.324-0.078-0.151 0-0.341 0.107-0.567 0.323-0.227 0.217-0.436 0.451-0.625 0.704-0.19 0.255-0.39 0.49-0.603 0.705-0.212 0.217-0.386 0.324-0.523 0.324-0.068 0-0.154-0.019-0.256-0.057-0.101-0.038-0.179-0.070-0.233-0.096-0.053-0.028-0.144-0.080-0.273-0.16-0.128-0.080-0.201-0.123-0.215-0.131-1.038-0.576-1.929-1.234-2.671-1.977-0.742-0.743-1.402-1.633-1.978-2.671-0.007-0.015-0.051-0.087-0.13-0.215-0.080-0.129-0.133-0.22-0.16-0.273-0.026-0.053-0.058-0.131-0.096-0.234-0.037-0.101-0.057-0.187-0.057-0.256 0-0.135 0.108-0.309 0.324-0.523 0.215-0.211 0.45-0.413 0.704-0.602s0.489-0.398 0.704-0.625c0.217-0.227 0.324-0.416 0.324-0.567 0-0.107-0.027-0.214-0.079-0.324-0.053-0.11-0.134-0.245-0.245-0.403-0.109-0.16-0.176-0.254-0.198-0.285-0.113-0.189-0.23-0.391-0.352-0.608-0.122-0.215-0.254-0.457-0.398-0.721-0.144-0.266-0.257-0.469-0.341-0.613-0.265-0.53-0.465-0.818-0.602-0.864-0.053-0.022-0.133-0.034-0.239-0.034-0.205 0-0.471 0.037-0.801 0.114-0.331 0.075-0.589 0.155-0.779 0.238-0.379 0.16-0.78 0.622-1.205 1.387-0.384 0.711-0.579 1.417-0.579 2.112 0 0.205 0.014 0.403 0.041 0.597 0.027 0.192 0.074 0.411 0.142 0.653 0.068 0.243 0.123 0.422 0.164 0.54 0.043 0.117 0.119 0.327 0.234 0.631 0.113 0.303 0.181 0.489 0.205 0.557 0.265 0.742 0.579 1.405 0.943 1.988 0.597 0.971 1.414 1.972 2.448 3.006 1.035 1.035 2.037 1.851 3.006 2.449 0.583 0.364 1.247 0.678 1.989 0.943 0.068 0.023 0.254 0.091 0.557 0.205s0.513 0.192 0.63 0.234c0.117 0.042 0.298 0.096 0.54 0.164 0.243 0.068 0.461 0.116 0.654 0.143 0.192 0.026 0.391 0.039 0.596 0.039 0.697 0 1.402-0.193 2.114-0.579 0.765-0.425 1.227-0.827 1.387-1.205 0.083-0.189 0.162-0.448 0.238-0.779 0.076-0.33 0.113-0.596 0.113-0.8 0-0.107-0.011-0.187-0.033-0.24z"></path>
</svg>
