<!-- Generated by IcoMoon.io -->
<svg version="1.1" xmlns="http://www.w3.org/2000/svg" width="32" height="32" viewBox="0 0 32 32">
<title>ShareFilled</title>
<path d="M11.293 16c0 0.109-0.025 0.212-0.031 0.321l11.465 5.733c0.983-0.832 2.238-1.351 3.625-1.351 3.119 0 5.648 2.528 5.648 5.648 0 3.122-2.528 5.649-5.648 5.649-3.122 0-5.646-2.528-5.646-5.649 0-0.113 0.024-0.214 0.031-0.323l-11.466-5.73c-0.986 0.828-2.238 1.347-3.625 1.347-3.12 0-5.648-2.526-5.648-5.644 0-3.121 2.528-5.649 5.647-5.649 1.387 0 2.64 0.521 3.625 1.349l11.466-5.731c-0.007-0.109-0.031-0.212-0.031-0.325 0-3.116 2.524-5.644 5.646-5.644 3.119 0 5.648 2.528 5.648 5.644 0 3.122-2.528 5.649-5.648 5.649-1.391 0-2.644-0.521-3.625-1.353l-11.465 5.735c0.007 0.109 0.031 0.212 0.031 0.324v0z"></path>
</svg>
