<!-- Generated by IcoMoon.io -->
<svg version="1.1" xmlns="http://www.w3.org/2000/svg" width="32" height="32" viewBox="0 0 32 32">
<title>SkypeFilled</title>
<path d="M30.868 19.397c0.228-1.041 0.349-2.121 0.349-3.229 0-8.311-6.738-15.049-15.049-15.049-0.877 0-1.737 0.076-2.574 0.22-1.345-0.847-2.936-1.339-4.643-1.339-4.82 0-8.727 3.908-8.727 8.727 0 1.611 0.438 3.119 1.2 4.414-0.2 0.978-0.304 1.99-0.304 3.026 0 8.311 6.738 15.049 15.049 15.049 0.941 0 1.862-0.087 2.756-0.252 1.229 0.66 2.633 1.036 4.126 1.036 4.82 0 8.727-3.907 8.727-8.727 0-1.393-0.328-2.708-0.908-3.876zM23.886 23.36c-0.696 0.985-1.725 1.766-3.058 2.32-1.32 0.549-2.902 0.827-4.703 0.827-2.162 0-3.974-0.38-5.388-1.13-1.011-0.546-1.845-1.286-2.478-2.199-0.639-0.922-0.964-1.837-0.964-2.719 0-0.551 0.211-1.030 0.628-1.421 0.412-0.388 0.941-0.584 1.571-0.584 0.517 0 0.963 0.155 1.326 0.462 0.346 0.294 0.644 0.728 0.882 1.289 0.267 0.611 0.557 1.127 0.865 1.533 0.295 0.391 0.72 0.719 1.262 0.975 0.546 0.258 1.281 0.389 2.186 0.389 1.244 0 2.264-0.266 3.031-0.79 0.749-0.512 1.114-1.126 1.114-1.878 0-0.594-0.19-1.061-0.581-1.427-0.41-0.383-0.95-0.681-1.606-0.886-0.684-0.213-1.612-0.443-2.761-0.684-1.556-0.333-2.878-0.729-3.932-1.175-0.004-0.002-0.008-0.003-0.012-0.005-1.079-0.459-1.949-1.095-2.585-1.892-0.646-0.809-0.974-1.823-0.974-3.016 0-1.137 0.344-2.162 1.022-3.046 0.673-0.878 1.656-1.56 2.921-2.028 1.249-0.462 2.735-0.696 4.416-0.696 1.344 0 2.526 0.155 3.512 0.462 0.992 0.309 1.828 0.726 2.485 1.239 0.662 0.517 1.154 1.070 1.463 1.645 0.312 0.58 0.471 1.158 0.471 1.717 0 0.538-0.208 1.026-0.617 1.452-0.412 0.428-0.932 0.646-1.546 0.646-0.557 0-0.994-0.136-1.296-0.404-0.282-0.249-0.574-0.637-0.898-1.196-0.375-0.713-0.829-1.275-1.35-1.671-0.506-0.385-1.351-0.58-2.513-0.58-1.079 0-1.956 0.217-2.607 0.644-0.628 0.412-0.933 0.883-0.933 1.442 0 0.343 0.098 0.629 0.3 0.876 0.214 0.261 0.516 0.491 0.897 0.681 0.396 0.199 0.803 0.357 1.211 0.47 0.418 0.116 1.12 0.288 2.082 0.51 1.014 0.218 1.958 0.457 2.818 0.714 0.173 0.052 0.343 0.104 0.509 0.157 1.002 0.321 1.868 0.716 2.574 1.176 0.721 0.469 1.292 1.072 1.697 1.792 0.406 0.722 0.612 1.614 0.612 2.65 0 1.24-0.355 2.37-1.053 3.359z"></path>
</svg>
