<!-- Generated by IcoMoon.io -->
<svg version="1.1" xmlns="http://www.w3.org/2000/svg" width="32" height="32" viewBox="0 0 32 32">
<title>Smile</title>
<path d="M15.925 30.128c-3.901 0-7.44-1.581-10.009-4.136-1.026-1.020-1.897-2.196-2.575-3.488-1.033-1.968-1.618-4.206-1.618-6.578 0-7.832 6.371-14.203 14.203-14.203 3.715 0 7.1 1.434 9.634 3.777 1.314 1.215 2.398 2.673 3.18 4.303 0.89 1.855 1.389 3.931 1.389 6.123 0 7.832-6.371 14.203-14.203 14.203zM15.925 0c-8.781 0-15.925 7.144-15.925 15.925s7.144 15.925 15.925 15.925 15.925-7.144 15.925-15.925c0-8.781-7.144-15.925-15.925-15.925z"></path>
<path d="M10.724 10.652c0.951 0 1.722 0.771 1.722 1.722s-0.771 1.721-1.722 1.721c-0.951 0-1.722-0.77-1.722-1.721s0.771-1.722 1.722-1.722z"></path>
<path d="M21.376 10.652c0.951 0 1.722 0.771 1.722 1.722s-0.771 1.721-1.722 1.721c-0.951 0-1.722-0.77-1.722-1.721s0.771-1.722 1.722-1.722z"></path>
<path d="M15.894 24.747c3.331 0 6.523-1.703 8.35-4.531l-1.446-0.934c-1.678 2.597-4.748 4.046-7.822 3.691-2.395-0.276-4.61-1.656-5.925-3.691l-1.446 0.934c1.591 2.463 4.274 4.133 7.174 4.467 0.373 0.043 0.744 0.064 1.115 0.064z"></path>
</svg>
