<!-- Generated by IcoMoon.io -->
<svg version="1.1" xmlns="http://www.w3.org/2000/svg" width="32" height="32" viewBox="0 0 32 32">
<title>SortFilled</title>
<path d="M16.293 13.714h8c0.167 0 0.304-0.053 0.41-0.161s0.161-0.244 0.161-0.411v-3.428c0-0.167-0.054-0.304-0.161-0.411s-0.244-0.161-0.41-0.161h-8c-0.167 0-0.304 0.053-0.411 0.161s-0.161 0.244-0.161 0.411v3.428c0 0.167 0.053 0.304 0.161 0.411s0.244 0.161 0.411 0.161z"></path>
<path d="M16.293 4.571h4.571c0.167 0 0.304-0.053 0.41-0.161s0.16-0.244 0.16-0.411v-3.429c0-0.167-0.053-0.304-0.16-0.411s-0.244-0.161-0.41-0.161h-4.571c-0.167 0-0.304 0.053-0.411 0.161s-0.161 0.244-0.161 0.411v3.429c0 0.167 0.053 0.304 0.161 0.411s0.244 0.161 0.411 0.161z"></path>
<path d="M12.293 25.143h-3.429v-24.571c0-0.167-0.053-0.304-0.161-0.411s-0.244-0.161-0.411-0.161h-3.429c-0.167 0-0.304 0.053-0.411 0.161s-0.161 0.244-0.161 0.411v24.571h-3.429c-0.262 0-0.44 0.119-0.536 0.357-0.095 0.226-0.053 0.435 0.125 0.625l5.714 5.714c0.131 0.107 0.268 0.16 0.411 0.16 0.155 0 0.292-0.053 0.411-0.16l5.696-5.697c0.119-0.143 0.179-0.286 0.179-0.428 0-0.167-0.054-0.304-0.161-0.412-0.107-0.107-0.244-0.16-0.411-0.16z"></path>
<path d="M31.561 27.589c-0.107-0.107-0.244-0.161-0.411-0.161h-14.857c-0.167 0-0.304 0.053-0.411 0.161s-0.161 0.244-0.161 0.411v3.428c0 0.167 0.053 0.304 0.161 0.411s0.244 0.16 0.411 0.16h14.857c0.167 0 0.304-0.053 0.411-0.16s0.16-0.244 0.16-0.411v-3.428c0-0.166-0.053-0.304-0.16-0.411z"></path>
<path d="M16.293 22.857h11.429c0.167 0 0.304-0.053 0.411-0.16s0.16-0.244 0.16-0.41v-3.429c0-0.166-0.053-0.304-0.16-0.41s-0.244-0.16-0.411-0.16h-11.429c-0.167 0-0.304 0.053-0.411 0.16s-0.161 0.244-0.161 0.41v3.429c0 0.166 0.053 0.304 0.161 0.41s0.244 0.16 0.411 0.16z"></path>
</svg>
