<!-- Generated by IcoMoon.io -->
<svg version="1.1" xmlns="http://www.w3.org/2000/svg" width="32" height="32" viewBox="0 0 32 32">
<title>Spin</title>
<path d="M22.986 8.918c0.459 0.385 1.041 0.597 1.639 0.597 0.759 0 1.472-0.333 1.96-0.913 0.905-1.079 0.764-2.694-0.315-3.6-0.459-0.385-1.042-0.598-1.64-0.598-0.758 0-1.472 0.333-1.959 0.913-0.906 1.079-0.764 2.694 0.315 3.6z"></path>
<path d="M29.016 11.842c-0.158 0-0.319 0.014-0.475 0.042-1.471 0.259-2.458 1.669-2.199 3.141 0.228 1.298 1.349 2.239 2.664 2.239 0.158 0 0.319-0.014 0.476-0.041 1.471-0.26 2.458-1.669 2.198-3.14-0.229-1.298-1.35-2.24-2.664-2.24z"></path>
<path d="M28.922 20.706c-0.436-0.252-0.93-0.384-1.428-0.384-1.023 0-1.976 0.55-2.486 1.434-0.382 0.662-0.485 1.434-0.286 2.173s0.673 1.358 1.335 1.74c0.436 0.252 0.93 0.385 1.429 0.385 1.022 0 1.975-0.549 2.485-1.433 0.789-1.369 0.319-3.125-1.049-3.915z"></path>
<path d="M20.772 25.801c-0.351 0-0.699 0.062-1.033 0.183-0.758 0.276-1.362 0.831-1.704 1.562s-0.377 1.551-0.101 2.31c0.433 1.19 1.574 1.989 2.839 1.989 0.351 0 0.699-0.062 1.032-0.183 0.757-0.276 1.361-0.83 1.703-1.563s0.377-1.552 0.102-2.309c-0.432-1.189-1.574-1.989-2.839-1.989z"></path>
<path d="M13.091 25.838c-0.352-0.128-0.718-0.193-1.086-0.193-1.33 0-2.529 0.841-2.984 2.091-0.291 0.798-0.253 1.66 0.106 2.429s0.994 1.352 1.792 1.642c0.352 0.128 0.717 0.193 1.087 0.193 1.331 0 2.53-0.841 2.984-2.090 0.29-0.796 0.252-1.658-0.107-2.428s-0.995-1.354-1.791-1.644z"></path>
<path d="M8.174 21.521c-0.594-1.028-1.7-1.666-2.889-1.666-0.581 0-1.155 0.155-1.662 0.447-0.771 0.445-1.322 1.164-1.552 2.023s-0.113 1.757 0.333 2.528c0.594 1.028 1.701 1.667 2.889 1.667 0.581 0 1.155-0.155 1.662-0.447 1.59-0.918 2.138-2.96 1.22-4.551z"></path>
<path d="M3.771 18.041c1.692 0 3.135-1.212 3.429-2.882 0.161-0.918-0.044-1.843-0.578-2.605s-1.333-1.272-2.251-1.434c-0.203-0.035-0.409-0.053-0.61-0.053-1.692 0-3.135 1.212-3.429 2.882-0.161 0.917 0.044 1.842 0.578 2.605s1.334 1.272 2.251 1.434c0.202 0.036 0.408 0.054 0.61 0.054z"></path>
<path d="M8.152 10.603c0.853 0 1.683-0.303 2.339-0.852 0.744-0.624 1.2-1.503 1.285-2.473s-0.212-1.915-0.837-2.659c-0.694-0.827-1.712-1.301-2.792-1.301-0.854 0-1.685 0.302-2.339 0.852-0.745 0.625-1.202 1.504-1.287 2.473s0.213 1.913 0.838 2.659c0.695 0.827 1.712 1.301 2.793 1.301z"></path>
<path d="M20.351 3.962c0 2.188-1.774 3.962-3.962 3.962s-3.962-1.774-3.962-3.962c0-2.188 1.774-3.962 3.962-3.962s3.962 1.774 3.962 3.962z"></path>
</svg>
