<!-- Generated by IcoMoon.io -->
<svg version="1.1" xmlns="http://www.w3.org/2000/svg" width="33" height="32" viewBox="0 0 33 32">
<title>StarFilled</title>
<path d="M16.593 25.947l-8.582 5.522c-0.55 0.354-1.284 0.195-1.638-0.355-0.18-0.28-0.234-0.622-0.149-0.943l2.6-9.868-7.904-6.456c-0.507-0.414-0.582-1.161-0.168-1.668 0.21-0.257 0.519-0.415 0.851-0.434l10.189-0.577 3.697-9.512c0.237-0.61 0.924-0.912 1.534-0.675 0.31 0.12 0.555 0.365 0.675 0.675l3.697 9.512 10.189 0.577c0.654 0.037 1.153 0.597 1.116 1.25-0.019 0.332-0.176 0.641-0.434 0.851l-7.904 6.456 2.6 9.868c0.167 0.633-0.211 1.281-0.844 1.448-0.321 0.085-0.664 0.030-0.943-0.149l-8.582-5.522z"></path>
</svg>
