<!-- Generated by IcoMoon.io -->
<svg version="1.1" xmlns="http://www.w3.org/2000/svg" width="33" height="32" viewBox="0 0 33 32">
<title>Star</title>
<path d="M14.495 2.246l-3.186 8.193-8.777 0.498c-0.618 0.035-1.193 0.328-1.584 0.807l-0.109 0.145c-0.646 0.937-0.475 2.228 0.422 2.96l6.808 5.561-2.239 8.502c-0.158 0.599-0.057 1.236 0.278 1.756l0.104 0.148c0.691 0.904 1.972 1.14 2.946 0.513l7.393-4.758 7.393 4.758c0.521 0.335 1.158 0.436 1.756 0.278l0.158-0.048c1.083-0.372 1.711-1.523 1.414-2.648l-2.24-8.502 6.809-5.561c0.479-0.392 0.772-0.966 0.807-1.584l0.003-0.165c-0.020-1.145-0.92-2.098-2.082-2.163l-8.778-0.498-3.184-8.193c-0.224-0.577-0.68-1.033-1.257-1.257-1.136-0.442-2.415 0.121-2.857 1.257zM12.852 12.563l3.699-9.517 3.699 9.517 10.195 0.577-7.909 6.459 2.601 9.874-8.587-5.525-8.587 5.525 2.601-9.874-7.909-6.459 10.195-0.577z"></path>
</svg>
