<!-- Generated by IcoMoon.io -->
<svg version="1.1" xmlns="http://www.w3.org/2000/svg" width="43" height="32" viewBox="0 0 43 32">
<title>StatusOnline</title>
<path d="M34.277 0.005c-0.516 0.040-1.010 0.23-1.42 0.546s-0.72 0.744-0.891 1.233c-0.171 0.489-0.195 1.017-0.071 1.519s0.392 0.958 0.771 1.311c1.483 1.48 2.658 3.238 3.459 5.173s1.211 4.010 1.207 6.105c0.003 2.094-0.408 4.169-1.209 6.104s-1.976 3.693-3.457 5.174c-0.257 0.246-0.463 0.541-0.605 0.867s-0.217 0.678-0.221 1.034c-0.004 0.356 0.063 0.709 0.197 1.039s0.333 0.629 0.585 0.881 0.551 0.451 0.881 0.585c0.33 0.134 0.683 0.201 1.039 0.197s0.708-0.079 1.034-0.221c0.326-0.142 0.621-0.347 0.867-0.605 3.985-3.997 6.223-9.411 6.223-15.055s-2.238-11.058-6.223-15.055c-0.244-0.258-0.536-0.464-0.861-0.607s-0.674-0.22-1.029-0.226c-0.093-0.005-0.185-0.005-0.277 0v0.002zM7.778 0.059c-0.591 0.078-1.139 0.352-1.556 0.779-3.985 3.997-6.223 9.411-6.223 15.055s2.238 11.058 6.223 15.055c0.246 0.258 0.541 0.463 0.867 0.605s0.678 0.217 1.034 0.221 0.709-0.063 1.039-0.197c0.33-0.134 0.629-0.333 0.881-0.585s0.451-0.551 0.585-0.881c0.134-0.33 0.201-0.683 0.197-1.039s-0.079-0.708-0.221-1.034c-0.142-0.327-0.348-0.622-0.605-0.867-1.483-1.48-2.658-3.238-3.459-5.173s-1.211-4.010-1.208-6.105c-0.002-2.094 0.408-4.169 1.209-6.104s1.976-3.693 3.457-5.174c0.403-0.391 0.672-0.9 0.769-1.454s0.016-1.123-0.23-1.628c-0.246-0.505-0.646-0.919-1.142-1.184s-1.062-0.365-1.619-0.289v-0.002zM14.557 5.948c-0.585 0.063-1.132 0.317-1.557 0.724-1.29 1.165-2.322 2.588-3.030 4.176s-1.076 3.306-1.080 5.045c0 3.641 1.547 6.951 4.055 9.223 0.259 0.237 0.562 0.421 0.893 0.541s0.681 0.174 1.031 0.158c0.351-0.016 0.695-0.1 1.013-0.249s0.604-0.359 0.841-0.618c0.237-0.259 0.421-0.562 0.541-0.893s0.174-0.681 0.158-1.032c-0.016-0.351-0.1-0.695-0.249-1.013s-0.359-0.604-0.618-0.841c-0.738-0.666-1.327-1.48-1.729-2.389s-0.607-1.893-0.603-2.887c-0.004-0.994 0.202-1.978 0.604-2.888s0.992-1.724 1.73-2.39c0.426-0.371 0.723-0.867 0.849-1.417s0.074-1.127-0.149-1.646c-0.223-0.519-0.604-0.954-1.090-1.242s-1.050-0.415-1.612-0.361h0.002zM27.722 5.948c-0.529 0.029-1.037 0.215-1.46 0.534s-0.741 0.757-0.914 1.257c-0.173 0.501-0.193 1.041-0.057 1.553s0.421 0.972 0.819 1.321c0.739 0.666 1.328 1.48 1.731 2.39s0.608 1.894 0.603 2.888c0.004 0.994-0.202 1.978-0.604 2.888s-0.992 1.724-1.73 2.39c-0.297 0.222-0.545 0.503-0.727 0.826s-0.295 0.68-0.331 1.050c-0.036 0.369 0.005 0.742 0.121 1.094s0.304 0.677 0.552 0.952c0.248 0.275 0.551 0.496 0.89 0.648s0.705 0.231 1.076 0.233c0.371 0.002 0.738-0.073 1.078-0.221s0.646-0.365 0.897-0.637c1.291-1.166 2.323-2.588 3.031-4.176s1.076-3.307 1.081-5.046c0.006-1.735-0.351-3.453-1.049-5.041s-1.722-3.013-3.006-4.181c-0.266-0.251-0.581-0.445-0.925-0.569s-0.71-0.176-1.075-0.153zM21.333 12.671c-0.637 0-1.26 0.19-1.789 0.544s-0.942 0.857-1.186 1.446c-0.244 0.589-0.307 1.236-0.183 1.861s0.431 1.199 0.882 1.649c0.451 0.45 1.025 0.757 1.649 0.881s1.272 0.060 1.861-0.184c0.588-0.244 1.091-0.657 1.445-1.186s0.543-1.152 0.543-1.789c0.001-0.423-0.082-0.843-0.244-1.234s-0.399-0.747-0.698-1.046c-0.299-0.299-0.655-0.537-1.046-0.698s-0.811-0.245-1.234-0.244v0.002z"></path>
</svg>
