<!-- Generated by IcoMoon.io -->
<svg version="1.1" xmlns="http://www.w3.org/2000/svg" width="59" height="32" viewBox="0 0 59 32">
<title>StatusOffline</title>
<path d="M40.857 0.551c0.41-0.315 0.903-0.505 1.42-0.546 0.092-0.006 0.185-0.006 0.277-0.001 0.355 0.006 0.704 0.083 1.029 0.227s0.617 0.349 0.861 0.607c3.378 3.388 5.501 7.794 6.069 12.496h5.487c1.473 0 2.667 1.194 2.667 2.667s-1.194 2.667-2.667 2.667h-5.514c-0.606 4.62-2.715 8.944-6.042 12.281-0.246 0.258-0.541 0.463-0.867 0.606s-0.678 0.217-1.034 0.221c-0.222 0.002-0.443-0.022-0.658-0.074-0.13-0.031-0.257-0.073-0.382-0.123-0.33-0.134-0.629-0.333-0.881-0.585s-0.451-0.552-0.585-0.882c-0.134-0.329-0.201-0.682-0.197-1.039 0.002-0.181 0.023-0.361 0.061-0.537 0.037-0.169 0.091-0.336 0.161-0.497 0.142-0.327 0.348-0.621 0.605-0.867 1.482-1.48 2.657-3.238 3.457-5.174 0.444-1.074 0.769-2.19 0.969-3.329h-3.635c-0.18 0.777-0.434 1.539-0.761 2.272-0.708 1.589-1.741 3.010-3.031 4.177-0.251 0.272-0.557 0.49-0.897 0.637-0.34 0.148-0.707 0.223-1.078 0.221-0.275-0.001-0.547-0.046-0.807-0.13-0.091-0.030-0.181-0.064-0.268-0.103-0.338-0.152-0.642-0.372-0.89-0.648s-0.437-0.6-0.552-0.952c-0.116-0.353-0.157-0.725-0.121-1.094 0.036-0.37 0.149-0.727 0.331-1.049s0.43-0.604 0.727-0.827c0.738-0.667 1.327-1.48 1.73-2.391 0.017-0.038 0.033-0.076 0.049-0.113h-4.916c-0.129 0.077-0.265 0.145-0.405 0.202-0.589 0.244-1.236 0.307-1.861 0.184-0.358-0.070-0.699-0.202-1.010-0.385h-4.921c0.016 0.038 0.032 0.076 0.049 0.113 0.402 0.909 0.991 1.723 1.729 2.389 0.152 0.138 0.286 0.293 0.402 0.462 0.082 0.12 0.154 0.246 0.216 0.379 0.094 0.201 0.162 0.411 0.204 0.629 0.024 0.126 0.039 0.255 0.045 0.384 0.016 0.35-0.038 0.702-0.158 1.031-0.12 0.331-0.304 0.634-0.541 0.893s-0.523 0.469-0.841 0.617c-0.188 0.087-0.384 0.152-0.586 0.194-0.14 0.030-0.283 0.048-0.427 0.055-0.351 0.016-0.701-0.038-1.032-0.158l-0.155-0.063c-0.27-0.116-0.52-0.279-0.738-0.478-1.853-1.678-3.181-3.923-3.749-6.449h-3.623c0.2 1.139 0.524 2.257 0.969 3.331 0.801 1.935 1.976 3.694 3.459 5.173 0.258 0.246 0.463 0.54 0.605 0.867s0.217 0.678 0.221 1.034c0.004 0.357-0.063 0.71-0.197 1.039s-0.333 0.63-0.585 0.882c-0.252 0.251-0.551 0.451-0.881 0.585s-0.683 0.202-1.039 0.198c-0.356-0.004-0.708-0.079-1.034-0.221s-0.621-0.348-0.867-0.606c-3.326-3.337-5.436-7.661-6.042-12.281h-5.514c-1.473 0-2.667-1.194-2.667-2.667s1.194-2.667 2.667-2.667h5.487c0.568-4.702 2.691-9.108 6.069-12.496 0.279-0.284 0.615-0.501 0.985-0.637 0.183-0.068 0.375-0.116 0.571-0.142 0.557-0.076 1.123 0.026 1.619 0.29s0.895 0.678 1.142 1.184c0.246 0.505 0.327 1.076 0.23 1.629s-0.366 1.063-0.769 1.453c-1.482 1.48-2.656 3.238-3.457 5.174-0.472 1.141-0.809 2.331-1.005 3.544h3.623c0.181-0.852 0.451-1.685 0.808-2.486 0.708-1.589 1.74-3.010 3.030-4.176 0.425-0.406 0.972-0.66 1.557-0.724 0.56-0.053 1.125 0.074 1.611 0.362s0.867 0.723 1.090 1.242c0.223 0.518 0.275 1.095 0.149 1.646-0.076 0.332-0.215 0.646-0.407 0.923-0.125 0.181-0.274 0.346-0.442 0.493-0.738 0.667-1.327 1.48-1.73 2.391-0.048 0.108-0.093 0.217-0.135 0.328h4.687c0.054-0.042 0.109-0.081 0.166-0.118 0.529-0.354 1.152-0.543 1.789-0.543 0.423-0.003 0.843 0.079 1.234 0.242 0.261 0.108 0.505 0.249 0.729 0.419h4.68c-0.042-0.111-0.088-0.22-0.136-0.329-0.293-0.66-0.684-1.271-1.159-1.811-0.179-0.203-0.369-0.396-0.571-0.578-0.398-0.349-0.683-0.81-0.819-1.322s-0.116-1.052 0.057-1.553c0.097-0.28 0.24-0.54 0.421-0.772 0.142-0.181 0.307-0.344 0.493-0.484 0.423-0.32 0.931-0.505 1.46-0.535 0.365-0.023 0.731 0.029 1.075 0.154 0.144 0.052 0.283 0.116 0.415 0.191 0.184 0.104 0.355 0.232 0.51 0.378 1.283 1.168 2.307 2.592 3.005 4.181 0.352 0.799 0.617 1.632 0.793 2.482h3.609c-0.196-1.214-0.532-2.404-1.005-3.546-0.801-1.935-1.976-3.693-3.459-5.173-0.164-0.152-0.307-0.326-0.427-0.512-0.157-0.245-0.273-0.514-0.344-0.8-0.124-0.503-0.099-1.030 0.071-1.52 0.171-0.488 0.48-0.917 0.891-1.233z"></path>
</svg>
