<!-- Generated by IcoMoon.io -->
<svg version="1.1" xmlns="http://www.w3.org/2000/svg" width="26" height="32" viewBox="0 0 26 32">
<title>Step4</title>
<path fill="#ee403d" d="M12.656 0.178c0.243-0.237 0.63-0.237 0.873 0v0l8.617 8.41c0.182 0.178 0.238 0.447 0.142 0.683s-0.325 0.389-0.579 0.389v0h-1.245v2.605h2.813c1.603 0 2.908 1.304 2.908 2.908v0 14.114c0 1.496-1.217 2.713-2.713 2.713v0h-20.759c-1.496 0-2.713-1.217-2.713-2.713v0-14.308c0-1.496 1.217-2.713 2.713-2.713v0h3.008v-2.605h-1.245c-0.254 0-0.483-0.154-0.579-0.389s-0.040-0.505 0.142-0.683v0zM24.936 17.561c-0.471 0.328-1.042 0.52-1.658 0.52v0h-22.028v9.948h9.018c0.345 0 0.625 0.28 0.625 0.625s-0.28 0.625-0.625 0.625v0l-9.018 0.008c0 0.807 0.656 1.463 1.463 1.463v0h20.759c0.807 0 1.463-0.656 1.463-1.463v0-0.008h-9.018c-0.345 0-0.625-0.28-0.625-0.625s0.28-0.625 0.625-0.625v0h9.018v-1.856h-5.819c-1.668 0-3.024-1.357-3.024-3.024s1.357-3.024 3.024-3.024v0h5.819zM13.411 28.123c0.216 0.133 0.331 0.394 0.285 0.643-0.054 0.293-0.316 0.513-0.614 0.513-0.264 0-0.507-0.174-0.592-0.424-0.080-0.237-0.009-0.505 0.18-0.671 0.205-0.18 0.51-0.203 0.742-0.061zM24.936 21.374h-5.819c-0.978 0-1.774 0.796-1.774 1.774s0.796 1.774 1.774 1.774v0h5.819v-3.548zM20.405 22.523c0.345 0 0.625 0.28 0.625 0.625s-0.28 0.625-0.625 0.625v0h-0.875c-0.345 0-0.625-0.28-0.625-0.625s0.28-0.625 0.625-0.625v0zM23.278 13.515h-2.813v3.315h2.813c0.914 0 1.658-0.744 1.658-1.658s-0.744-1.658-1.658-1.658v-0zM19.215 9.66h-12.245v7.17h3.285v-3.768c0-0.345 0.28-0.625 0.625-0.625v0h4.424c0.345 0 0.625 0.28 0.625 0.625v0 3.768h3.285v-7.17zM14.68 13.688h-3.174v3.143h3.174v-3.143zM5.721 13.516h-3.007c-0.807 0-1.463 0.656-1.463 1.463v0 1.852h4.471v-3.315zM13.093 1.498l-7.082 6.912h14.164l-7.082-6.912z"></path>
</svg>
