<!-- Generated by IcoMoon.io -->
<svg version="1.1" xmlns="http://www.w3.org/2000/svg" width="32" height="32" viewBox="0 0 32 32">
<title>Step5</title>
<path fill="#00b394" d="M15.211 0.197l0.118 0.065 12.485 7.208c0.894 0.518 1.2 1.666 0.683 2.559-0.251 0.433-0.655 0.742-1.138 0.871-0.12 0.032-0.241 0.051-0.361 0.059l-0.121 0.004v7.513c2.945 0.777 5.123 3.463 5.123 6.648 0 3.791-3.084 6.875-6.875 6.875-3.066 0-5.669-2.017-6.553-4.794l-0.053-0.175h-16.022c-1.051 0-1.906-0.855-1.906-1.906 0-0.791 0.484-1.47 1.171-1.758l0.11-0.042v-12.361c-0.161-0-0.323-0.021-0.482-0.064-0.483-0.129-0.887-0.438-1.138-0.871-0.498-0.86-0.233-1.956 0.585-2.499l0.097-0.060 12.503-7.219c0.546-0.316 1.214-0.334 1.775-0.054zM25.125 19.5c-3.102 0-5.625 2.523-5.625 5.625s2.523 5.625 5.625 5.625c3.102 0 5.625-2.523 5.625-5.625s-2.523-5.625-5.625-5.625zM27.459 21.724c0.501 0 0.972 0.195 1.326 0.549s0.549 0.825 0.549 1.326c0 0.501-0.195 0.972-0.549 1.326v0l-3.051 3.051c-0.354 0.354-0.825 0.549-1.326 0.549s-0.972-0.195-1.326-0.549v0l-1.619-1.619c-0.731-0.731-0.731-1.92 0-2.651 0.354-0.354 0.825-0.549 1.326-0.549s0.972 0.195 1.326 0.549v0l0.293 0.293 1.725-1.725c0.354-0.354 0.825-0.549 1.326-0.549zM27.901 23.157c-0.244-0.244-0.64-0.244-0.884 0v0l-2.167 2.167c-0.244 0.244-0.64 0.244-0.884 0v0l-0.735-0.735c-0.118-0.118-0.275-0.183-0.442-0.183s-0.324 0.065-0.442 0.183c-0.244 0.244-0.244 0.64 0 0.884v0l1.619 1.619c0.118 0.118 0.275 0.183 0.442 0.183s0.324-0.065 0.442-0.183v0l3.051-3.051c0.118-0.118 0.183-0.275 0.183-0.442s-0.065-0.324-0.183-0.442zM18.281 24.468h-15.784c-0.362 0-0.656 0.294-0.656 0.656 0 0.338 0.256 0.617 0.585 0.652l0.071 0.004h15.784c-0.021-0.216-0.032-0.435-0.032-0.656s0.011-0.44 0.032-0.656zM14.138 1.297l-0.075 0.037-12.503 7.219c-0.296 0.172-0.398 0.553-0.226 0.85 0.083 0.144 0.218 0.247 0.378 0.289 0.134 0.036 0.273 0.026 0.398-0.026l0.074-0.037 3.503-2.023c0.299-0.173 0.681-0.070 0.854 0.229 0.159 0.276 0.084 0.623-0.163 0.81l-0.065 0.043-3.19 1.842v12.688h7.502v-8.125c0-0.321 0.241-0.585 0.552-0.621l0.073-0.004h6.25c0.321 0 0.585 0.241 0.621 0.552l0.004 0.073v8.125h0.394c0.828-2.866 3.476-4.969 6.606-4.969l0.252 0.005 0.25 0.014v-7.738l-11.252-6.497-3.19 1.842c-0.299 0.173-0.681 0.070-0.854-0.229-0.159-0.276-0.084-0.623 0.163-0.81l0.065-0.043 3.503-2.022c0.169-0.098 0.373-0.11 0.551-0.037l0.074 0.037 11.877 6.857c0.145 0.084 0.312 0.106 0.473 0.063s0.295-0.146 0.378-0.289c0.159-0.274 0.084-0.62-0.162-0.807l-0.065-0.043-12.487-7.21c-0.002-0.001-0.005-0.003-0.008-0.004-0.17-0.101-0.377-0.115-0.556-0.041zM16.874 15.718h-5v7.5h5v-7.5zM14.374 7.593c1.379 0 2.5 1.121 2.5 2.5s-1.121 2.5-2.5 2.5c-1.379 0-2.5-1.121-2.5-2.5s1.121-2.5 2.5-2.5zM14.374 8.843c-0.689 0-1.25 0.561-1.25 1.25s0.561 1.25 1.25 1.25c0.689 0 1.25-0.561 1.25-1.25s-0.561-1.25-1.25-1.25zM8.435 6.116l0.073 0.004c0.311 0.036 0.552 0.3 0.552 0.621 0 0.345-0.28 0.625-0.625 0.625s-0.625-0.28-0.625-0.625c0-0.345 0.28-0.625 0.625-0.625z"></path>
</svg>
