<!-- Generated by IcoMoon.io -->
<svg version="1.1" xmlns="http://www.w3.org/2000/svg" width="32" height="32" viewBox="0 0 32 32">
<title>Step3</title>
<path fill="#0086ca" d="M17.434 0.168c0.24-0.224 0.612-0.223 0.852 0v0l11.652 10.852c0.127 0.118 0.199 0.284 0.199 0.458s-0.072 0.339-0.2 0.457v0l-1.996 1.855c-0.24 0.223-0.612 0.223-0.852-0.001v0l-0.436-0.407v10.156c0.856-0.28 1.596-0.54 2.136-0.736 0.264-0.095 0.538-0.144 0.815-0.144 1.003 0 1.907 0.634 2.25 1.576 0.014 0.039 0.028 0.080 0.041 0.122 0.356 1.172-0.224 2.419-1.348 2.901v0l-0.589 0.25c-0.392 0.165-0.783 0.328-1.168 0.485-7.268 2.965-11.181 3.542-12.867 3.622-0.010 0-0.020 0.001-0.030 0.001-1.198 0-2.413-0.526-3.698-1.084-1.314-0.57-2.673-1.158-4.012-1.158v0h-2.058v2c0 0.345-0.28 0.625-0.625 0.625v0h-4.875c-0.345 0-0.625-0.28-0.625-0.625v0-11.416c0-0.345 0.28-0.625 0.625-0.625v0h4.875c0.345 0 0.625 0.28 0.625 0.625v0 1.316c1.27-0.020 2.22-0.191 2.941-0.845v0-7.047l-0.436 0.407c-0.12 0.112-0.273 0.168-0.426 0.168s-0.306-0.056-0.425-0.167v0l-1.996-1.855c-0.127-0.118-0.199-0.284-0.2-0.457s0.072-0.339 0.199-0.458v0l11.652-10.852zM4.875 20.584h-3.626v10.166h1.188v-6.49c0-0.345 0.28-0.625 0.625-0.625s0.625 0.28 0.625 0.625v0 6.49h1.188v-10.166zM12.936 20.145c-0.063-0.001-0.126-0-0.189 0.002-0.010 0-0.020 0-0.030 0-0.072 0.003-0.145 0.007-0.217 0.013v0c-0.511 0.045-1.008 0.182-1.468 0.405-0.005 0.003-0.010 0.005-0.016 0.008-0.058 0.028-0.115 0.058-0.172 0.089-0.012 0.007-0.024 0.013-0.036 0.020-0.050 0.028-0.099 0.057-0.148 0.087-0.019 0.012-0.038 0.024-0.058 0.037-0.041 0.026-0.083 0.053-0.123 0.081-0.026 0.018-0.052 0.037-0.078 0.056-0.033 0.024-0.067 0.048-0.1 0.074-0.031 0.024-0.063 0.050-0.093 0.075-0.027 0.022-0.054 0.044-0.081 0.067-0.052 0.045-0.104 0.091-0.155 0.139-1.113 1.056-2.546 1.212-3.847 1.229v0 5.6h2.058c1.598 0 3.145 0.67 4.509 1.262 1.157 0.502 2.251 0.976 3.187 0.98 1.603-0.079 5.315-0.638 12.292-3.471v0l-0.367-0.646c-0.17-0.3-0.065-0.682 0.235-0.852s0.682-0.065 0.852 0.235v0l0.444 0.782c0.239-0.101 0.479-0.202 0.719-0.305 0.538-0.231 0.816-0.828 0.646-1.388-0.006-0.018-0.012-0.037-0.019-0.057-0.165-0.453-0.597-0.756-1.077-0.756-0.132 0-0.263 0.023-0.389 0.069-2.139 0.774-7.329 2.531-10.783 2.684-0.009 0-0.018 0.001-0.028 0.001-0.061 0.003-0.122 0.005-0.182 0.006v0l-0.052 0.001c-0.069 0.001-0.137 0.002-0.204 0.002-1.539 0-2.55-1.19-2.576-3.032-0.002-0.167 0.062-0.329 0.18-0.448s0.278-0.186 0.445-0.186v0l0.533 0c0.085 0 0.169 0 0.251 0l3.271 0c0.497 0 0.961-0.19 1.293-0.513 0.028-0.027 0.054-0.055 0.080-0.084 0.051-0.058 0.099-0.119 0.142-0.183 0.022-0.032 0.042-0.065 0.061-0.099 0.147-0.257 0.221-0.542 0.221-0.848 0-0.089 0-0.181-0.278-0.248-0.064-0.015-0.143-0.030-0.241-0.042v0l-1.37-0.14v0.879c0 0.345-0.28 0.625-0.625 0.625s-0.625-0.28-0.625-0.625v0-1.006l-5.343-0.546c-0.076-0.009-0.151-0.017-0.226-0.022-0.047-0.003-0.094-0.005-0.141-0.006-0.027-0.001-0.054-0.003-0.082-0.003zM17.86 5.175l-7.544 7.041v4.922h11.166c0.345 0 0.625 0.28 0.625 0.625s-0.28 0.625-0.625 0.625v0h-11.166v1.137c0.853-0.452 1.815-0.67 2.794-0.625 0.006 0 0.012 0.001 0.019 0.001 0.056 0.003 0.113 0.007 0.17 0.011 0.015 0.001 0.031 0.002 0.046 0.004 0.063 0.006 0.126 0.012 0.189 0.020 0 0 0.001 0 0.001 0l7.964 0.814c1.409 0.178 1.619 1.036 1.619 1.531 0 0.494-0.122 0.977-0.351 1.403-0.012 0.022-0.022 0.044-0.034 0.065-0.033 0.058-0.068 0.115-0.105 0.171-0.554 0.831-1.516 1.34-2.557 1.34v0l-0.576-0c-0.034 0-0.069 0-0.106 0l-2.679-0c0.12 0.554 0.438 1.166 1.256 1.166 0.060 0 0.122-0.001 0.183-0.002 0.014-0 0.028-0.001 0.043-0.001 0.054-0.001 0.108-0.003 0.162-0.005 0.008-0 0.015-0.001 0.023-0.001 2.061-0.090 4.854-0.816 7.027-1.48v0-11.717l-7.544-7.041zM3.104 21.574l0.081 0.011c0.039 0.008 0.079 0.020 0.117 0.036s0.074 0.035 0.107 0.058c0.034 0.023 0.066 0.049 0.095 0.078s0.055 0.061 0.078 0.095c0.022 0.034 0.042 0.070 0.058 0.108s0.027 0.077 0.036 0.117 0.012 0.081 0.012 0.122c0 0.041-0.004 0.082-0.012 0.122s-0.020 0.079-0.036 0.117c-0.016 0.038-0.035 0.074-0.058 0.108s-0.049 0.066-0.078 0.095-0.061 0.055-0.095 0.078c-0.034 0.023-0.070 0.042-0.107 0.058s-0.078 0.027-0.117 0.036c-0.041 0.008-0.082 0.012-0.123 0.012s-0.082-0.004-0.122-0.012c-0.040-0.008-0.079-0.020-0.117-0.036s-0.074-0.035-0.108-0.058c-0.034-0.023-0.066-0.049-0.095-0.078s-0.055-0.061-0.078-0.095c-0.022-0.034-0.042-0.070-0.058-0.108s-0.027-0.077-0.036-0.117-0.013-0.081-0.013-0.122c0-0.041 0.004-0.082 0.013-0.122s0.020-0.079 0.036-0.117c0.016-0.038 0.035-0.074 0.058-0.108s0.049-0.066 0.078-0.095 0.061-0.055 0.095-0.078c0.034-0.023 0.070-0.042 0.108-0.058s0.077-0.028 0.117-0.036c0.081-0.016 0.164-0.016 0.244 0l-0.081-0.011zM23.585 17.139l0.081 0.011c0.040 0.008 0.079 0.021 0.117 0.036s0.074 0.035 0.108 0.058c0.034 0.023 0.066 0.049 0.095 0.078 0.116 0.116 0.183 0.277 0.183 0.442 0 0.041-0.004 0.082-0.012 0.122s-0.020 0.079-0.036 0.117c-0.016 0.038-0.035 0.074-0.058 0.108s-0.049 0.066-0.077 0.095c-0.029 0.029-0.061 0.055-0.095 0.078s-0.070 0.042-0.108 0.058c-0.038 0.016-0.077 0.027-0.117 0.036s-0.081 0.012-0.122 0.012c-0.041 0-0.082-0.004-0.122-0.012s-0.079-0.020-0.117-0.036c-0.038-0.016-0.074-0.035-0.108-0.058s-0.066-0.049-0.095-0.078-0.055-0.061-0.078-0.095c-0.022-0.034-0.042-0.070-0.058-0.108s-0.027-0.077-0.036-0.117c-0.008-0.040-0.012-0.081-0.012-0.122 0-0.164 0.067-0.326 0.183-0.442 0.029-0.029 0.061-0.055 0.095-0.078s0.070-0.042 0.108-0.058c0.038-0.016 0.078-0.028 0.117-0.036 0.080-0.016 0.163-0.016 0.244 0l-0.081-0.011zM16.172 11.337c0.345 0 0.625 0.28 0.625 0.625v0 3.53c0 0.345-0.28 0.625-0.625 0.625v0h-3.995c-0.345 0-0.625-0.28-0.625-0.625v0-3.53c0-0.345 0.28-0.625 0.625-0.625v0h3.995zM23.544 11.337c0.345 0 0.625 0.28 0.625 0.625v0 3.53c0 0.345-0.28 0.625-0.625 0.625v0h-3.995c-0.345 0-0.625-0.28-0.625-0.625v0-3.53c0-0.345 0.28-0.625 0.625-0.625v0h3.995zM15.547 12.587h-2.745v2.28h2.745v-2.28zM22.919 12.587h-2.745v2.28h2.745v-2.28zM17.86 1.479l-10.734 9.998 1.078 1.002 9.23-8.615c0.24-0.224 0.613-0.224 0.853 0v0l9.23 8.615 1.078-1.002-10.734-9.998z"></path>
</svg>
