<!-- Generated by IcoMoon.io -->
<svg version="1.1" xmlns="http://www.w3.org/2000/svg" width="32" height="32" viewBox="0 0 32 32">
<title>Step1</title>
<path fill="none" stroke="#f89c33" stroke-linejoin="miter" stroke-linecap="butt" stroke-miterlimit="4" stroke-width="0.96" d="M5.6 0.48h20.8c2.828 0 5.12 2.292 5.12 5.12v20.8c0 2.828-2.292 5.12-5.12 5.12h-20.8c-2.828 0-5.12-2.292-5.12-5.12v-20.8c0-2.828 2.292-5.12 5.12-5.12z"></path>
<path fill="#00acb9" stroke="#f89c33" stroke-linejoin="miter" stroke-linecap="butt" stroke-miterlimit="4" stroke-width="0.64" d="M8.96 24.64h14.72c0.177 0 0.32 0.143 0.32 0.32s-0.143 0.32-0.32 0.32h-14.72c-0.177 0-0.32-0.143-0.32-0.32s0.143-0.32 0.32-0.32z"></path>
<path fill="#00acb9" stroke="#f89c33" stroke-linejoin="miter" stroke-linecap="butt" stroke-miterlimit="4" stroke-width="0.64" d="M6.4 24.64c0.177 0 0.32 0.143 0.32 0.32s-0.143 0.32-0.32 0.32c-0.177 0-0.32-0.143-0.32-0.32s0.143-0.32 0.32-0.32z"></path>
<path fill="#f89c33" d="M16.32 20.48c-1.894 0-3.731-0.674-5.173-1.898-0.339-0.287-0.656-0.605-0.944-0.946-1.214-1.439-1.883-3.271-1.883-5.156 0-2.137 0.832-4.146 2.343-5.657s3.52-2.343 5.657-2.343c2.137 0 4.146 0.832 5.657 2.343s2.343 3.52 2.343 5.657c0 1.886-0.669 3.717-1.883 5.156-0.288 0.341-0.605 0.659-0.944 0.946-1.442 1.224-3.279 1.897-5.173 1.897zM16.32 5.48c-3.86 0-7 3.14-7 7 0 1.65 0.585 3.252 1.647 4.511 0.252 0.298 0.53 0.577 0.827 0.829 1.261 1.070 2.869 1.66 4.526 1.66s3.265-0.59 4.526-1.66c0.297-0.252 0.575-0.53 0.827-0.829 1.062-1.259 1.647-2.861 1.647-4.511 0-3.86-3.14-7-7-7z"></path>
<path fill="#f89c33" d="M16.32 12.48c-1.654 0-3-1.346-3-3s1.346-3 3-3c1.654 0 3 1.346 3 3s-1.346 3-3 3zM16.32 7.48c-1.103 0-2 0.897-2 2s0.897 2 2 2c1.103 0 2-0.897 2-2s-0.897-2-2-2z"></path>
<path fill="#f89c33" d="M21.17 18.701c-0.040 0-0.081-0.005-0.122-0.015-0.268-0.067-0.43-0.339-0.363-0.607 0.090-0.358 0.135-0.728 0.135-1.1 0-2.446-1.989-4.465-4.434-4.5l-0.066-0-0.066 0c-2.445 0.035-4.434 2.053-4.434 4.5 0 0.372 0.046 0.742 0.135 1.1 0.067 0.268-0.095 0.539-0.363 0.607s-0.539-0.095-0.607-0.363c-0.11-0.437-0.165-0.889-0.165-1.343 0-1.456 0.563-2.828 1.585-3.863 1.021-1.035 2.384-1.616 3.837-1.636 0.002-0 0.005-0 0.007-0l0.071-0 0.071 0c0.002 0 0.005 0 0.007 0 1.453 0.020 2.815 0.601 3.837 1.636 1.022 1.036 1.585 2.408 1.585 3.863 0 0.454-0.056 0.906-0.165 1.343-0.057 0.227-0.261 0.378-0.485 0.378z"></path>
</svg>
