<!-- Generated by IcoMoon.io -->
<svg version="1.1" xmlns="http://www.w3.org/2000/svg" width="22" height="32" viewBox="0 0 22 32">
<title>Supply</title>
<path fill="#696969" d="M20.635 0c0.973 0 1.765 0.786 1.765 1.753v0 3.001c0 0.259-0.211 0.469-0.472 0.469s-0.472-0.21-0.472-0.469v0-3.001c0-0.45-0.368-0.816-0.821-0.816v0h-18.87c-0.453 0-0.821 0.366-0.821 0.816v0 9.010h4.877c0.261 0 0.472 0.21 0.472 0.469s-0.211 0.469-0.472 0.469v0h-4.877v16.592c0 0.45 0.368 0.816 0.821 0.816v0h18.87c0.453 0 0.821-0.366 0.821-0.816v0-16.592h-13.43c-0.261 0-0.472-0.21-0.472-0.469s0.211-0.469 0.472-0.469v0h13.43v-3.817c0-0.259 0.211-0.469 0.472-0.469s0.472 0.21 0.472 0.469v0 21.346c0 0.967-0.792 1.753-1.765 1.753v0h-0.33v0.854c0 0.607-0.497 1.101-1.108 1.101v0h-1.338c-0.611 0-1.108-0.494-1.108-1.101v0-0.854h-11.103v0.854c0 0.607-0.497 1.101-1.108 1.101v0h-1.338c-0.611 0-1.108-0.494-1.108-1.101v0-0.854h-0.33c-0.973 0-1.765-0.787-1.765-1.753v0-26.539c0-0.967 0.792-1.753 1.765-1.753v0zM4.705 30.045h-1.667v0.854c0 0.090 0.074 0.163 0.164 0.163v0h1.338c0.091 0 0.164-0.073 0.164-0.163v0-0.854zM19.362 30.045h-1.667v0.854c0 0.090 0.074 0.163 0.164 0.163v0h1.338c0.091 0 0.164-0.073 0.164-0.163v0-0.854zM3.2 12.8c0.706 0 1.28 0.597 1.28 1.33v0 4.38c0 0.733-0.574 1.33-1.28 1.33s-1.28-0.597-1.28-1.33v0-4.38c0-0.733 0.574-1.33 1.28-1.33zM3.2 13.739c-0.207 0-0.376 0.175-0.376 0.391v0 4.38c0 0.215 0.169 0.391 0.376 0.391s0.376-0.175 0.376-0.391v0-4.38c0-0.216-0.169-0.391-0.376-0.391zM3.2 2.56c0.706 0 1.28 0.597 1.28 1.33v0 4.38c0 0.733-0.574 1.33-1.28 1.33s-1.28-0.597-1.28-1.33v0-4.38c0-0.733 0.574-1.33 1.28-1.33zM3.2 3.499c-0.207 0-0.376 0.175-0.376 0.391v0 4.38c0 0.216 0.169 0.391 0.376 0.391s0.376-0.175 0.376-0.391v0-4.38c0-0.216-0.169-0.391-0.376-0.391z"></path>
</svg>
