<!-- Generated by IcoMoon.io -->
<svg version="1.1" xmlns="http://www.w3.org/2000/svg" width="35" height="32" viewBox="0 0 35 32">
<title>Support</title>
<path d="M17.455 0c-9.624 0-17.455 7.178-17.455 16v6.629c0 1.638 1.566 2.971 3.491 2.971h1.745c0.463 0 0.907-0.169 1.234-0.469s0.511-0.707 0.511-1.131v-8.229c0-0.424-0.184-0.831-0.511-1.131s-0.771-0.469-1.234-0.469h-1.585c0.97-6.192 6.783-10.971 13.803-10.971s12.833 4.779 13.803 10.971h-1.585c-0.463 0-0.907 0.169-1.234 0.469s-0.511 0.707-0.511 1.131v9.829c0 1.765-1.566 3.2-3.491 3.2h-3.491v-1.6h-6.982v4.8h10.473c3.85 0 6.982-2.87 6.982-6.4 1.925 0 3.491-1.333 3.491-2.971v-6.629c0-8.822-7.83-16-17.455-16z"></path>
</svg>
