<!-- Generated by IcoMoon.io -->
<svg version="1.1" xmlns="http://www.w3.org/2000/svg" width="32" height="32" viewBox="0 0 32 32">
<title>Talk</title>
<path d="M1.665 8.035c-1.112 1.398-1.665 2.914-1.665 4.56v0c0 1.404 0.422 2.733 1.261 3.977s1.994 2.286 3.461 3.138c-0.118 0.286-0.242 0.547-0.367 0.783s-0.273 0.466-0.441 0.684c-0.174 0.218-0.304 0.392-0.397 0.516s-0.248 0.298-0.46 0.522c-0.212 0.224-0.348 0.373-0.41 0.441 0-0.012-0.025 0.012-0.069 0.080-0.050 0.062-0.075 0.093-0.080 0.087s-0.031 0.025-0.069 0.087c-0.044 0.062-0.062 0.099-0.062 0.099l-0.044 0.087c-0.019 0.037-0.031 0.069-0.037 0.105s-0.006 0.075-0.006 0.118 0.006 0.080 0.019 0.118c0.025 0.155 0.093 0.279 0.205 0.373s0.236 0.143 0.367 0.143h0.056c0.59-0.080 1.1-0.18 1.528-0.286 1.82-0.472 3.467-1.23 4.933-2.267 1.062 0.187 2.106 0.286 3.119 0.286 2.262 0 4.349-0.404 6.269-1.211s3.436-1.914 4.548-3.305c1.112-1.398 1.665-2.914 1.665-4.56s-0.553-3.163-1.665-4.56c-1.112-1.398-2.628-2.498-4.548-3.305-1.939-0.827-4.026-1.23-6.288-1.23s-4.349 0.404-6.269 1.218c-1.926 0.808-3.442 1.907-4.554 3.305z"></path>
<path d="M26.839 9.899c0.273 0.888 0.41 1.783 0.41 2.697 0 1.584-0.397 3.088-1.186 4.504-0.795 1.417-1.926 2.672-3.404 3.759-1.373 0.994-2.932 1.758-4.684 2.286-1.752 0.535-3.579 0.795-5.48 0.795-0.354 0-0.876-0.025-1.559-0.069 2.38 1.559 5.169 2.342 8.375 2.342 1.019 0 2.057-0.093 3.125-0.286 1.467 1.044 3.113 1.795 4.933 2.267 0.428 0.105 0.932 0.199 1.528 0.286 0.143 0.012 0.273-0.031 0.392-0.124s0.193-0.224 0.23-0.392c-0.006-0.069 0-0.112 0.019-0.118s0.012-0.044-0.006-0.118c-0.025-0.069-0.037-0.105-0.037-0.105l-0.044-0.087c-0.012-0.025-0.031-0.056-0.062-0.099s-0.056-0.069-0.069-0.087c-0.019-0.019-0.044-0.050-0.080-0.087-0.037-0.044-0.062-0.069-0.069-0.080-0.062-0.069-0.193-0.218-0.41-0.441-0.212-0.224-0.367-0.397-0.46-0.522s-0.23-0.298-0.397-0.516c-0.174-0.218-0.317-0.447-0.441-0.684s-0.248-0.497-0.367-0.783c1.467-0.852 2.622-1.895 3.461-3.131s1.261-2.56 1.261-3.982c0-1.454-0.441-2.814-1.329-4.082-0.919-1.255-2.125-2.305-3.647-3.144z"></path>
</svg>
