<!-- Generated by IcoMoon.io -->
<svg version="1.1" xmlns="http://www.w3.org/2000/svg" width="32" height="32" viewBox="0 0 32 32">
<title>TeamManagement</title>
<path fill="#fff" d="M16 8c2.209 0 4-1.791 4-4s-1.791-4-4-4c-2.209 0-4 1.791-4 4s1.791 4 4 4z"></path>
<path fill="#fff" d="M21.992 18.872l-0.908-7.072c-0.102-1.026-0.958-1.8-1.988-1.8h-1.096c-0.266 0-0.52 0.106-0.708 0.292l-1.292 1.292-1.292-1.292c-0.188-0.186-0.442-0.292-0.708-0.292h-1.094c-1.032 0-1.888 0.774-1.988 1.774l-0.91 7.1c-0.036 0.284 0.052 0.572 0.242 0.786 0.19 0.216 0.462 0.34 0.75 0.34h1.080l0.836 10.2c0.1 1.024 0.958 1.8 1.99 1.8h2.19c1.032 0 1.888-0.776 1.992-1.818l0.834-10.182h1.078c0.288 0 0.56-0.124 0.75-0.34 0.192-0.214 0.28-0.502 0.242-0.788z"></path>
<path fill="#fff" d="M25.999 8c2.209 0 4-1.791 4-4s-1.791-4-4-4c-2.209 0-4 1.791-4 4s1.791 4 4 4z"></path>
<path fill="#fff" d="M6 0c-2.206 0-4 1.794-4 4s1.794 4 4 4c2.204 0 4-1.794 4-4s-1.796-4-4-4z"></path>
<path fill="#fff" d="M31.992 18.872l-0.908-7.070c-0.102-1.028-0.956-1.802-1.988-1.802h-1.096c-0.266 0-0.52 0.106-0.708 0.292l-1.292 1.292-1.292-1.292c-0.188-0.186-0.442-0.292-0.706-0.292h-1.096c-0.124 0-0.236 0.044-0.354 0.066 0.258 0.456 0.46 0.95 0.52 1.504l0.906 7.048c0.112 0.858-0.156 1.722-0.732 2.372-0.272 0.312-0.62 0.532-0.992 0.704l0.664 6.506c0.102 1.026 0.958 1.8 1.99 1.8h2.19c1.032 0 1.888-0.776 1.992-1.818l0.832-8.182h1.078c0.288 0 0.56-0.124 0.75-0.34 0.192-0.214 0.28-0.502 0.242-0.788z"></path>
<path fill="#fff" d="M8.748 20.98c-0.568-0.642-0.832-1.504-0.724-2.358l0.91-7.102c0.052-0.532 0.248-1.012 0.498-1.456-0.112-0.020-0.218-0.064-0.336-0.064h-1.096c-0.266 0-0.52 0.106-0.708 0.292l-1.292 1.292-1.292-1.292c-0.188-0.186-0.442-0.292-0.706-0.292h-1.096c-1.032 0-1.888 0.774-1.988 1.774l-0.91 7.1c-0.036 0.284 0.052 0.572 0.242 0.786 0.19 0.216 0.464 0.34 0.75 0.34h1.080l0.836 8.2c0.1 1.024 0.958 1.8 1.99 1.8h2.19c1.032 0 1.888-0.776 1.992-1.818l0.664-6.49c-0.374-0.174-0.724-0.396-1.004-0.712z"></path>
</svg>
