<!-- Generated by IcoMoon.io -->
<svg version="1.1" xmlns="http://www.w3.org/2000/svg" width="47" height="32" viewBox="0 0 47 32">
<title>TeamManagementLarge</title>
<path fill="#fff" d="M23.206 0c-4.018 0-7.275 3.803-7.275 8.494 0 3.253 1.567 6.079 3.867 7.506l-9.768 4.529c-0.686 0.343-1.028 0.924-1.028 1.747v7.819c0.056 0.978 0.643 1.889 1.594 1.904h25.258c1.086-0.095 1.635-0.969 1.646-1.904v-7.819c0-0.823-0.342-1.405-1.028-1.747l-6.843-3.293-2.844-1.347c2.206-1.459 3.696-4.223 3.696-7.395 0-4.691-3.257-8.494-7.276-8.494zM11.471 2.987c-1.729 0.066-3.1 0.814-4.141 2.006-1.152 1.435-1.713 3.14-1.724 4.835 0.071 2.507 1.192 4.88 3.189 6.122l-7.973 3.705c-0.549 0.206-0.823 0.686-0.823 1.44v6.275c0.043 0.832 0.475 1.532 1.285 1.544h5.299v-6.637c0.088-1.774 0.921-3.209 2.418-3.909l5.297-2.52c0.412-0.24 0.806-0.566 1.183-0.978-2.184-3.37-2.488-7.406-1.080-10.957-0.916-0.56-1.944-0.92-2.932-0.926zM35.133 2.987c-1.131 0.024-2.176 0.44-3.034 1.028 1.369 3.582 0.992 7.621-1.030 10.751 0.446 0.514 0.91 0.909 1.39 1.183l5.092 2.418c1.551 0.851 2.351 2.298 2.367 3.909v6.637h5.452c0.897-0.077 1.279-0.793 1.287-1.544v-6.275c0-0.686-0.274-1.166-0.823-1.44l-7.871-3.757c2.041-1.505 3.066-3.761 3.086-6.070-0.054-1.828-0.613-3.525-1.724-4.835-1.161-1.26-2.602-1.993-4.192-2.006z"></path>
</svg>
