<!-- Generated by IcoMoon.io -->
<svg version="1.1" xmlns="http://www.w3.org/2000/svg" width="25" height="32" viewBox="0 0 25 32">
<title>TrashFilled</title>
<path d="M1.766 28.445c0 0.943 0.372 1.847 1.035 2.514s1.561 1.041 2.498 1.041h14.13c0.937 0 1.835-0.375 2.498-1.041s1.035-1.571 1.035-2.514v-21.333h-21.195v21.333zM6.111 15.787l2.49-2.507 3.762 3.769 3.744-3.769 2.49 2.507-3.744 3.769 3.744 3.769-2.49 2.507-3.744-3.769-3.744 3.769-2.49-2.507 3.744-3.769-3.762-3.769zM18.545 1.778l-1.766-1.778h-8.831l-1.766 1.778h-6.182v3.556h24.727v-3.556h-6.182z"></path>
</svg>
