<!-- Generated by IcoMoon.io -->
<svg version="1.1" xmlns="http://www.w3.org/2000/svg" width="32" height="32" viewBox="0 0 32 32">
<title>Trash</title>
<path fill="#6692aa" d="M12.365 11.486c-0.488 0-0.886 0.402-0.886 0.894v12.112c0 0.492 0.399 0.894 0.886 0.894s0.886-0.402 0.886-0.894v-12.112c0-0.492-0.399-0.894-0.886-0.894z"></path>
<path fill="#6692aa" d="M19.634 11.486c-0.488 0-0.886 0.402-0.886 0.894v12.112c0 0.492 0.399 0.894 0.886 0.894s0.886-0.402 0.886-0.894v-12.112c0-0.492-0.399-0.894-0.886-0.894z"></path>
<path fill="#6692aa" d="M19.9 0h-7.801c-1.729 0-3.102 1.385-3.102 3.128v1.743h-8.111c-0.488 0-0.886 0.402-0.886 0.894s0.399 0.894 0.886 0.894h2.792l1.418 22.391c0.089 1.654 1.463 2.95 3.102 2.95h15.601c1.64 0 3.014-1.296 3.102-2.95l1.418-22.391h2.792c0.488 0 0.886-0.402 0.886-0.894s-0.399-0.894-0.886-0.894h-8.111v-1.743c0-1.743-1.374-3.128-3.103-3.128zM10.77 3.128c0-0.76 0.576-1.341 1.33-1.341h7.801c0.754 0 1.33 0.581 1.33 1.341v1.743h-10.46v-1.743zM25.13 28.961c-0.044 0.715-0.621 1.251-1.33 1.251h-15.601c-0.709 0-1.285-0.536-1.33-1.251l-1.418-22.302h21.097l-1.418 22.302z"></path>
</svg>
