<!-- Generated by IcoMoon.io -->
<svg version="1.1" xmlns="http://www.w3.org/2000/svg" width="32" height="32" viewBox="0 0 32 32">
<title>Tumblr</title>
<path d="M25.783 24.457c-0.166-0.090-0.37-0.081-0.528 0.023-1.461 0.959-2.939 1.446-4.393 1.446-0.793 0-1.475-0.178-2.089-0.547-0.415-0.244-0.69-0.557-0.84-0.956-0.114-0.307-0.251-1.125-0.251-3.276v-7.427h6.83c0.285 0 0.516-0.231 0.516-0.516v-4.862c0-0.285-0.231-0.516-0.516-0.516h-6.83v-7.31c0-0.285-0.231-0.516-0.516-0.516h-4.406c-0.26 0-0.48 0.194-0.512 0.453-0.19 1.531-0.537 2.802-1.033 3.778-0.49 0.968-1.15 1.809-1.963 2.5-0.809 0.69-1.801 1.228-2.948 1.599-0.213 0.069-0.357 0.267-0.357 0.491v4.384c0 0.285 0.231 0.516 0.516 0.516h2.908v10.347c0 1.496 0.157 2.618 0.481 3.429 0.326 0.821 0.911 1.6 1.741 2.314 0.818 0.702 1.813 1.249 2.959 1.627 1.133 0.373 2.45 0.563 3.915 0.563 1.282 0 2.492-0.131 3.597-0.389 1.108-0.259 2.351-0.713 3.697-1.349 0.181-0.085 0.296-0.267 0.296-0.467v-4.884c0-0.19-0.104-0.364-0.271-0.454z"></path>
</svg>
