<!-- Generated by IcoMoon.io -->
<svg version="1.1" xmlns="http://www.w3.org/2000/svg" width="32" height="32" viewBox="0 0 32 32">
<title>TvSharp</title>
<path fill="#0e3556" opacity="0.8" d="M30.5 24h-29c-0.133 0-0.26-0.053-0.354-0.146s-0.146-0.221-0.146-0.354v-18c0-0.133 0.053-0.26 0.146-0.354s0.221-0.146 0.354-0.146h29c0.133 0 0.26 0.053 0.354 0.146s0.146 0.221 0.146 0.354v18c0 0.133-0.053 0.26-0.146 0.354s-0.221 0.146-0.354 0.146z"></path>
<path fill="#0e3556" opacity="0.8" d="M24.75 25h-17.5c-0.138 0-0.25 0.112-0.25 0.25v1.5c0 0.138 0.112 0.25 0.25 0.25h17.5c0.138 0 0.25-0.112 0.25-0.25v-1.5c0-0.138-0.112-0.25-0.25-0.25z"></path>
</svg>
