<!-- Generated by IcoMoon.io -->
<svg version="1.1" xmlns="http://www.w3.org/2000/svg" width="32" height="32" viewBox="0 0 32 32">
<title>Twitter</title>
<path d="M15.589 9.809l0.062 1.017-1.028-0.124c-3.741-0.477-7.008-2.096-9.783-4.814l-1.356-1.349-0.349 0.996c-0.74 2.22-0.267 4.565 1.274 6.142 0.822 0.871 0.637 0.996-0.781 0.477-0.493-0.166-0.925-0.29-0.966-0.228-0.144 0.145 0.349 2.033 0.74 2.78 0.534 1.037 1.624 2.054 2.816 2.656l1.007 0.477-1.192 0.021c-1.151 0-1.192 0.021-1.069 0.457 0.411 1.349 2.035 2.78 3.843 3.403l1.274 0.436-1.11 0.664c-1.644 0.954-3.576 1.494-5.508 1.535-0.925 0.021-1.685 0.104-1.685 0.166 0 0.207 2.507 1.369 3.967 1.826 4.378 1.349 9.578 0.768 13.483-1.535 2.775-1.639 5.549-4.897 6.844-8.051 0.699-1.681 1.398-4.752 1.398-6.225 0-0.954 0.062-1.079 1.213-2.22 0.678-0.664 1.315-1.39 1.439-1.598 0.206-0.394 0.185-0.394-0.863-0.042-1.747 0.623-1.994 0.54-1.13-0.394 0.637-0.664 1.398-1.867 1.398-2.22 0-0.062-0.308 0.042-0.658 0.228-0.37 0.207-1.192 0.519-1.809 0.705l-1.11 0.353-1.007-0.685c-0.555-0.373-1.336-0.788-1.747-0.913-1.048-0.29-2.651-0.249-3.597 0.083-2.569 0.934-4.193 3.341-4.008 5.976z"></path>
</svg>
