<!-- Generated by IcoMoon.io -->
<svg version="1.1" xmlns="http://www.w3.org/2000/svg" width="32" height="32" viewBox="0 0 32 32">
<title>UpdateAgencyRecords</title>
<path fill="#fff" d="M29.014 7.833h-18.126c-0.292 0-0.529-0.237-0.529-0.529s0.237-0.529 0.529-0.529h5.328l-2.34-2.886c-0.374-0.467-0.938-0.742-1.536-0.748h-6.816c-1.106 0.014-1.997 0.908-2.008 2.014v18.836c0.011 1.105 0.903 2 2.008 2.014h23.49c1.093 0 1.991-0.921 1.991-2.014v-14.183c-0.006-1.095-0.896-1.978-1.991-1.976z"></path>
<path fill="#fff" d="M3.865 28.515h22.62c0.91 0 1.679-0.661 1.91-1.454h-22.872c-1.676 0-3.065-1.395-3.065-3.071v-18.24c-0.793 0.226-1.454 0.999-1.454 1.915v18.836c0 1.093 0.898 2.014 1.991 2.014h0.87z"></path>
</svg>
