<!-- Generated by IcoMoon.io -->
<svg version="1.1" xmlns="http://www.w3.org/2000/svg" width="29" height="32" viewBox="0 0 29 32">
<title>UserV2</title>
<path d="M2.909 28.121c0-3.849 2.705-7.175 6.613-8.741 1.422 1.227 3.152 1.953 5.023 1.953s3.601-0.726 5.023-1.953c3.908 1.566 6.613 4.892 6.613 8.741h-23.273zM14.545 2.909c3.153 0 5.818 3.552 5.818 7.758s-2.665 7.758-5.818 7.758-5.818-3.553-5.818-7.758c0-4.206 2.665-7.758 5.818-7.758zM21.516 17.066c1.098-1.783 1.757-3.995 1.757-6.399 0-5.891-3.907-10.667-8.727-10.667s-8.727 4.776-8.727 10.667c0 2.404 0.659 4.616 1.757 6.399-4.511 2.14-7.575 6.284-7.575 11.055v0.97c0 1.071 0.869 1.939 1.939 1.939h25.212c1.071 0 1.939-0.869 1.939-1.939v-0.97c0-4.772-3.064-8.915-7.575-11.056z"></path>
</svg>
