<!-- Generated by IcoMoon.io -->
<svg version="1.1" xmlns="http://www.w3.org/2000/svg" width="47" height="32" viewBox="0 0 47 32">
<title>UserManagement</title>
<path fill="#fff" d="M29.714 13.714h16v4.571h-16v-4.571zM32 22.857h13.714v4.571h-13.714v-4.571zM27.428 4.571h18.286v4.571h-18.286v-4.571zM4.571 32h22.857v-2.286c0-6.302-5.127-11.429-11.428-11.429h-4.571c-6.302 0-11.429 5.127-11.429 11.429v2.286h4.571zM13.714 16c4.56 0 8-3.44 8-8s-3.44-8-8-8c-4.56 0-8 3.44-8 8s3.44 8 8 8z"></path>
</svg>
