<!-- Generated by IcoMoon.io -->
<svg version="1.1" xmlns="http://www.w3.org/2000/svg" width="29" height="32" viewBox="0 0 29 32">
<title>User</title>
<path fill="none" stroke="#00acb9" stroke-linejoin="round" stroke-linecap="round" stroke-miterlimit="4" stroke-width="2" d="M7.596 8.167c0 0.919 0.181 1.829 0.533 2.679s0.867 1.621 1.517 2.271c0.65 0.65 1.422 1.166 2.271 1.517s1.76 0.533 2.679 0.533c0.919 0 1.829-0.181 2.679-0.533s1.621-0.867 2.271-1.517 1.166-1.422 1.517-2.271c0.352-0.849 0.533-1.76 0.533-2.679s-0.181-1.829-0.533-2.679c-0.352-0.849-0.867-1.621-1.517-2.271s-1.422-1.166-2.271-1.517c-0.849-0.352-1.76-0.533-2.679-0.533s-1.83 0.181-2.679 0.533-1.621 0.867-2.271 1.517c-0.65 0.65-1.166 1.422-1.517 2.271s-0.533 1.76-0.533 2.679v0z"></path>
<path fill="none" stroke="#00acb9" stroke-linejoin="round" stroke-linecap="round" stroke-miterlimit="4" stroke-width="2" d="M1.599 31.167c0-3.448 1.37-6.754 3.808-9.192s5.745-3.808 9.192-3.808c3.448 0 6.754 1.37 9.192 3.808s3.808 5.745 3.808 9.192"></path>
</svg>
