<!-- Generated by IcoMoon.io -->
<svg version="1.1" xmlns="http://www.w3.org/2000/svg" width="32" height="32" viewBox="0 0 32 32">
<title>UserFilled</title>
<path d="M3.171 31.994c0 0-1.712 0.113-2.467-0.925-0.408-0.561-0.124-1.697 0.155-2.331l0.683-1.553c0 0 1.888-4.215 4.039-6.658 1.32-1.498 2.89-1.157 3.907-0.671 0.626 0.3 1.333 1.174 1.85 1.636 0.712 0.638 1.97 1.363 4.026 1.403h1.262c2.055-0.041 3.312-0.765 4.024-1.403 0.517-0.463 1.204-1.363 1.824-1.673 0.932-0.466 2.352-0.753 3.637 0.707 2.151 2.443 3.854 6.734 3.854 6.734l0.7 1.523c0.29 0.629 0.586 1.76 0.189 2.328-0.708 1.016-2.296 0.881-2.296 0.881h-25.387zM15.734 18.939c-4.461 0-8.076-4.325-8.076-9.657 0-5.33 3.615-9.282 8.076-9.282 4.463 0 8.081 3.952 8.081 9.282 0 5.332-3.618 9.657-8.081 9.657z"></path>
</svg>
