<!-- Generated by IcoMoon.io -->
<svg version="1.1" xmlns="http://www.w3.org/2000/svg" width="32" height="32" viewBox="0 0 32 32">
<title>UserV3</title>
<path d="M16 16c-3.722 0-6.75-3.028-6.75-6.75s3.028-6.75 6.75-6.75c3.722 0 6.75 3.028 6.75 6.75s-3.028 6.75-6.75 6.75zM27.314 20.686c-1.743-1.743-3.817-3.033-6.080-3.814 2.424-1.669 4.016-4.463 4.016-7.623 0-5.1-4.15-9.25-9.25-9.25s-9.25 4.15-9.25 9.25c0 3.159 1.592 5.953 4.016 7.623-2.263 0.781-4.337 2.071-6.080 3.814-3.022 3.022-4.686 7.040-4.686 11.314h2.5c0-7.444 6.056-13.5 13.5-13.5s13.5 6.056 13.5 13.5h2.5c0-4.274-1.664-8.292-4.686-11.314z"></path>
</svg>
