<!-- Generated by IcoMoon.io -->
<svg version="1.1" xmlns="http://www.w3.org/2000/svg" width="40" height="32" viewBox="0 0 40 32">
<title>Valuation</title>
<path fill="#696969" d="M34.491 25.898c0.998 0 1.81 0.812 1.81 1.81v0 0.656h0.040c0.998 0 1.81 0.812 1.81 1.81v0 0.656h0.656c0.319 0 0.577 0.258 0.577 0.577s-0.258 0.577-0.577 0.577v0h-16.032c-0.319 0-0.577-0.258-0.577-0.577s0.258-0.577 0.577-0.577v0h0.656v-0.656c0-0.998 0.812-1.81 1.81-1.81v0h0.040v-0.656c0-0.998 0.812-1.81 1.81-1.81v0zM34.49 27.052h-7.4c-0.362 0-0.656 0.294-0.656 0.656v0 0.656h5.589c0.319 0 0.577 0.258 0.577 0.577s-0.258 0.577-0.577 0.577v0h-6.783c-0.362 0-0.656 0.294-0.656 0.656v0 0.656h12.412v-0.656c0-0.362-0.294-0.656-0.656-0.656v0h-1.85c-0.319 0-0.577-0.258-0.577-0.577s0.258-0.577 0.577-0.577v0h0.656v-0.656c0-0.362-0.294-0.656-0.656-0.656v0zM17.942 0c0.484 0 0.938 0.188 1.28 0.53s0.53 0.796 0.53 1.28c0 0.039-0.002 0.078-0.005 0.117v0l8.544 8.544c0.501-0.032 1.014 0.141 1.396 0.524 0.706 0.706 0.706 1.854 0 2.56v0l-4.36 4.36c-0.353 0.353-0.816 0.529-1.28 0.529s-0.927-0.176-1.28-0.529v0l-0.091-0.098c-0.319-0.369-0.462-0.838-0.433-1.298v0l-2.556-2.556-0.464 0.464c-0.353 0.353-0.816 0.529-1.28 0.529-0.039 0-0.077-0.003-0.116-0.006v0l-14.737 14.737c-0.353 0.353-0.816 0.529-1.28 0.529s-0.927-0.176-1.28-0.529c-0.706-0.706-0.706-1.854 0-2.56v0l14.737-14.737c-0.032-0.501 0.142-1.014 0.524-1.396v0l0.464-0.464-2.554-2.554c-0.039 0.003-0.078 0.004-0.118 0.004-0.484 0-0.938-0.188-1.28-0.53s-0.53-0.796-0.53-1.28 0.188-0.938 0.53-1.28v0l4.36-4.36c0.342-0.342 0.796-0.53 1.28-0.53zM2.681 26.607l-1.336 1.336c-0.124 0.124-0.192 0.289-0.192 0.464s0.068 0.34 0.192 0.464c0.124 0.124 0.289 0.192 0.464 0.192s0.34-0.068 0.464-0.192v0l1.336-1.336-0.928-0.928zM13.146 16.143l-9.649 9.649 0.928 0.928 9.649-9.649-0.928-0.928zM30.791 18.499c0.319 0 0.577 0.258 0.577 0.577v0 4.933c0 0.319-0.258 0.577-0.577 0.577s-0.577-0.258-0.577-0.577v0-4.933c0-0.319 0.258-0.577 0.577-0.577zM26.771 21.062c0.265-0.177 0.623-0.105 0.8 0.16v0l1.233 1.85c0.177 0.265 0.105 0.623-0.16 0.8-0.098 0.066-0.209 0.097-0.319 0.097-0.186 0-0.369-0.090-0.481-0.257v0l-1.233-1.85c-0.177-0.265-0.105-0.623 0.16-0.8zM34.010 21.222c0.177-0.265 0.535-0.337 0.8-0.16s0.337 0.535 0.16 0.8v0l-1.233 1.85c-0.111 0.167-0.294 0.257-0.481 0.257-0.11 0-0.221-0.031-0.319-0.097-0.265-0.177-0.337-0.535-0.16-0.8v0zM28.871 11.811c-0.256-0.256-0.672-0.256-0.928 0v0l-4.36 4.36c-0.256 0.256-0.256 0.672 0 0.928s0.672 0.256 0.928 0v0l4.36-4.36c0.256-0.256 0.256-0.672-0-0.928zM15.763 13.525l-1.802 1.802 0.928 0.928 1.802-1.802-0.030-0.027-0.872-0.872c-0.010-0.010-0.017-0.020-0.027-0.030v0zM18.406 1.346c-0.256-0.256-0.672-0.256-0.928 0v0l-4.36 4.36c-0.124 0.124-0.192 0.289-0.192 0.464s0.068 0.34 0.192 0.464c0.124 0.124 0.289 0.192 0.464 0.192s0.34-0.068 0.464-0.192v0l2.18-2.18c0.225-0.225 0.591-0.225 0.816 0s0.225 0.591 0 0.816v0l-2.18 2.18c-0.009 0.009-0.019 0.018-0.029 0.027v0l7.907 7.907 0.027-0.029 4.36-4.36c0.010-0.009 0.020-0.017 0.030-0.027v0l-7.907-7.907c-0.009 0.010-0.018 0.019-0.027 0.029v0l-0.436 0.436c-0.225 0.225-0.591 0.225-0.816 0s-0.225-0.591 0-0.816v0l0.436-0.436c0.124-0.124 0.192-0.289 0.192-0.464s-0.068-0.34-0.192-0.464zM17.070 11.346l-0.464 0.464c-0.256 0.256-0.256 0.672 0 0.928v0l0.872 0.872c0.256 0.256 0.672 0.256 0.928 0v0l0.464-0.464-1.8-1.8z"></path>
</svg>
