<!-- Generated by IcoMoon.io -->
<svg version="1.1" xmlns="http://www.w3.org/2000/svg" width="31" height="32" viewBox="0 0 31 32">
<title>VideoShape</title>
<path fill="#0e3556" d="M2.612 0h26.122c1.443 0 2.612 1.17 2.612 2.612v26.776c0 1.443-1.17 2.612-2.612 2.612h-26.122c-1.443 0-2.612-1.17-2.612-2.612v-26.776c0-1.443 1.17-2.612 2.612-2.612z"></path>
<path fill="#fff" d="M8.163 15.673c0 1.959 0.256 3.051 0.256 3.051 0.179 1.23 1.342 2.352 2.574 2.51 0 0 1.818 0.316 4.517 0.316s4.515-0.316 4.515-0.316c1.234-0.15 2.382-1.282 2.567-2.509 0 0 0.264-1.244 0.264-3.052s-0.264-3.052-0.264-3.052c-0.175-1.228-1.331-2.363-2.56-2.537 0 0-1.149-0.288-4.523-0.288s-4.521 0.287-4.521 0.287c-1.231 0.16-2.38 1.309-2.57 2.536 0 0-0.257 1.095-0.257 3.054zM14.35 18.298c-0.353 0.215-0.639 0.052-0.639-0.362v-4.526c0-0.415 0.287-0.576 0.639-0.362l3.669 2.235c0.353 0.215 0.352 0.565 0 0.779l-3.669 2.235z"></path>
</svg>
