<!-- Generated by IcoMoon.io -->
<svg version="1.1" xmlns="http://www.w3.org/2000/svg" width="41" height="32" viewBox="0 0 41 32">
<title>Villa</title>
<path fill="#00acb9" d="M40.017 19.936l-3.274-13.391c-0.054-0.22-0.251-0.374-0.477-0.374h-23.049v-4.752c0-0.271-0.22-0.491-0.491-0.491h-4.583c-0.271 0-0.491 0.22-0.491 0.491v4.752h-2.264c-0.226 0-0.423 0.155-0.477 0.374l-3.274 13.391c-0.036 0.146-0.002 0.301 0.091 0.42s0.235 0.188 0.386 0.188h1.059v10.038c0 0.271 0.22 0.491 0.491 0.491h34.326c0.271 0 0.491-0.22 0.491-0.491v-10.038h1.058c0.151 0 0.293-0.069 0.386-0.188s0.127-0.274 0.091-0.42zM35.88 7.152l0.565 2.309h-12.868l-1.944-2.309h14.247zM8.634 1.909h3.601v4.261h-3.601v-4.261zM5.773 7.152h14.372l-1.985 2.309h-12.951l0.564-2.309zM14.065 30.091h-9.91v-9.547h9.91v9.547zM14.184 14.088c-0.076 0.089-0.118 0.203-0.118 0.32v5.154h-11.325l2.229-9.118h12.348l-3.133 3.644zM23.417 30.091h-5.18v-7.262c0-1.428 1.162-2.59 2.59-2.59s2.59 1.162 2.59 2.59v7.262zM26.607 30.091h-2.208v-7.262c0-1.97-1.603-3.572-3.572-3.572s-3.572 1.603-3.572 3.572v7.262h-2.208v-15.502l5.842-6.796 5.718 6.793v15.504zM37.5 30.091h-9.91v-9.547h9.91v9.547h0zM27.589 19.562v-5.154c0-0.116-0.041-0.227-0.116-0.316l-3.070-3.648h12.282l2.229 9.118-11.324 0z"></path>
<path fill="#00acb9" d="M11.406 22.928h-0.982v3.837h0.982v-3.837z"></path>
<path fill="#00acb9" d="M7.805 22.928h-0.982v3.837h0.982v-3.837z"></path>
<path fill="#00acb9" d="M34.543 22.928h-0.982v3.837h0.982v-3.837z"></path>
<path fill="#00acb9" d="M30.942 22.928h-0.982v3.837h0.982v-3.837z"></path>
</svg>
