<!-- Generated by IcoMoon.io -->
<svg version="1.1" xmlns="http://www.w3.org/2000/svg" width="32" height="32" viewBox="0 0 32 32">
<title>Vimeo</title>
<path d="M31.864 7.337c0.239-1.34 0.233-2.718-0.594-3.759-1.155-1.461-3.612-1.515-5.296-1.257-1.37 0.209-6.002 2.253-7.578 7.146 2.793-0.212 4.256 0.201 3.988 3.276-0.113 1.287-0.762 2.696-1.488 4.047-0.838 1.558-2.409 4.616-4.469 2.412-1.855-1.984-1.716-5.779-2.14-8.306-0.236-1.418-0.486-3.185-0.951-4.643-0.4-1.254-1.318-2.766-2.441-3.094-1.206-0.354-2.697 0.199-3.572 0.714-2.788 1.638-4.912 3.969-7.323 5.892v0c0.393 0.841 0.607 1.386 1.31 1.488 1.66 0.244 3.242-1.547 4.345 0.317 0.671 1.139 0.881 2.387 1.311 3.615 0.575 1.635 1.018 3.415 1.488 5.296 0.795 3.185 1.773 7.944 4.525 9.109 1.404 0.596 3.515-0.201 4.584-0.835 2.895-1.713 5.151-4.197 7.082-6.724 4.415-5.981 6.851-12.756 7.219-14.693z"></path>
</svg>
