<!-- Generated by IcoMoon.io -->
<svg version="1.1" xmlns="http://www.w3.org/2000/svg" width="37" height="32" viewBox="0 0 37 32">
<title>WarehouseManagement</title>
<path fill="#fff" d="M11.778 17.484h13.016v13.937h-13.016v-13.937z"></path>
<path fill="#fff" d="M0 22.844h9.635v3.217h-9.635v-3.217z"></path>
<path fill="#fff" d="M0 17.484h9.635v3.217h-9.635v-3.217z"></path>
<path fill="#fff" d="M0 28.203h9.635v3.217h-9.635v-3.217z"></path>
<path fill="#fff" d="M26.099 0.58h-15.626c-5.413 0-9.88 4.128-10.418 9.402h36.463c-0.538-5.273-5.005-9.402-10.419-9.402z"></path>
<path fill="#fff" d="M26.936 17.484h9.635v3.217h-9.635v-3.217z"></path>
<path fill="#fff" d="M26.936 28.203h9.635v3.217h-9.635v-3.217z"></path>
<path fill="#fff" d="M0 12.124h36.571v3.217h-36.571v-3.217z"></path>
<path fill="#fff" d="M26.936 22.844h9.635v3.217h-9.635v-3.217z"></path>
</svg>
