<!-- Generated by IcoMoon.io -->
<svg version="1.1" xmlns="http://www.w3.org/2000/svg" width="32" height="32" viewBox="0 0 32 32">
<title>Warning</title>
<path d="M31.351 24.038l-11.317-20.834c-0.854-1.438-2.363-2.297-4.035-2.297s-3.181 0.859-4.035 2.297c-0.006 0.011-0.012 0.022-0.018 0.033l-11.279 20.768c-0.872 1.468-0.889 3.231-0.045 4.716 0.846 1.486 2.37 2.372 4.079 2.372h22.534c1.709 0 3.296-0.886 4.142-2.372 0.844-1.485 0.828-3.248-0.026-4.683zM14.122 10.447c0-1.037 0.84-1.877 1.877-1.877s1.877 0.84 1.877 1.877v7.508c0 1.037-0.84 1.877-1.877 1.877s-1.877-0.84-1.877-1.877v-7.508zM15.999 27.339c-1.552 0-2.815-1.263-2.815-2.816s1.263-2.815 2.815-2.815c1.552 0 2.815 1.263 2.815 2.815s-1.263 2.816-2.815 2.816z"></path>
</svg>
