<!-- Generated by IcoMoon.io -->
<svg version="1.1" xmlns="http://www.w3.org/2000/svg" width="32" height="32" viewBox="0 0 32 32">
<title>WarningFilled</title>
<path d="M17.836 17.759c0 1.122-0.913 2.034-2.034 2.034s-2.034-0.913-2.034-2.034v-9.335c0-0.532 0.431-0.964 0.964-0.964h2.141c0.532 0 0.964 0.431 0.964 0.964v9.335zM15.803 26.395c-1.114 0-2.020-0.907-2.020-2.020s0.906-2.020 2.020-2.020c1.114 0 2.020 0.906 2.020 2.020s-0.907 2.020-2.020 2.020zM31.184 25.316l-12.694-21.986c-0.561-0.972-1.566-1.552-2.688-1.552s-2.127 0.58-2.688 1.552l-12.693 21.986c-0.561 0.972-0.561 2.132 0 3.104s1.565 1.552 2.688 1.552h25.388c1.122 0 2.127-0.58 2.688-1.552s0.561-2.132 0-3.104z"></path>
</svg>
