<!-- Generated by IcoMoon.io -->
<svg version="1.1" xmlns="http://www.w3.org/2000/svg" width="32" height="32" viewBox="0 0 32 32">
<title>YoutubeLogo</title>
<path d="M11.857 22.002v-11.857l9.93 5.928-9.93 5.928zM30.228 7.206c-0.857-1.529-1.786-1.81-3.678-1.917-1.89-0.129-6.643-0.182-10.761-0.182-4.126 0-8.881 0.054-10.769 0.18-1.888 0.109-2.819 0.388-3.683 1.919-0.882 1.527-1.336 4.157-1.336 8.788v0.016c0 4.611 0.454 7.261 1.336 8.772 0.864 1.529 1.793 1.806 3.682 1.935 1.89 0.111 6.645 0.176 10.771 0.176 4.118 0 8.871-0.065 10.763-0.174 1.892-0.129 2.821-0.406 3.678-1.935 0.89-1.512 1.34-4.161 1.34-8.772v-0.016c0-4.633-0.45-7.263-1.342-8.79v0z"></path>
</svg>
