<!-- Generated by IcoMoon.io -->
<svg version="1.1" xmlns="http://www.w3.org/2000/svg" width="32" height="32" viewBox="0 0 32 32">
<title>Youtube</title>
<path d="M25.223 23.407h-1.756l0.008-1.020c0-0.453 0.372-0.824 0.827-0.824h0.112c0.456 0 0.829 0.371 0.829 0.824l-0.020 1.020zM18.636 21.221c-0.445 0-0.81 0.299-0.81 0.666v4.961c0 0.366 0.364 0.665 0.81 0.665 0.447 0 0.812-0.299 0.812-0.665v-4.961c0-0.367-0.365-0.666-0.812-0.666zM29.333 18.446v9.438c0 2.264-1.963 4.116-4.363 4.116h-17.941c-2.4 0-4.363-1.852-4.363-4.116v-9.438c0-2.264 1.963-4.117 4.363-4.117h17.941c2.4 0 4.363 1.853 4.363 4.117zM8.226 28.908l-0.001-9.942 2.224 0.001v-1.473l-5.929-0.009v1.448l1.851 0.005v9.969h1.855zM14.893 20.448h-1.854v5.309c0 0.768 0.047 1.152-0.003 1.287-0.151 0.412-0.828 0.849-1.093 0.044-0.045-0.141-0.005-0.566-0.006-1.295l-0.007-5.345h-1.844l0.006 5.262c0.001 0.806-0.018 1.408 0.006 1.681 0.045 0.483 0.029 1.045 0.477 1.366 0.834 0.601 2.433-0.090 2.833-0.949l-0.004 1.096 1.489 0.002v-8.459zM20.825 26.527l-0.004-4.418c-0.001-1.684-1.261-2.692-2.971-1.33l0.007-3.285-1.852 0.003-0.009 11.339 1.523-0.022 0.139-0.706c1.946 1.785 3.169 0.562 3.167-1.58zM26.628 25.941l-1.39 0.007c-0.001 0.055-0.003 0.119-0.004 0.188v0.776c0 0.415-0.343 0.753-0.76 0.753h-0.272c-0.417 0-0.761-0.338-0.761-0.753v-2.041h3.184v-1.198c0-0.876-0.022-1.751-0.095-2.252-0.228-1.584-2.451-1.835-3.574-1.024-0.352 0.253-0.622 0.592-0.778 1.047-0.158 0.455-0.236 1.078-0.236 1.868v2.635c0.001 4.38 5.321 3.761 4.686-0.006zM19.496 11.638c0.096 0.233 0.244 0.421 0.446 0.563 0.199 0.14 0.454 0.21 0.759 0.21 0.267 0 0.504-0.072 0.71-0.221s0.379-0.37 0.52-0.665l-0.035 0.727h2.067v-8.79h-1.627v6.841c0 0.37-0.305 0.674-0.678 0.674-0.371 0-0.677-0.303-0.677-0.674v-6.841h-1.698v5.929c0 0.755 0.014 1.259 0.036 1.514s0.081 0.497 0.177 0.732zM13.233 6.674c0-0.844 0.070-1.503 0.21-1.978 0.141-0.473 0.394-0.854 0.76-1.141s0.833-0.433 1.401-0.433c0.478 0 0.888 0.094 1.23 0.278 0.344 0.185 0.609 0.425 0.793 0.721 0.187 0.297 0.315 0.603 0.383 0.915 0.069 0.317 0.103 0.795 0.103 1.439v2.223c0 0.815-0.033 1.415-0.096 1.796s-0.198 0.736-0.407 1.068c-0.206 0.329-0.473 0.574-0.795 0.731-0.326 0.158-0.7 0.236-1.121 0.236-0.471 0-0.868-0.065-1.195-0.201-0.328-0.135-0.582-0.339-0.762-0.609-0.182-0.271-0.311-0.601-0.388-0.986s-0.115-0.963-0.115-1.733l0.001-2.327zM14.852 10.165c0 0.498 0.37 0.904 0.822 0.904s0.821-0.406 0.821-0.904v-4.679c0-0.497-0.369-0.903-0.821-0.903s-0.822 0.406-0.822 0.903v4.679zM9.131 12.528h1.95l0.002-6.741 2.304-5.775h-2.133l-1.225 4.289-1.242-4.301h-2.111l2.451 5.79 0.003 6.738z"></path>
</svg>
